<?xml version="1.0" encoding="utf-8"?>
<!-- Generator: Adobe Illustrator 21.1.0, SVG Export Plug-In . SVG Version: 6.00 Build 0)  -->
<svg version="1.1" id="Calque_1" xmlns="http://www.w3.org/2000/svg" xmlns:xlink="http://www.w3.org/1999/xlink" x="0px" y="0px"
	 viewBox="0 0 432 432" style="enable-background:new 0 0 432 432;" xml:space="preserve">
<style type="text/css">
	.st0{fill:#1A1A1A;}
	.st1{fill:#F486A1;}
	.st2{fill:#CCCCCC;}
	.st3{fill:#3F3531;}
	.st4{fill:#BC4662;}
	.st5{fill:#6BAE3D;}
	.st6{fill:#F8982A;}
	.st7{fill:#BA61BB;}
	.st8{fill:#16BACB;}
	.st9{fill:#C4DA6D;}
	.st10{fill:#5C62B8;}
	.st11{fill:#8F99F2;}
	.st12{fill:#ED5F7D;}
	.st13{fill:#5A9100;}
	.st14{fill:#E2B8E0;}
	.st15{fill:#F8BE74;}
	.st16{fill:#43934A;}
	.st17{fill:#F55D00;}
	.st18{fill:#456F01;}
	.st19{fill:#333333;}
	.st20{fill:#9BE0ED;}
	.st21{fill:#A67C52;}
	.st22{fill:#42210B;}
	.st23{fill:#999999;}
	.st24{fill:#8F1A53;}
	.st25{fill:#E38BA4;}
	.st26{fill:#4D4D4D;}
	.st27{fill:#DF5376;}
	.st28{fill:#E5445E;}
	.st29{fill:#EDBAC9;}
	.st30{fill:#E7D3D5;}
	.st31{fill:#C1272D;}
	.st32{fill:#BC2A34;}
	.st33{fill:#AB827E;}
	.st34{fill:#75614D;}
	.st35{fill:#4F4A41;}
	.st36{fill:#7E7163;}
</style>
<g>
	<g>
		<path class="st35" d="M269.6,160.3c-1.5,0.3-3,0.5-4.6,0.6c-0.4,0-0.8,0.1-1.2,0.1c-0.9,0-0.9,0-1,0.9c-0.1,0.8-0.1,1.6-0.2,2.4
			c-0.3,4.2-1,8.3-1.7,12.4c-0.9,5.4-2,10.6-3.7,15.8c-0.9,2.9-2.1,5.6-3.8,8.1c-0.3,0.5-0.7,1-1,1.4c-3.4,4.5-9.1,5.1-13.4,2.8
			c-2.1-1.1-3.7-2.6-5-4.5c-2-2.9-3.2-6.3-4.1-9.6c-1.3-4.6-2.1-9.3-2.6-14c-0.4-3.7-0.6-7.4-0.5-11.1c0.2-9.2,1.7-18.2,5.1-26.9
			c1.5-3.9,3.6-7.5,6.4-10.5c2-2.2,4.3-3.9,7.1-4.7c16-4.6,17.5,15.6,17.8,18.7c0.4,4.5,0.3,9,0.1,13.5c-0.1,1.4-0.3,1.4,1.3,1.3
			c1.4-0.1,2.9-0.2,4.3-0.3c0.8-0.1,0.8-0.1,0.8-0.9c0.1-4.8,0.4-9.6,1.2-14.3c0.3-2.1,0.7-4.3,1.4-6.3c0.2-0.8,0.5-1.5,0.9-2.3
			c0.8-1.4,1.8-2.3,3.5-2.3c1.8,0,3.2,0.8,4,2.4c0.6,1,0.7,2.1,0.8,3.2c0.1,2.3-0.1,4.6-0.3,6.9c-0.5,6.4-0.7,12.7-0.4,19.1
			c0,0.8,0.1,1.7,0.1,2.7c0.4-0.7,0.4-1.3,0.5-1.9c1.7-7.9,4.7-15.4,8.7-22.4c1.1-1.9,2.3-3.7,3.7-5.4c0.8-0.9,1.7-1.8,2.6-2.5
			c2.6-1.9,5.3-2.1,8.2-0.7c2.6,1.2,4.2,3.4,5.3,6c0.9,2.2,1.4,4.6,1.8,6.9c0.3,1.9,0.5,3.8,0.6,5.7c0,0.4,0.1,0.8,0.2,1.4
			c0.4-0.4,0.5-0.7,0.6-1c2.4-5,5.1-9.8,8.4-14.3c1.3-1.8,2.8-3.5,4.6-5c2.6-2.1,5.4-2.3,8.3-0.6c3.3,1.8,5.2,4.7,6.2,8.2
			c0.8,2.6,1,5.2,1.2,7.9c0.2,5.3-0.1,10.6-0.5,16c-0.3,3.9-0.6,7.7-1.1,11.6c-0.7,6.1-1.4,12.3-2.3,18.4c-0.5,3.6-1,7.2-1.7,10.7
			c-0.3,1.8-0.7,3.6-1.2,5.4c-1.1,4-5.6,4.7-8,3.4c-1.5-0.8-2.3-2-2.4-3.7c0-1.8,0.2-3.7,0.5-5.5c0.9-6.8,2-13.6,2.8-20.5
			c0.7-5.8,1.3-11.5,1.9-17.3c0.5-5.9,1-11.7,1.2-17.6c0.1-3.6,0.2-7.2-0.3-10.8c-0.1-0.5-0.2-1-0.3-1.5c-0.1-0.4-0.3-0.5-0.7-0.4
			c-0.7,0.3-1.3,0.6-1.9,1c-1.3,0.9-2.4,2-3.5,3.2c-1.1,1.2-2.1,2.5-3,3.8c-3.6,5.5-6.3,11.3-8.1,17.6c-0.2,0.8-0.3,1.6-0.2,2.4
			c0.2,2,0.3,4,0.1,6c-0.1,1-0.3,2.1-0.5,3.1c-0.4,1.4-1.3,2.1-2.6,2.4c-2.4,0.5-4.7-0.6-5.9-2.8c-1-1.8-1.5-3.8-1.8-5.9
			c-0.5-3.7-0.6-7.5-0.8-11.3c-0.2-4.5-0.4-9.1-0.8-13.6c-0.1-1.1-0.3-2.3-0.6-3.4c-0.1-0.6-0.2-0.6-0.7-0.3
			c-0.9,0.5-1.6,1.1-2.4,1.7c-1.6,1.4-2.9,3.1-4,4.9c-2.9,4.5-4.9,9.4-6.5,14.5c-1.3,4.5-2.2,9.1-2.8,13.7c-0.4,3.2-0.7,6.4-0.9,9.6
			c-0.2,2.4,0.2,4.8,0.6,7.2c0.8,4.2,1.5,8.3,2.2,12.5c0.1,0.4,0.1,0.8,0.1,1.2c0,1.5-0.6,2.5-2,3c-2.2,0.9-4.7,0.1-6.3-1.8
			c-0.7-0.9-1.2-1.9-1.7-3c-1.9-4.2-3-8.6-3.8-13.1c-1.1-6.7-1.9-13.5-2.3-20.3c-0.1-2.1-0.2-4.1-0.2-6.2
			C269.7,161,269.8,160.7,269.6,160.3z M239.8,151.3c-0.1,0.2-0.1,0.4-0.2,0.6c-0.7,3.4-1.2,6.9-1.4,10.3c-0.3,4.5-0.2,9.1,0.3,13.6
			c0.7,7,2.3,13.8,5.2,20.2c0.5,1.1,0.9,2.1,1.6,3.1c1.1,1.7,1.1,1.5,2.3,0.3c1.1-1.1,1.9-2.4,2.6-3.8c1.1-2.2,2-4.4,2.6-6.8
			c2.5-8.9,3.8-18,4.5-27.3c0.1-0.8,0-0.8-0.8-0.9c-6.5-1.1-11.9-3.9-16.2-9C240.1,151.5,240,151.4,239.8,151.3z M257.6,151.2
			c0.1-1.5,0.2-30.8-10.3-16.8c-1.1,1.5-2,3.1-2.5,4.9c-1.2,4.2-0.6,8.2,2.3,11.5c2.6,3,5.9,4.8,9.8,5.7c0.7,0.1,0.7,0.1,0.7-0.6
			C257.6,154.3,257.6,152.7,257.6,151.2z"/>
		<path class="st35" d="M90.4,141.5c-0.4,0.4-0.5,0.8-0.6,1.1C85.3,153,81,163.5,77,174.1c-0.8,2.1-1.6,4.2-2.6,6.2
			c-0.6,1.2-1.3,2.4-2.1,3.4c-2.5,3.1-6.6,3.2-9.3,0.2c-1.4-1.5-2.3-3.2-3.2-5c-0.6-1.3-1.2-2.6-1.7-4c-1.5-3.4-2.2-6.9-2.7-10.6
			c-1-6.4-1.4-12.8-1.4-19.2c0.1-6.5,0.5-12.9,1.5-19.3c0.2-1,0.4-2.1,0.7-3.1c0.8-2.6,2.8-3.8,5.5-3c2.3,0.6,3.7,2.3,3.9,4.8
			c0.2,2.1,0,4.3-0.1,6.4c-0.4,6.9-0.6,13.7-0.3,20.6c0.3,5.8,1.1,11.6,2.2,17.3c0.3,1.8,0.5,3.7,0.7,5.6c0.2,1.7,0.6,3.4,1,5.2
			c0.5-0.3,0.6-0.8,0.9-1.2c1.5-2.6,2.7-5.3,3.8-8c4.9-12,9.8-24.1,14.3-36.3c1-2.7,1.8-5.4,2.5-8.1c0.1-0.2,0.1-0.4,0.2-0.7
			c0.6-2.3,2.2-3.4,4.6-3.3c3.6,0.2,6.1,2.6,6.5,6.2c0.2,1.7,0.2,3.4,0.1,5.1c-0.3,6.2-0.5,12.3-0.8,18.5
			c-0.2,5.2-0.4,10.4-0.3,15.7c0.1,9,0.9,17.8,2.7,26.6c0.4,2.1,0.7,4.2,1.1,6.3c0.4-0.1,0.3-0.4,0.4-0.6c1.4-5.8,2.6-11.7,3.7-17.6
			c1.2-6.2,2.3-12.3,3.4-18.5c0.9-5.1,1.8-10.3,2.5-15.5c0.7-4.7,1.3-9.4,1.8-14.2c0.1-0.5,0-0.8-0.4-1.1c-4.6-3.7-7-8.6-7.9-14.3
			c-0.7-4-0.4-7.9,1.2-11.6c0.6-1.4,1.3-2.7,2.3-3.8c0.9-1,2-1.8,3.3-2.1c2.6-0.7,5.3,0.5,6.6,2.9c0.8,1.4,1.1,3,1.3,4.6
			c0.4,3.3,0.2,6.7-0.1,10c-0.3,3.9-0.8,7.8-1.2,11.7c-0.1,0.5,0.1,0.7,0.5,1c1.6,1.2,3.3,2.1,5.1,2.9c0.8,0.3,1.6,0.6,2.5,1
			c0.2-1.4,0.3-2.6,0.5-3.9c0.5-3.9,1.1-7.9,2.2-11.7c0.2-0.8,0.5-1.6,0.8-2.3c0.9-2.5,2.9-3.9,5.4-4.3c4.2-0.7,8.5-0.9,12.8-0.3
			c1.7,0.2,3.3,0.1,5,0.5c1.1,0.2,2.2,0.6,3.3,1c0.5,0.2,0.9,0.5,1.3,0.9c0.8,0.9,0.6,2-0.5,2.5c-0.3,0.2-0.6,0.3-0.9,0.3
			c-2.1,0.4-4.3,0.5-6.5,0.1c-2.9-0.4-5.7-0.8-8.6-0.7c-0.2,0-0.3,0-0.5,0c-0.5,0.1-1.2-0.1-1.5,0.2c-0.3,0.3,0,0.9,0,1.4
			c-0.1,2-0.3,3.9-0.4,5.9c-0.4,4.3-0.9,8.6-1.3,12.8c-0.4,4.5-0.8,9-1.1,13.5c-0.3,4-0.5,8.1-0.7,12.1c-0.2,3.8-0.2,7.7-0.2,11.5
			c0,0.2,0,0.5,0,0.7c0,0.3,0.2,0.5,0.5,0.4c0.7,0,1.4-0.1,2.2-0.2c1.1-0.1,2.2-0.1,3.2,0.3c0.5,0.2,0.9,0.4,1.2,0.8
			c0.8,0.9,0.5,1.9-0.5,2.3c-0.5,0.2-1,0.3-1.5,0.3c-1.4-0.1-2.8,0.1-4.1,0.2c-0.8,0.1-0.8,0.1-0.8,0.8c0.1,2,0.1,3.9,0.3,5.9
			c0.3,3.7,0.6,7.4,0.7,11.1c0.1,2.1,0.1,4.2,0.3,6.3c0,0.1,0,0.2,0,0.3c0.2,1.3,0.3,1.5,1.6,1.6c0.9,0.1,1.8,0.2,2.8,0.2
			c1.9-0.1,3.7,0.3,5.5,0.5c0.2,0,0.4,0.1,0.6,0.1c1.6,0.6,1.9,2.1,0.6,3.2c-0.5,0.4-1.1,0.7-1.7,0.9c-1.4,0.5-2.8,0.7-4.3,0.6
			c-2.2-0.2-4.4-0.2-6.6-0.5c-3.5-0.5-6-2.4-7.5-5.7c-1-2.2-1.5-4.6-2-7c-0.8-4.2-1.2-8.4-1.4-12.6c-0.4-6.2-0.4-12.5-0.3-18.7
			c0.1-4.6,0.3-9.1,0.7-13.7c0.2-2.8,0.4-5.7,0.6-8.5c0.1-1.6,0.3-3.3,0.4-4.9c0.1-0.8,0-0.8-0.7-1c-2.3-0.8-4.7-1.4-7-2.4
			c-0.4-0.2-0.6-0.1-0.6,0.4c-0.3,2.8-0.6,5.6-1,8.4c-0.6,5.2-1.4,10.3-2.3,15.5c-1.3,7.5-2.6,15-3.9,22.5c-1.5,8.5-3,16.9-5.1,25.3
			c-0.2,0.9-0.5,1.7-0.8,2.5c-1.3,3.3-6.2,4.8-9,1.5c-1.3-1.6-2.3-3.4-3.1-5.3c-1.7-4-2.7-8.2-3.5-12.5c-1.4-7.7-2.2-15.4-2.4-23.2
			c-0.2-6.6-0.1-13.3,0.2-19.9c0.1-3,0.3-6,0.4-9.1C90.5,142.2,90.4,142,90.4,141.5z M117.2,106c-0.3,0-0.4,0.3-0.4,0.4
			c-0.7,1.2-1.2,2.6-1.5,4c-1,5.1-0.2,10,1.8,14.7c0,0.1,0.1,0.2,0.3,0.2c0.4-4.4,0.8-8.7,0.7-13.1c0-1.2,0-2.4-0.2-3.6
			C117.7,107.6,117.6,106.8,117.2,106z"/>
		<path class="st35" d="M199.3,162.5c0,5.7,0.5,11.2,1.1,16.7c0.6,5.2,1.6,10.4,3.2,15.4c0.9,3,2.2,5.8,3.4,8.7
			c0.4,0.8,0.8,1.7,1.4,2.3c0.7,0.8,1.2,0.9,2.2,0.4c0.9-0.4,1.7-1.1,2.4-1.7c3.3-3,5.8-6.5,7.6-10.6c0.5-1.2,1.3-2.3,2-3.4
			c0.7-1.2,2.8-1.4,3.9-0.6c0.5,0.4,0.7,1,0.6,1.7c-0.3,0.9-0.6,1.8-1,2.6c-1.5,2.7-3,5.5-4.8,8c-1.3,1.8-2.7,3.6-4.3,5.1
			c-1.7,1.6-3.5,3-5.7,3.8c-3.7,1.2-7.1,0.6-10.3-1.5c-3.4-2.2-5.7-5.4-7.1-9.2c-1.4-3.7-2.4-7.5-3.1-11.4c-1-5-1.6-10-2-15
			c-0.5-5.9-0.6-11.7-0.3-17.6c0.4-8.5,1.7-16.9,4.5-25c0.9-2.6,2-5.1,3.5-7.4c1.4-2.2,2.9-4.1,5-5.7c2.6-2,5.6-3,8.9-2.6
			c3.7,0.5,6.7,2.2,9.1,5c2.4,2.7,3.6,5.9,3.8,9.5c0.1,1.6,0.2,3.2-0.2,4.8c-0.2,1-0.7,1.3-1.6,1.4c-1.3,0.1-2.1-0.6-2.4-1.9
			c-0.4-2.4-1-4.8-2.1-7c-0.7-1.4-1.5-2.6-2.7-3.6c-1.4-1.1-1.9-1.2-3.4-0.1c-1,0.7-1.9,1.6-2.6,2.5c-1.6,1.9-2.7,4-3.7,6.3
			c-1.8,4.3-2.9,8.8-3.7,13.3C199.7,151.3,199.4,157,199.3,162.5z"/>
		<path class="st35" d="M363.3,214.8c-2.3,0.2-4.5,0.1-6.8-0.3c-2.9-0.6-5.2-2.2-6.8-4.8c-2.1-3.2-3.1-6.8-3.7-10.5
			c-0.6-4-0.7-8.1-0.8-12.2c-0.1-4.9-0.1-9.7,0.1-14.6c0.2-5.2,0.5-10.4,0.9-15.5c0.3-3.3,0.5-6.7,0.9-10c0.8-7.4,1.8-14.7,3.7-21.9
			c0.4-1.3,0.8-2.6,1.5-3.8c1.7-3,13-2.9,17.4-2.6c1.4,0.1,2.9,0.2,4.3,0.5c1,0.2,1.9,0.6,2.7,1.2c0.4,0.3,0.8,0.6,1,1.1
			c2.2,4.3-7.8,1.1-16.7,1.7c-0.4,0-0.7,0.1-0.6,0.6c0.3,2.9-0.2,5.8-0.5,8.7c-0.6,4.9-1.2,9.8-1.7,14.7c-0.6,6.6-1.1,13.3-1.4,20
			c-0.2,4.9-0.4,9.8-0.4,14.7c0,1,0,1,1.1,0.9c1.8-0.3,3.5-0.3,5.3-0.4c0.5,0,1,0,1.4,0.2c0.5,0.2,0.8,0.5,0.9,1.1
			c0,0.5-0.3,0.9-0.7,1.1c-0.3,0.2-0.6,0.3-1,0.4c-2,0.5-4,1.2-6.1,1.4c-0.8,0.1-0.8,0.1-0.8,1c0.2,3.7,0.4,7.5,0.5,11.2
			c0.1,2.3,0.1,4.6,0.1,6.9c0,0.9,0.1,1.7,0.2,2.6c0.2,2,1.1,2.8,3.1,2.9c2,0.1,4.1-0.2,6.1-0.5c1.3-0.2,2.6-0.3,3.9,0.1
			c0.8,0.3,1.6,0.7,1.7,1.6c0.1,1-0.6,1.4-1.4,1.9c-1,0.6-2,0.8-3.1,0.8C366.1,214.8,364.7,214.8,363.3,214.8z"/>
		<path class="st35" d="M162,181.5c0-2.7,0-7.7,0.3-12.6c0.2-4.8,0.6-9.6,1.1-14.3c0.4-4.3,0.9-8.6,1.5-12.8c0.9-6.9,2-13.8,4-20.6
			c0.4-1.4,0.8-2.8,1.5-4.1c0.6-1.2,1.5-2.2,2.8-2.8c2.3-1.1,4.9,0.1,5.8,2.5c0.5,1.5,0.5,3.1,0.3,4.7c-0.4,3.7-1.2,7.4-1.8,11.1
			c-0.6,4.1-1.2,8.2-1.7,12.3c-0.5,4.2-1,8.4-1.3,12.6c-0.4,4.5-0.7,8.9-0.9,13.4c-0.3,6.9-0.2,13.7-0.2,20.6c0,2.8,0.2,5.6,0.3,8.4
			c0.1,1.4,0,2.8,0,4.2c-0.1,1.1-0.1,2.2-0.1,3.3c0,1,0.1,1,1,1c11.5-0.4,13.8-4.2,15.9-1.1c0.5,0.8,0.4,1.6-0.2,2.3
			c-0.4,0.5-1,0.8-1.6,1c-1.7,0.8-3.5,1.1-5.4,1.3c-2.9,0.3-5.8,0.7-8.7,1.1c-1.3,0.2-2.6,0.2-3.9,0c-3.6-0.6-5.8-2.8-7-6.2
			c-0.9-2.5-1.2-5.1-1.4-7.7C162,194,162,188.9,162,181.5z"/>
	</g>
	<g>
		<path class="st34" d="M259.8,283c-0.4,1.7-0.7,3.3-1,4.9c-1.4,6.4-2.6,12.8-4.3,19.1c-0.3,1.3-0.7,2.5-1.2,3.8
			c-0.3,0.8-0.7,1.6-1.1,2.3c-1.8,3.2-5.6,3.1-7.6,1.5c-1-0.8-1.8-1.7-2.5-2.8c-0.9-1.5-1.7-3-2.4-4.6c-2.4-5.6-4.2-11.3-5.3-17.3
			c-0.1-0.3-0.2-0.6-0.2-1c-0.1-0.4-0.2-0.6-0.7-0.5c-1.1,0.2-2.2,0.3-3.3,0.5c-3.2,0.4-6.3,0.9-9.5,1.3c-0.8,0.1-0.8,0.1-1,0.9
			c-1.2,6-2.3,11.9-3.5,17.9c-0.8,3.8-1.6,7.7-3,11.3c-0.4,1-0.8,2.1-1.3,3.1c-0.6,1-1.6,1.5-2.7,1.3c-1.2-0.2-1.7-0.8-1.7-2
			c0-1.4,0.3-2.8,0.6-4.2c1.3-5.5,2.3-11.1,3.3-16.7c1.7-9.1,3.6-18.2,5.7-27.2c2.4-10.5,4.7-21,7-31.5c1.4-6.5,2.7-13.1,4.2-19.6
			c0.2-0.8,0.3-1.6,0.5-2.4c0.4-2.1,1.7-3.1,3.9-2.8c2.5,0.3,4.3,1.6,5.5,3.9c0.8,1.6,1.1,3.3,1.4,5c0.6,3.9,0.9,7.8,1.2,11.7
			c0.6,6.9,1,13.8,1.5,20.7c0.4,5.6,0.9,11.3,1.6,16.9c0.7,5.6,1.4,11.2,2.2,16.8c0.4,2.8,0.7,5.5,1.1,8.3c0.4,2.6,0.8,5.3,1.4,7.8
			c0.1,0.4,0.1,0.8,0.5,1.2c0.5-0.8,0.8-1.6,1.1-2.4c1.1-3.3,2-6.6,2.8-10c2.8-12.1,5.6-24.2,8.4-36.3c0.3-1.2,0.3-2.4,0.4-3.6
			c0.5-6.2,1.2-12.5,2.1-18.7c0.7-4.8,1.5-9.5,2.9-14.2c0.2-0.7,0.5-1.4,0.7-2c1.2-3.2,3.8-3.4,6.2-2.5c2.3,0.9,3.4,2.8,3.1,5.3
			c-0.2,2.6-0.6,5.2-1,7.8c-0.6,4-1.1,7.9-1.5,11.9c-0.4,4.6-0.9,9.1-1.3,13.7c-0.3,3.1-0.5,6.2-0.6,9.3c-0.4,6.1-0.7,12.2-0.8,18.3
			c-0.1,6.9,0,13.8,0.3,20.7c0.2,3.9,0.1,7.8-0.1,11.6c-0.1,1.7-0.2,3.4-0.1,5.1c0,0.2,0,0.3,0,0.5c0.1,0.8,0.1,0.8,0.9,0.5
			c2.2-0.8,4.4-1.6,6.5-2.5c1.7-0.7,3.5-0.9,5.3-1.2c0.6-0.1,1.2-0.1,1.8,0.2c0.9,0.5,1.2,1.4,0.5,2.2c-0.2,0.3-0.4,0.5-0.7,0.7
			c-1.4,0.8-2.8,1.7-4.4,2.3c-2.3,0.8-4.6,1.7-6.9,2.6c-0.9,0.3-1.9,0.7-2.8,0.8c-2.9,0.4-5.1-0.7-6.9-2.9c-0.9-1.1-1.5-2.5-1.9-3.9
			c-1.2-4-2-8-2.3-12.2c-0.6-9.3-0.7-18.5-0.5-27.8c0-0.3,0-0.6,0-0.9C260,283.2,259.9,283.2,259.8,283z M229.9,242.3
			c-0.3,0.2-0.3,0.4-0.3,0.6c-0.5,2.4-1,4.8-1.4,7.1c-1.9,9.8-3.9,19.6-6,29.3c-0.5,2.2-0.9,4.4-1.4,6.5c-0.1,0.5,0,0.6,0.4,0.6
			c3.3-0.5,6.6-0.8,9.9-1.2c0.6-0.1,1.1-0.1,1.7-0.2c0.5,0,0.8-0.2,0.6-0.7c0-0.1,0-0.2,0-0.3c-0.4-2.8-0.7-5.5-1-8.3
			c-0.6-5.8-1.1-11.6-1.5-17.5c-0.3-4.4-0.5-8.9-0.7-13.3C230.1,244.2,230,243.3,229.9,242.3z"/>
		<path class="st34" d="M174.2,244.4c-0.4,0.3-0.5,0.6-0.7,0.9c-1.7,3-3.2,6-4.8,9.1c-1.9,3.9-3.9,7.7-6.3,11.3
			c-1.6,2.4-3.4,4.8-5.4,6.9c-1.1,1.2-2.2,2.3-3.5,3.3c-4.3,3.2-9,3.7-13.9,1.7c-3.9-1.6-6.8-4.4-9.2-7.8c-1.9-2.6-3.1-5.6-4.2-8.6
			c-2-5.5-3.1-11.1-3.6-16.9c-0.4-5-0.4-10,0.3-15c0.2-1.7,0.5-3.3,1-4.9c0.1-0.5,0.3-0.9,0.5-1.4c0.7-1.7,2-2.4,3.8-2.3
			c3,0.2,5,2.3,5.2,5.3c0.1,1.4,0,2.8-0.1,4.2c-0.7,9.6,0.2,19,3.2,28.1c1.4,4.2,3.5,8,5.7,11.8c0.6,1,1.3,1.9,2.2,2.7
			c1.2,1.1,2.5,1.4,4,0.9c1.1-0.3,2.1-0.9,3.1-1.5c1.8-1.2,3.2-2.7,4.6-4.3c2.8-3.2,5.1-6.7,7.1-10.4c3-5.4,5.5-11.1,7.5-17
			c0.5-1.4,0.9-2.9,1.3-4.3c0.7-2.2,1.9-3.1,4.1-3c2.2,0,4.1,1,5.5,2.6c0.9,1.1,1.5,2.4,2,3.7c0.9,2.7,1.3,5.6,1.7,8.4
			c0.7,4.5,1.2,9.1,1.5,13.6c0.4,5.9,0.5,11.7-0.1,17.6c-0.5,5.4-1.5,10.7-3,15.9c-0.2,0.8-0.2,0.8,0.6,1.1
			c5.3,2.4,10.6,5.1,15.9,7.7c1.8,0.9,3.4,2.2,5.1,3.3c0.7,0.5,1.3,1.2,1.1,2.1c-0.2,1-1.1,1.4-2,1.6c-0.9,0.2-1.8,0.1-2.6-0.2
			c-3.2-1.1-6.3-2.3-9.4-3.9c-3.4-1.7-6.8-3.3-10.2-4.9c-0.7-0.3-0.7-0.3-1,0.4c-1.7,4.1-3.7,8-6.4,11.5c-3.7,4.9-8.2,8.9-13.8,11.5
			c-4.7,2.2-9.7,3.2-14.8,2.7c-6.7-0.7-12.4-3.5-16.8-8.7c-2.3-2.8-3.5-6-3.2-9.8c0.1-1.9,0.7-3.6,1.5-5.3c1.5-3.1,3.7-5.6,6.4-7.7
			c5.1-4.2,11-6.6,17.6-7.3c6.9-0.7,13.6,0.1,20.3,2.1c1.4,0.4,1.2,0.6,1.6-1c2-8.4,2.7-16.8,2.4-25.4c-0.2-6.7-0.8-13.4-1.6-20.1
			C174.3,244.8,174.3,244.7,174.2,244.4z M154.6,293.9c-6.6,0-12.5,2.2-17.5,6.6c-1.9,1.7-3.4,3.6-4.4,5.9c-1.6,3.6-1.1,7,1.5,10
			c2.4,2.8,5.4,4.4,8.9,5.3c4.2,1.1,8.1,0.6,11.9-1.5c2.6-1.5,4.9-3.4,6.8-5.6c4.4-4.9,7.4-10.5,9.6-16.7c0.2-0.6,0.2-0.6-0.5-0.9
			C165.6,295.1,160.2,294,154.6,293.9z"/>
		<path class="st34" d="M282,283.8c0-5.2,0.2-10.4,0.5-15.7c0.4-5.8,0.8-11.7,1.5-17.5c0.9-7.3,2-14.5,3.9-21.6c0.6-2,1.2-4,2.2-5.9
			c0.3-0.6,0.6-1.1,1.1-1.6c1.7-1.7,4.7-1.2,5.6,1.1c0.5,1.1,0.5,2.4,0.6,3.6c0.2,3-0.1,6-0.5,9c-0.6,4.9-1.2,9.8-1.7,14.8
			c-0.6,5.7-1,11.4-1.4,17.2c-0.6,9.7-0.6,19.4-0.5,29.2c0,2.1-0.1,4.1-0.1,6.2c0,2.2,0,4.5,0,6.7c0,0.8,0.1,1.6,0.3,2.3
			c0.1,0.7,0.2,0.7,0.8,0.6c2.5-0.3,4.9-1.1,7.1-2.2c1.6-0.8,3.3-1.4,5-2.1c0.7-0.3,1.3-0.4,2-0.1c0.5,0.2,1,0.5,1.1,1.1
			c0.1,0.6-0.2,1.1-0.7,1.4c-1,0.7-2,1.5-3.1,2c-3.9,1.8-7.8,3.3-12,4c-1,0.2-2,0.2-2.9,0.1c-2-0.2-3.4-1.2-4.4-2.9
			c-1.2-2-2-4.2-2.5-6.4c-1-4.4-1.7-8.9-1.9-13.4C282.1,290.5,282,287.1,282,283.8z"/>
		<path class="st34" d="M199.3,233.6c0.1-2.5-0.4-5.1-0.8-7.6c-0.2-1.4-0.6-2.7-1-4c-0.2-0.6-0.3-1.1-0.3-1.7
			c-0.1-1.8,1.8-2.4,2.9-1.9c0.7,0.4,1.3,0.9,1.7,1.6c1.1,1.7,1.9,3.5,2.4,5.5c0.9,3.3,1.1,6.7,0.6,10.1c-0.1,0.8-0.1,1.6-0.5,2.4
			c-0.5,1.3-1.4,1.8-2.8,1.6c-1.2-0.2-2.1-1-2.2-2.3C199.3,236,199.2,234.9,199.3,233.6z"/>
	</g>
</g>
</svg>
