<?xml version="1.0" encoding="utf-8"?>
<!-- Generator: Adobe Illustrator 14.0.0, SVG Export Plug-In . SVG Version: 6.00 Build 43363)  -->
<!DOCTYPE svg PUBLIC "-//W3C//DTD SVG 1.1//EN" "http://www.w3.org/Graphics/SVG/1.1/DTD/svg11.dtd">
<svg version="1.1" id="Layer_2" xmlns="http://www.w3.org/2000/svg" xmlns:xlink="http://www.w3.org/1999/xlink" x="0px" y="0px"
	 width="295.098px" height="864px" viewBox="0 0 295.098 864" enable-background="new 0 0 295.098 864" xml:space="preserve">
<g>
	<path fill="#FDC166" d="M163.32,135.773c-5.333-8.142-5.613-18.052-5.016-27.464v-0.001c0.259-4.063,0.064-8.156-0.708-12.158
		c11.283-5.302,19.995-14.754,25.663-25.742c2.951-5.72,5.115-11.846,6.497-18.129c0.713-3.24,1.217-6.526,1.493-9.833
		c0.119-1.422,0.331-3.014,0.334-4.58c0.004-1.666-0.23-3.302-1.067-4.67c-1.566-2.563-4.304-3.11-7.038-3.712
		c-3.31-0.729-6.67-1.226-10.05-1.472c-6.295-0.458-12.65-0.034-18.82,1.299c-12.176,2.632-23.463,8.802-32.319,17.555
		c-3.235-9.166-10.999-21.345-21.444-20.834c-2.022,0.099-4.145,0.673-6.354,1.836c-5.483,2.888-9.334,9.398-7.869,15.634
		c1.531,6.511,7.877,10.331,13.691,12.569c0.448,0.737,0.822,1.557,1.148,2.531l-0.002-0.006c0.557,1.683,0.894,3.817,0.91,6.271
		c-15.061,2.618-28.691,11.764-33.418,26.806c-4.518,14.374,1.946,30.251-6.547,43.661c-4.116,6.499-10.188,11.311-15.297,16.955
		c-5.065,5.596-8.563,12.602-10.722,19.795c-1.579,5.272-2.398,10.758-2.388,16.208c0.02,10.319,3.015,20.516,9.467,28.91
		c9.281,12.077,23.815,18.558,38.355,21.737c10.344,2.262,21.075,3.17,31.746,3.069c4.9-0.047,9.787-0.306,14.617-0.744
		c14.066-1.276,28.492-4.504,40.555-12.146c13.543-8.576,22.132-22.676,22.724-38.794c0.409-11.17-2.673-22.646-8.649-32.096
		C177.461,149.777,168.8,144.139,163.32,135.773z"/>
	<path fill="#FDBA53" d="M171.997,152.491c-13.258-13.209-19.913-19.84-18.349-44.478c0.335-5.28-0.177-10.187-1.522-14.618
		c10.583-3.91,19.457-11.775,25.754-22.858c5.687-10.008,8.948-22.352,8.948-33.868c0-0.907-0.61-1.701-1.487-1.933
		c-5.358-1.42-10.778-2.172-16.109-2.233c-0.241-0.002-0.481-0.004-0.721-0.004c-19.025,0-36.718,8.754-48.254,23.647
		c-0.355-1.614-0.81-3.167-1.362-4.647c-0.005-0.021-0.011-0.041-0.018-0.061c-5.371-17.793-13.234-20.541-17.443-20.596l-0.129,0
		c-3.984,0-7.717,2.489-9.51,6.342c-0.566,1.215-0.845,2.441-0.831,3.644c0.076,6.13,7.511,9.699,12.333,11.369
		c1.117,1.43,1.967,3.052,2.592,4.943c0.762,2.312,1.148,4.985,1.147,7.944c0.001,1.207-0.069,2.503-0.211,3.873
		c-9.774,1.021-18.429,4.583-24.51,10.116c-7.646,6.958-11.286,16.965-10.525,28.942c1.564,24.638-5.09,31.268-18.349,44.478
		l-1.805,1.801c-6.592,6.592-13.176,19.849-13.024,34.604c0.15,14.543,7.671,48.369,74.107,48.369
		c66.371,0,73.935-33.776,74.106-48.298c0.174-14.784-6.415-28.068-13.022-34.676L171.997,152.491z"/>
	<path fill="#9ECE66" d="M184.825,188.944c0.159-13.477-5.601-26.402-12.437-33.238c-14.599-14.6-22.429-21.158-20.736-47.819
		c1.693-26.661-19.043-37.24-38.934-37.24s-40.626,10.579-38.933,37.24c1.693,26.661-6.137,33.22-20.736,47.819
		c-6.824,6.824-12.577,19.718-12.438,33.17c0.231,22.42,16.828,46.39,72.107,46.39C167.942,235.266,184.561,211.345,184.825,188.944
		z"/>
	<g>
		<path fill="#99CC5E" d="M183.41,176.8c-5.35,21.01-26.93,42.95-70.62,42.95c-43.71,0-60.04-17.5-71.2-41.03
			c-0.66,3.29-1.02,6.71-0.98,10.16c0.23,22.42,16.83,46.39,72.11,46.39c55.22,0,71.84-23.93,72.1-46.33
			C184.87,184.79,184.36,180.69,183.41,176.8z"/>
		<path fill="#99CC5E" d="M103.75,92.5c7.25,3.5,29.55,10.66,47.52,6.08c-3.13-19.84-21.16-27.93-38.55-27.93
			c-2.21,0-4.43,0.13-6.64,0.4C103.75,77.5,96.5,89,103.75,92.5z"/>
	</g>
	<path fill="#68C077" d="M135.918,94.262c-7.647,0.038-16.221-1.642-25.738-5.525c0.809-28.148,26.158-54.613,59.029-54.234
		c5.05,0.058,10.277,0.75,15.62,2.167C184.829,61.688,169.059,94.099,135.918,94.262z"/>
	<path fill="#8B9C54" d="M110.18,88.736c8.854,3.613,16.89,5.318,24.124,5.508c34.243,0.899,50.525-32.153,50.525-57.575
		L110.18,88.736z"/>
	<path fill="#87994E" d="M184.83,36.67l-69.2,48.27l-5.45,3.8c1.35,0.55,2.68,1.05,3.99,1.51c7.29,2.58,14,3.83,20.13,3.99
		c14.64,0.38,25.99-5.43,34.18-14.2c-13.01,8.49-36.26,9.56-48.53,6.4l64.45-42.49C184.69,41.48,184.83,39.04,184.83,36.67z"/>
	<path fill="#77C482" d="M169.21,34.5c-12.48-0.14-23.88,3.58-33.26,9.81c13.05-3.56,30.37-6.49,42.08-2.9l6.8-4.74
		C179.49,35.25,174.26,34.56,169.21,34.5z"/>
	<path fill="#AF755A" d="M116.955,52.022c0.002-0.002,0.005-0.004,0.008-0.007c-4.297-14.236-10.5-19.108-15.555-19.174
		c-3.47-0.045-6.399,2.175-7.801,5.186c-0.458,0.983-0.654,1.908-0.644,2.774c0.07,5.65,8.94,8.831,11.522,9.685
		c1.479,1.759,2.551,3.754,3.302,6.024c0.84,2.549,1.25,5.447,1.249,8.572c0.007,5.418-1.244,11.489-3.269,17.312
		c-0.919,2.65,0.484,5.543,3.134,6.462c0.662,0.229,1.34,0.313,1.998,0.27c1.975-0.131,3.774-1.416,4.464-3.403
		c2.296-6.639,3.823-13.7,3.829-20.64C119.191,60.62,118.537,56.184,116.955,52.022z"/>
	<g>
		<g id="XMLID_1_">
			<path fill="#AC6F54" d="M116.71,81.46c-0.41,1.43-0.86,2.86-1.35,4.26c-0.69,1.99-2.49,3.28-4.46,3.41
				c-0.66,0.04-1.34-0.04-2-0.27c-2.65-0.92-4.05-3.82-3.13-6.47c0.11-0.31,0.21-0.62,0.31-0.93
				C108.93,84.32,112.33,85.84,116.71,81.46z"/>
			<path fill="#B68066" d="M111.53,39.77h-0.01c-7.97-3.98-14.51-3.01-18.56,1.03c-0.01-0.86,0.19-1.79,0.65-2.77
				c1.4-3.01,4.33-5.23,7.8-5.19C104.58,32.88,108.2,34.82,111.53,39.77z"/>
		</g>
	</g>
</g>
</svg>
