  0
SECTION
  2
HEADER
  9
$ACADVER
  1
AC1024
  9
$ACADMAINTVER
 70
     6
  9
$DWGCODEPAGE
  3
ANSI_1252
  9
$INSBASE
 10
0.0
 20
0.0
 30
0.0
  9
$EXTMIN
 10
1.000000000000000E+20
 20
1.000000000000000E+20
 30
1.000000000000000E+20
  9
$EXTMAX
 10
-1.000000000000000E+20
 20
-1.000000000000000E+20
 30
-1.000000000000000E+20
  9
$LIMMIN
 10
0.0
 20
0.0
  9
$LIMMAX
 10
12.0
 20
9.0
  9
$ORTHOMODE
 70
     0
  9
$REGENMODE
 70
     1
  9
$FILLMODE
 70
     1
  9
$QTEXTMODE
 70
     0
  9
$MIRRTEXT
 70
     1
  9
$LTSCALE
 40
1.0
  9
$ATTMODE
 70
     1
  9
$TEXTSIZE
 40
0.2
  9
$TRACEWID
 40
0.05
  9
$TEXTSTYLE
  7
Standard
  9
$CLAYER
  8
0
  9
$CELTYPE
  6
ByLayer
  9
$CECOLOR
 62
   256
  9
$CELTSCALE
 40
1.0
  9
$DISPSILH
 70
     0
  9
$DIMSCALE
 40
1.0
  9
$DIMASZ
 40
0.18
  9
$DIMEXO
 40
0.0625
  9
$DIMDLI
 40
0.38
  9
$DIMRND
 40
0.0
  9
$DIMDLE
 40
0.0
  9
$DIMEXE
 40
0.18
  9
$DIMTP
 40
0.0
  9
$DIMTM
 40
0.0
  9
$DIMTXT
 40
0.18
  9
$DIMCEN
 40
0.09
  9
$DIMTSZ
 40
0.0
  9
$DIMTOL
 70
     0
  9
$DIMLIM
 70
     0
  9
$DIMTIH
 70
     1
  9
$DIMTOH
 70
     1
  9
$DIMSE1
 70
     0
  9
$DIMSE2
 70
     0
  9
$DIMTAD
 70
     0
  9
$DIMZIN
 70
     0
  9
$DIMBLK
  1

  9
$DIMASO
 70
     1
  9
$DIMSHO
 70
     1
  9
$DIMPOST
  1

  9
$DIMAPOST
  1

  9
$DIMALT
 70
     0
  9
$DIMALTD
 70
     2
  9
$DIMALTF
 40
25.4
  9
$DIMLFAC
 40
1.0
  9
$DIMTOFL
 70
     0
  9
$DIMTVP
 40
0.0
  9
$DIMTIX
 70
     0
  9
$DIMSOXD
 70
     0
  9
$DIMSAH
 70
     0
  9
$DIMBLK1
  1

  9
$DIMBLK2
  1

  9
$DIMSTYLE
  2
Standard
  9
$DIMCLRD
 70
     0
  9
$DIMCLRE
 70
     0
  9
$DIMCLRT
 70
     0
  9
$DIMTFAC
 40
1.0
  9
$DIMGAP
 40
0.09
  9
$DIMJUST
 70
     0
  9
$DIMSD1
 70
     0
  9
$DIMSD2
 70
     0
  9
$DIMTOLJ
 70
     1
  9
$DIMTZIN
 70
     0
  9
$DIMALTZ
 70
     0
  9
$DIMALTTZ
 70
     0
  9
$DIMUPT
 70
     0
  9
$DIMDEC
 70
     4
  9
$DIMTDEC
 70
     4
  9
$DIMALTU
 70
     2
  9
$DIMALTTD
 70
     2
  9
$DIMTXSTY
  7
Standard
  9
$DIMAUNIT
 70
     0
  9
$DIMADEC
 70
     0
  9
$DIMALTRND
 40
0.0
  9
$DIMAZIN
 70
     0
  9
$DIMDSEP
 70
    46
  9
$DIMATFIT
 70
     3
  9
$DIMFRAC
 70
     0
  9
$DIMLDRBLK
  1

  9
$DIMLUNIT
 70
     2
  9
$DIMLWD
 70
    -2
  9
$DIMLWE
 70
    -2
  9
$DIMTMOVE
 70
     0
  9
$DIMFXL
 40
1.0
  9
$DIMFXLON
 70
     0
  9
$DIMJOGANG
 40
0.7853981633974483
  9
$DIMTFILL
 70
     0
  9
$DIMTFILLCLR
 70
     0
  9
$DIMARCSYM
 70
     0
  9
$DIMLTYPE
  6

  9
$DIMLTEX1
  6

  9
$DIMLTEX2
  6

  9
$DIMTXTDIRECTION
 70
     0
  9
$LUNITS
 70
     2
  9
$LUPREC
 70
     4
  9
$SKETCHINC
 40
0.1
  9
$FILLETRAD
 40
0.5
  9
$AUNITS
 70
     0
  9
$AUPREC
 70
     0
  9
$MENU
  1
.
  9
$ELEVATION
 40
0.0
  9
$PELEVATION
 40
0.0
  9
$THICKNESS
 40
0.0
  9
$LIMCHECK
 70
     0
  9
$CHAMFERA
 40
0.5
  9
$CHAMFERB
 40
0.5
  9
$CHAMFERC
 40
1.0
  9
$CHAMFERD
 40
0.0
  9
$SKPOLY
 70
     0
  9
$TDCREATE
 40
2458157.430134942
  9
$TDUCREATE
 40
2458157.638468275
  9
$TDUPDATE
 40
2458157.430134965
  9
$TDUUPDATE
 40
2458157.638468299
  9
$TDINDWG
 40
0.0000000116
  9
$TDUSRTIMER
 40
0.0000000116
  9
$USRTIMER
 70
     1
  9
$ANGBASE
 50
0.0
  9
$ANGDIR
 70
     0
  9
$PDMODE
 70
     0
  9
$PDSIZE
 40
0.0
  9
$PLINEWID
 40
0.0
  9
$SPLFRAME
 70
     0
  9
$SPLINETYPE
 70
     6
  9
$SPLINESEGS
 70
     8
  9
$HANDSEED
  5
4E
  9
$SURFTAB1
 70
     6
  9
$SURFTAB2
 70
     6
  9
$SURFTYPE
 70
     6
  9
$SURFU
 70
     6
  9
$SURFV
 70
     6
  9
$UCSBASE
  2

  9
$UCSNAME
  2

  9
$UCSORG
 10
0.0
 20
0.0
 30
0.0
  9
$UCSXDIR
 10
1.0
 20
0.0
 30
0.0
  9
$UCSYDIR
 10
0.0
 20
1.0
 30
0.0
  9
$UCSORTHOREF
  2

  9
$UCSORTHOVIEW
 70
     0
  9
$UCSORGTOP
 10
0.0
 20
0.0
 30
0.0
  9
$UCSORGBOTTOM
 10
0.0
 20
0.0
 30
0.0
  9
$UCSORGLEFT
 10
0.0
 20
0.0
 30
0.0
  9
$UCSORGRIGHT
 10
0.0
 20
0.0
 30
0.0
  9
$UCSORGFRONT
 10
0.0
 20
0.0
 30
0.0
  9
$UCSORGBACK
 10
0.0
 20
0.0
 30
0.0
  9
$PUCSBASE
  2

  9
$PUCSNAME
  2

  9
$PUCSORG
 10
0.0
 20
0.0
 30
0.0
  9
$PUCSXDIR
 10
1.0
 20
0.0
 30
0.0
  9
$PUCSYDIR
 10
0.0
 20
1.0
 30
0.0
  9
$PUCSORTHOREF
  2

  9
$PUCSORTHOVIEW
 70
     0
  9
$PUCSORGTOP
 10
0.0
 20
0.0
 30
0.0
  9
$PUCSORGBOTTOM
 10
0.0
 20
0.0
 30
0.0
  9
$PUCSORGLEFT
 10
0.0
 20
0.0
 30
0.0
  9
$PUCSORGRIGHT
 10
0.0
 20
0.0
 30
0.0
  9
$PUCSORGFRONT
 10
0.0
 20
0.0
 30
0.0
  9
$PUCSORGBACK
 10
0.0
 20
0.0
 30
0.0
  9
$USERI1
 70
     0
  9
$USERI2
 70
     0
  9
$USERI3
 70
     0
  9
$USERI4
 70
     0
  9
$USERI5
 70
     0
  9
$USERR1
 40
0.0
  9
$USERR2
 40
0.0
  9
$USERR3
 40
0.0
  9
$USERR4
 40
0.0
  9
$USERR5
 40
0.0
  9
$WORLDVIEW
 70
     1
  9
$SHADEDGE
 70
     3
  9
$SHADEDIF
 70
    70
  9
$TILEMODE
 70
     1
  9
$MAXACTVP
 70
    64
  9
$PINSBASE
 10
0.0
 20
0.0
 30
0.0
  9
$PLIMCHECK
 70
     0
  9
$PEXTMIN
 10
1.000000000000000E+20
 20
1.000000000000000E+20
 30
1.000000000000000E+20
  9
$PEXTMAX
 10
-1.000000000000000E+20
 20
-1.000000000000000E+20
 30
-1.000000000000000E+20
  9
$PLIMMIN
 10
0.0
 20
0.0
  9
$PLIMMAX
 10
12.0
 20
9.0
  9
$UNITMODE
 70
     0
  9
$VISRETAIN
 70
     1
  9
$PLINEGEN
 70
     0
  9
$PSLTSCALE
 70
     1
  9
$TREEDEPTH
 70
  3020
  9
$CMLSTYLE
  2
Standard
  9
$CMLJUST
 70
     0
  9
$CMLSCALE
 40
1.0
  9
$PROXYGRAPHICS
 70
     1
  9
$MEASUREMENT
 70
     0
  9
$CELWEIGHT
370
    -1
  9
$ENDCAPS
280
     0
  9
$JOINSTYLE
280
     0
  9
$LWDISPLAY
290
     1
  9
$INSUNITS
 70
     1
  9
$HYPERLINKBASE
  1

  9
$STYLESHEET
  1

  9
$XEDIT
290
     1
  9
$CEPSNTYPE
380
     0
  9
$PSTYLEMODE
290
     1
  9
$FINGERPRINTGUID
  2
{248FF2A1-293A-49E9-BF3A-B6065A265171}
  9
$VERSIONGUID
  2
{FAEB1C32-E019-11D5-929B-00C0DF256EC4}
  9
$EXTNAMES
290
     1
  9
$PSVPSCALE
 40
0.0
  9
$OLESTARTUP
290
     0
  9
$SORTENTS
280
   127
  9
$INDEXCTL
280
     0
  9
$HIDETEXT
280
     1
  9
$XCLIPFRAME
280
     2
  9
$HALOGAP
280
     0
  9
$OBSCOLOR
 70
   257
  9
$OBSLTYPE
280
     0
  9
$INTERSECTIONDISPLAY
280
     0
  9
$INTERSECTIONCOLOR
 70
   257
  9
$DIMASSOC
280
     2
  9
$PROJECTNAME
  1

  9
$CAMERADISPLAY
290
     0
  9
$LENSLENGTH
 40
50.0
  9
$CAMERAHEIGHT
 40
0.0
  9
$STEPSPERSEC
 40
2.0
  9
$STEPSIZE
 40
6.0
  9
$3DDWFPREC
 40
2.0
  9
$PSOLWIDTH
 40
0.25
  9
$PSOLHEIGHT
 40
4.0
  9
$LOFTANG1
 40
1.570796326794897
  9
$LOFTANG2
 40
1.570796326794897
  9
$LOFTMAG1
 40
0.0
  9
$LOFTMAG2
 40
0.0
  9
$LOFTPARAM
 70
     7
  9
$LOFTNORMALS
280
     1
  9
$LATITUDE
 40
37.795
  9
$LONGITUDE
 40
-122.394
  9
$NORTHDIRECTION
 40
0.0
  9
$TIMEZONE
 70
 -8000
  9
$LIGHTGLYPHDISPLAY
280
     1
  9
$TILEMODELIGHTSYNCH
280
     1
  9
$CMATERIAL
347
3C
  9
$SOLIDHIST
280
     1
  9
$SHOWHIST
280
     1
  9
$DWFFRAME
280
     2
  9
$DGNFRAME
280
     2
  9
$REALWORLDSCALE
290
     1
  9
$INTERFERECOLOR
 62
   256
  9
$CSHADOW
280
     0
  9
$SHADOWPLANELOCATION
 40
0.0
  0
ENDSEC
  0
SECTION
  2
CLASSES
  0
CLASS
  1
ACDBDICTIONARYWDFLT
  2
AcDbDictionaryWithDefault
  3
ObjectDBX Classes
 90
        0
 91
        4
280
     0
281
     0
  0
CLASS
  1
VISUALSTYLE
  2
AcDbVisualStyle
  3
ObjectDBX Classes
 90
     4095
 91
        4
280
     0
281
     0
  0
CLASS
  1
MATERIAL
  2
AcDbMaterial
  3
ObjectDBX Classes
 90
     1153
 91
        4
280
     0
281
     0
  0
CLASS
  1
SUN
  2
AcDbSun
  3
SCENEOE
 90
     1024
 91
        4
280
     0
281
     0
  0
ENDSEC
  0
SECTION
  2
TABLES
  0
TABLE
  2
VPORT
  5
8
330
0
100
AcDbSymbolTable
 70
     1
  0
VPORT
  5
29
330
8
100
AcDbSymbolTableRecord
100
AcDbViewportTableRecord
  2
*Active
 70
     0
 10
0.0
 20
0.0
 11
1.0
 21
1.0
 12
0.0
 22
0.0
 13
0.0
 23
0.0
 14
0.5
 24
0.5
 15
0.5
 25
0.5
 16
0.0
 26
0.0
 36
1.0
 17
216.0
 27
216.0
 37
0.0
 40
432.0
 41
1.0
 42
50.0
 43
0.0
 44
0.0
 50
0.0
 51
0.0
 71
     0
 72
   100
 73
     1
 74
     3
 75
     0
 76
     0
 77
     0
 78
     0
281
     0
 65
     1
110
0.0
120
0.0
130
0.0
111
1.0
121
0.0
131
0.0
112
0.0
122
1.0
132
0.0
 79
     0
146
0.0
 60
     3
 61
     5
292
     1
282
     1
141
0.0
142
0.0
 63
   250
361
3F
  0
ENDTAB
  0
TABLE
  2
LTYPE
  5
5
330
0
100
AcDbSymbolTable
 70
     1
  0
LTYPE
  5
14
330
5
100
AcDbSymbolTableRecord
100
AcDbLinetypeTableRecord
  2
ByBlock
 70
     0
  3

 72
    65
 73
     0
 40
0.0
  0
LTYPE
  5
15
330
5
100
AcDbSymbolTableRecord
100
AcDbLinetypeTableRecord
  2
ByLayer
 70
     0
  3

 72
    65
 73
     0
 40
0.0
  0
LTYPE
  5
16
330
5
100
AcDbSymbolTableRecord
100
AcDbLinetypeTableRecord
  2
Continuous
 70
     0
  3
Solid line
 72
    65
 73
     0
 40
0.0
  0
ENDTAB
  0
TABLE
  2
LAYER
  5
2
330
0
100
AcDbSymbolTable
 70
     2
  0
LAYER
  5
10
330
2
100
AcDbSymbolTableRecord
100
AcDbLayerTableRecord
  2
0
 70
     0
 62
     7
  6
Continuous
370
    -3
390
F
347
3E
  0
LAYER
  5
40
330
2
100
AcDbSymbolTableRecord
100
AcDbLayerTableRecord
  2
Calque 1
 70
     0
 62
     7
  6
Continuous
370
    -3
390
F
347
3E
  0
ENDTAB
  0
TABLE
  2
STYLE
  5
3
330
0
100
AcDbSymbolTable
 70
     1
  0
STYLE
  5
11
330
3
100
AcDbSymbolTableRecord
100
AcDbTextStyleTableRecord
  2
Standard
 70
     0
 40
0.0
 41
1.0
 50
0.0
 71
     0
 42
0.2
  3
txt
  4

  0
ENDTAB
  0
TABLE
  2
VIEW
  5
6
330
0
100
AcDbSymbolTable
 70
     0
  0
ENDTAB
  0
TABLE
  2
UCS
  5
7
330
0
100
AcDbSymbolTable
 70
     0
  0
ENDTAB
  0
TABLE
  2
APPID
  5
9
330
0
100
AcDbSymbolTable
 70
     1
  0
APPID
  5
12
330
9
100
AcDbSymbolTableRecord
100
AcDbRegAppTableRecord
  2
ACAD
 70
     0
  0
ENDTAB
  0
TABLE
  2
DIMSTYLE
  5
A
330
0
100
AcDbSymbolTable
 70
     1
100
AcDbDimStyleTable
  0
DIMSTYLE
105
27
330
A
100
AcDbSymbolTableRecord
100
AcDbDimStyleTableRecord
  2
Standard
 70
     0
178
     0
340
11
  0
ENDTAB
  0
TABLE
  2
BLOCK_RECORD
  5
1
330
0
100
AcDbSymbolTable
 70
     1
  0
BLOCK_RECORD
  5
1F
330
1
100
AcDbSymbolTableRecord
100
AcDbBlockTableRecord
  2
*Model_Space
340
22
 70
     0
280
     1
281
     0
  0
BLOCK_RECORD
  5
1B
330
1
100
AcDbSymbolTableRecord
100
AcDbBlockTableRecord
  2
*Paper_Space
340
1E
 70
     0
280
     1
281
     0
  0
BLOCK_RECORD
  5
23
330
1
100
AcDbSymbolTableRecord
100
AcDbBlockTableRecord
  2
*Paper_Space0
340
26
 70
     0
280
     1
281
     0
  0
ENDTAB
  0
ENDSEC
  0
SECTION
  2
BLOCKS
  0
BLOCK
  5
20
330
1F
100
AcDbEntity
  8
0
100
AcDbBlockBegin
  2
*Model_Space
 70
     0
 10
0.0
 20
0.0
 30
0.0
  3
*Model_Space
  1

  0
ENDBLK
  5
21
330
1F
100
AcDbEntity
  8
0
100
AcDbBlockEnd
  0
BLOCK
  5
1C
330
1B
100
AcDbEntity
 67
     1
  8
0
100
AcDbBlockBegin
  2
*Paper_Space
 70
     0
 10
0.0
 20
0.0
 30
0.0
  3
*Paper_Space
  1

  0
ENDBLK
  5
1D
330
1B
100
AcDbEntity
 67
     1
  8
0
100
AcDbBlockEnd
  0
BLOCK
  5
24
330
23
100
AcDbEntity
  8
0
100
AcDbBlockBegin
  2
*Paper_Space0
 70
     0
 10
0.0
 20
0.0
 30
0.0
  3
*Paper_Space0
  1

  0
ENDBLK
  5
25
330
23
100
AcDbEntity
  8
0
100
AcDbBlockEnd
  0
ENDSEC
  0
SECTION
  2
ENTITIES
  0
SPLINE
  5
41
330
1F
100
AcDbEntity
  8
Calque 1
370
     0
100
AcDbSpline
210
0.0
220
0.0
230
1.0
 70
    11
 71
     3
 72
   740
 73
   736
 74
     0
 42
0.0000000001
 43
0.0000000001
 12
1.0
 22
0.0
 32
0.0
 13
1.0
 23
0.0
 33
0.0
 40
0.0
 40
0.0
 40
0.0
 40
0.0
 40
1.0
 40
1.0
 40
1.0
 40
2.0
 40
2.0
 40
2.0
 40
3.0
 40
3.0
 40
3.0
 40
4.0
 40
4.0
 40
4.0
 40
5.0
 40
5.0
 40
5.0
 40
6.0
 40
6.0
 40
6.0
 40
7.0
 40
7.0
 40
7.0
 40
8.0
 40
8.0
 40
8.0
 40
9.0
 40
9.0
 40
9.0
 40
10.0
 40
10.0
 40
10.0
 40
11.0
 40
11.0
 40
11.0
 40
12.0
 40
12.0
 40
12.0
 40
13.0
 40
13.0
 40
13.0
 40
14.0
 40
14.0
 40
14.0
 40
15.0
 40
15.0
 40
15.0
 40
16.0
 40
16.0
 40
16.0
 40
17.0
 40
17.0
 40
17.0
 40
18.0
 40
18.0
 40
18.0
 40
19.0
 40
19.0
 40
19.0
 40
20.0
 40
20.0
 40
20.0
 40
21.0
 40
21.0
 40
21.0
 40
22.0
 40
22.0
 40
22.0
 40
23.0
 40
23.0
 40
23.0
 40
24.0
 40
24.0
 40
24.0
 40
25.0
 40
25.0
 40
25.0
 40
26.0
 40
26.0
 40
26.0
 40
27.0
 40
27.0
 40
27.0
 40
28.0
 40
28.0
 40
28.0
 40
29.0
 40
29.0
 40
29.0
 40
30.0
 40
30.0
 40
30.0
 40
31.0
 40
31.0
 40
31.0
 40
32.0
 40
32.0
 40
32.0
 40
33.0
 40
33.0
 40
33.0
 40
34.0
 40
34.0
 40
34.0
 40
35.0
 40
35.0
 40
35.0
 40
36.0
 40
36.0
 40
36.0
 40
37.0
 40
37.0
 40
37.0
 40
38.0
 40
38.0
 40
38.0
 40
39.0
 40
39.0
 40
39.0
 40
40.0
 40
40.0
 40
40.0
 40
41.0
 40
41.0
 40
41.0
 40
42.0
 40
42.0
 40
42.0
 40
43.0
 40
43.0
 40
43.0
 40
44.0
 40
44.0
 40
44.0
 40
45.0
 40
45.0
 40
45.0
 40
46.0
 40
46.0
 40
46.0
 40
47.0
 40
47.0
 40
47.0
 40
48.0
 40
48.0
 40
48.0
 40
49.0
 40
49.0
 40
49.0
 40
50.0
 40
50.0
 40
50.0
 40
51.0
 40
51.0
 40
51.0
 40
52.0
 40
52.0
 40
52.0
 40
53.0
 40
53.0
 40
53.0
 40
54.0
 40
54.0
 40
54.0
 40
55.0
 40
55.0
 40
55.0
 40
56.0
 40
56.0
 40
56.0
 40
57.0
 40
57.0
 40
57.0
 40
58.0
 40
58.0
 40
58.0
 40
59.0
 40
59.0
 40
59.0
 40
60.0
 40
60.0
 40
60.0
 40
61.0
 40
61.0
 40
61.0
 40
62.0
 40
62.0
 40
62.0
 40
63.0
 40
63.0
 40
63.0
 40
64.0
 40
64.0
 40
64.0
 40
65.0
 40
65.0
 40
65.0
 40
66.0
 40
66.0
 40
66.0
 40
67.0
 40
67.0
 40
67.0
 40
68.0
 40
68.0
 40
68.0
 40
69.0
 40
69.0
 40
69.0
 40
70.0
 40
70.0
 40
70.0
 40
71.0
 40
71.0
 40
71.0
 40
72.0
 40
72.0
 40
72.0
 40
73.0
 40
73.0
 40
73.0
 40
74.0
 40
74.0
 40
74.0
 40
75.0
 40
75.0
 40
75.0
 40
76.0
 40
76.0
 40
76.0
 40
77.0
 40
77.0
 40
77.0
 40
78.0
 40
78.0
 40
78.0
 40
79.0
 40
79.0
 40
79.0
 40
80.0
 40
80.0
 40
80.0
 40
81.0
 40
81.0
 40
81.0
 40
82.0
 40
82.0
 40
82.0
 40
83.0
 40
83.0
 40
83.0
 40
84.0
 40
84.0
 40
84.0
 40
85.0
 40
85.0
 40
85.0
 40
86.0
 40
86.0
 40
86.0
 40
87.0
 40
87.0
 40
87.0
 40
88.0
 40
88.0
 40
88.0
 40
89.0
 40
89.0
 40
89.0
 40
90.0
 40
90.0
 40
90.0
 40
91.0
 40
91.0
 40
91.0
 40
92.0
 40
92.0
 40
92.0
 40
93.0
 40
93.0
 40
93.0
 40
94.0
 40
94.0
 40
94.0
 40
95.0
 40
95.0
 40
95.0
 40
96.0
 40
96.0
 40
96.0
 40
97.0
 40
97.0
 40
97.0
 40
98.0
 40
98.0
 40
98.0
 40
99.0
 40
99.0
 40
99.0
 40
100.0
 40
100.0
 40
100.0
 40
101.0
 40
101.0
 40
101.0
 40
102.0
 40
102.0
 40
102.0
 40
103.0
 40
103.0
 40
103.0
 40
104.0
 40
104.0
 40
104.0
 40
105.0
 40
105.0
 40
105.0
 40
106.0
 40
106.0
 40
106.0
 40
107.0
 40
107.0
 40
107.0
 40
108.0
 40
108.0
 40
108.0
 40
109.0
 40
109.0
 40
109.0
 40
110.0
 40
110.0
 40
110.0
 40
111.0
 40
111.0
 40
111.0
 40
112.0
 40
112.0
 40
112.0
 40
113.0
 40
113.0
 40
113.0
 40
114.0
 40
114.0
 40
114.0
 40
115.0
 40
115.0
 40
115.0
 40
116.0
 40
116.0
 40
116.0
 40
117.0
 40
117.0
 40
117.0
 40
118.0
 40
118.0
 40
118.0
 40
119.0
 40
119.0
 40
119.0
 40
120.0
 40
120.0
 40
120.0
 40
121.0
 40
121.0
 40
121.0
 40
122.0
 40
122.0
 40
122.0
 40
123.0
 40
123.0
 40
123.0
 40
124.0
 40
124.0
 40
124.0
 40
125.0
 40
125.0
 40
125.0
 40
126.0
 40
126.0
 40
126.0
 40
127.0
 40
127.0
 40
127.0
 40
128.0
 40
128.0
 40
128.0
 40
129.0
 40
129.0
 40
129.0
 40
130.0
 40
130.0
 40
130.0
 40
131.0
 40
131.0
 40
131.0
 40
132.0
 40
132.0
 40
132.0
 40
133.0
 40
133.0
 40
133.0
 40
134.0
 40
134.0
 40
134.0
 40
135.0
 40
135.0
 40
135.0
 40
136.0
 40
136.0
 40
136.0
 40
137.0
 40
137.0
 40
137.0
 40
138.0
 40
138.0
 40
138.0
 40
139.0
 40
139.0
 40
139.0
 40
140.0
 40
140.0
 40
140.0
 40
141.0
 40
141.0
 40
141.0
 40
142.0
 40
142.0
 40
142.0
 40
143.0
 40
143.0
 40
143.0
 40
144.0
 40
144.0
 40
144.0
 40
145.0
 40
145.0
 40
145.0
 40
146.0
 40
146.0
 40
146.0
 40
147.0
 40
147.0
 40
147.0
 40
148.0
 40
148.0
 40
148.0
 40
149.0
 40
149.0
 40
149.0
 40
150.0
 40
150.0
 40
150.0
 40
151.0
 40
151.0
 40
151.0
 40
152.0
 40
152.0
 40
152.0
 40
153.0
 40
153.0
 40
153.0
 40
154.0
 40
154.0
 40
154.0
 40
155.0
 40
155.0
 40
155.0
 40
156.0
 40
156.0
 40
156.0
 40
157.0
 40
157.0
 40
157.0
 40
158.0
 40
158.0
 40
158.0
 40
159.0
 40
159.0
 40
159.0
 40
160.0
 40
160.0
 40
160.0
 40
161.0
 40
161.0
 40
161.0
 40
162.0
 40
162.0
 40
162.0
 40
163.0
 40
163.0
 40
163.0
 40
164.0
 40
164.0
 40
164.0
 40
165.0
 40
165.0
 40
165.0
 40
166.0
 40
166.0
 40
166.0
 40
167.0
 40
167.0
 40
167.0
 40
168.0
 40
168.0
 40
168.0
 40
169.0
 40
169.0
 40
169.0
 40
170.0
 40
170.0
 40
170.0
 40
171.0
 40
171.0
 40
171.0
 40
172.0
 40
172.0
 40
172.0
 40
173.0
 40
173.0
 40
173.0
 40
174.0
 40
174.0
 40
174.0
 40
175.0
 40
175.0
 40
175.0
 40
176.0
 40
176.0
 40
176.0
 40
177.0
 40
177.0
 40
177.0
 40
178.0
 40
178.0
 40
178.0
 40
179.0
 40
179.0
 40
179.0
 40
180.0
 40
180.0
 40
180.0
 40
181.0
 40
181.0
 40
181.0
 40
182.0
 40
182.0
 40
182.0
 40
183.0
 40
183.0
 40
183.0
 40
184.0
 40
184.0
 40
184.0
 40
185.0
 40
185.0
 40
185.0
 40
186.0
 40
186.0
 40
186.0
 40
187.0
 40
187.0
 40
187.0
 40
188.0
 40
188.0
 40
188.0
 40
189.0
 40
189.0
 40
189.0
 40
190.0
 40
190.0
 40
190.0
 40
191.0
 40
191.0
 40
191.0
 40
192.0
 40
192.0
 40
192.0
 40
193.0
 40
193.0
 40
193.0
 40
194.0
 40
194.0
 40
194.0
 40
195.0
 40
195.0
 40
195.0
 40
196.0
 40
196.0
 40
196.0
 40
197.0
 40
197.0
 40
197.0
 40
198.0
 40
198.0
 40
198.0
 40
199.0
 40
199.0
 40
199.0
 40
200.0
 40
200.0
 40
200.0
 40
201.0
 40
201.0
 40
201.0
 40
202.0
 40
202.0
 40
202.0
 40
203.0
 40
203.0
 40
203.0
 40
204.0
 40
204.0
 40
204.0
 40
205.0
 40
205.0
 40
205.0
 40
206.0
 40
206.0
 40
206.0
 40
207.0
 40
207.0
 40
207.0
 40
208.0
 40
208.0
 40
208.0
 40
209.0
 40
209.0
 40
209.0
 40
210.0
 40
210.0
 40
210.0
 40
211.0
 40
211.0
 40
211.0
 40
212.0
 40
212.0
 40
212.0
 40
213.0
 40
213.0
 40
213.0
 40
214.0
 40
214.0
 40
214.0
 40
215.0
 40
215.0
 40
215.0
 40
216.0
 40
216.0
 40
216.0
 40
217.0
 40
217.0
 40
217.0
 40
218.0
 40
218.0
 40
218.0
 40
219.0
 40
219.0
 40
219.0
 40
220.0
 40
220.0
 40
220.0
 40
221.0
 40
221.0
 40
221.0
 40
222.0
 40
222.0
 40
222.0
 40
223.0
 40
223.0
 40
223.0
 40
224.0
 40
224.0
 40
224.0
 40
225.0
 40
225.0
 40
225.0
 40
226.0
 40
226.0
 40
226.0
 40
227.0
 40
227.0
 40
227.0
 40
228.0
 40
228.0
 40
228.0
 40
229.0
 40
229.0
 40
229.0
 40
230.0
 40
230.0
 40
230.0
 40
231.0
 40
231.0
 40
231.0
 40
232.0
 40
232.0
 40
232.0
 40
233.0
 40
233.0
 40
233.0
 40
234.0
 40
234.0
 40
234.0
 40
235.0
 40
235.0
 40
235.0
 40
236.0
 40
236.0
 40
236.0
 40
237.0
 40
237.0
 40
237.0
 40
238.0
 40
238.0
 40
238.0
 40
239.0
 40
239.0
 40
239.0
 40
240.0
 40
240.0
 40
240.0
 40
241.0
 40
241.0
 40
241.0
 40
242.0
 40
242.0
 40
242.0
 40
243.0
 40
243.0
 40
243.0
 40
244.0
 40
244.0
 40
244.0
 40
245.0
 40
245.0
 40
245.0
 40
245.0
 10
95.5999984741211
 20
252.0
 30
0.0
 10
97.0
 20
252.3000030517578
 30
0.0
 10
98.4000015258789
 20
252.5
 30
0.0
 10
99.69999694824219
 20
252.6999969482422
 30
0.0
 10
105.3999938964844
 20
253.5999908447266
 30
0.0
 10
111.1999969482422
 20
253.8000030517578
 30
0.0
 10
116.8999938964844
 20
253.6999969482422
 30
0.0
 10
123.6999969482422
 20
253.5999908447266
 30
0.0
 10
130.5
 20
252.6999969482422
 30
0.0
 10
137.0999908447266
 20
251.3000030517578
 30
0.0
 10
146.8999938964844
 20
249.3000030517578
 30
0.0
 10
156.6999969482422
 20
247.1999969482422
 30
0.0
 10
166.4999847412109
 20
245.4000091552734
 30
0.0
 10
171.4999847412109
 20
244.5000152587891
 30
0.0
 10
176.5999908447266
 20
243.7000122070312
 30
0.0
 10
181.6999816894531
 20
243.2000122070312
 30
0.0
 10
181.9999847412109
 20
243.2000122070312
 30
0.0
 10
182.2999877929688
 20
243.1000061035156
 30
0.0
 10
182.5999755859375
 20
243.1000061035156
 30
0.0
 10
183.4999694824219
 20
243.0
 30
0.0
 10
183.4999694824219
 20
243.0
 30
0.0
 10
183.4999694824219
 20
243.9000091552734
 30
0.0
 10
183.5999755859375
 20
248.4000091552734
 30
0.0
 10
183.8999633789062
 20
252.8000030517578
 30
0.0
 10
184.2999725341797
 20
257.3000030517578
 30
0.0
 10
184.6999664306641
 20
261.5
 30
0.0
 10
185.1999664306641
 20
265.6999969482422
 30
0.0
 10
186.0999755859375
 20
269.9000091552734
 30
0.0
 10
186.4999694824219
 20
271.7000122070312
 30
0.0
 10
187.0999755859375
 20
273.4000091552734
 30
0.0
 10
187.9999694824219
 20
275.0000152587891
 30
0.0
 10
188.3999633789062
 20
275.8000183105469
 30
0.0
 10
189.1999664306641
 20
276.2000122070312
 30
0.0
 10
190.0999755859375
 20
276.2000122070312
 30
0.0
 10
191.7999725341797
 20
276.2000122070312
 30
0.0
 10
192.8999786376953
 20
275.4000091552734
 30
0.0
 10
193.6999816894531
 20
273.9000091552734
 30
0.0
 10
194.4999847412109
 20
272.4000091552734
 30
0.0
 10
194.9999847412109
 20
270.8000030517578
 30
0.0
 10
195.0999755859375
 20
269.1000061035156
 30
0.0
 10
195.3999786376953
 20
266.4000091552734
 30
0.0
 10
195.0999755859375
 20
263.8000030517578
 30
0.0
 10
194.9999694824219
 20
261.1000061035156
 30
0.0
 10
194.6999664306641
 20
255.2000122070312
 30
0.0
 10
194.3999633789062
 20
249.4000091552734
 30
0.0
 10
194.2999725341797
 20
243.5
 30
0.0
 10
194.2999725341797
 20
243.3999938964844
 30
0.0
 10
194.2999725341797
 20
243.3000030517578
 30
0.0
 10
194.2999725341797
 20
243.1999969482422
 30
0.0
 10
194.1999664306641
 20
242.6999969482422
 30
0.0
 10
194.3999786376953
 20
242.5
 30
0.0
 10
194.9999694824219
 20
242.5
 30
0.0
 10
196.1999664306641
 20
242.5
 30
0.0
 10
197.4999694824219
 20
242.5
 30
0.0
 10
198.6999664306641
 20
242.6000061035156
 30
0.0
 10
204.7999725341797
 20
242.9000091552734
 30
0.0
 10
210.8999633789062
 20
243.8000030517578
 30
0.0
 10
216.7999725341797
 20
245.3000030517578
 30
0.0
 10
217.5999755859375
 20
245.5
 30
0.0
 10
217.9999694824219
 20
245.9000091552734
 30
0.0
 10
218.1999664306641
 20
246.6999969482422
 30
0.0
 10
219.4999694824219
 20
251.6999969482422
 30
0.0
 10
220.9999694824219
 20
256.5999908447266
 30
0.0
 10
223.0999603271484
 20
261.3000030517578
 30
0.0
 10
224.7999572753906
 20
265.0
 30
0.0
 10
226.7999572753906
 20
268.6000061035156
 30
0.0
 10
229.5999603271484
 20
271.6000061035156
 30
0.0
 10
232.1999664306641
 20
274.4000091552734
 30
0.0
 10
235.0999603271484
 20
276.4000091552734
 30
0.0
 10
238.7999572753906
 20
277.4000091552734
 30
0.0
 10
240.699951171875
 20
277.9000091552734
 30
0.0
 10
242.699951171875
 20
278.0000152587891
 30
0.0
 10
244.5999603271484
 20
277.4000091552734
 30
0.0
 10
248.4999542236328
 20
276.3000030517578
 30
0.0
 10
251.0999603271484
 20
273.1000061035156
 30
0.0
 10
251.3999633789062
 20
268.8000030517578
 30
0.0
 10
251.6999664306641
 20
266.1000061035156
 30
0.0
 10
251.0999603271484
 20
263.6000061035156
 30
0.0
 10
249.9999694824219
 20
261.1000061035156
 30
0.0
 10
248.1999664306641
 20
257.4000091552734
 30
0.0
 10
245.5999755859375
 20
254.5
 30
0.0
 10
242.2999725341797
 20
252.0
 30
0.0
 10
238.7999725341797
 20
249.3000030517578
 30
0.0
 10
234.7999725341797
 20
247.3000030517578
 30
0.0
 10
230.6999664306641
 20
245.6999969482422
 30
0.0
 10
229.2999725341797
 20
245.1999969482422
 30
0.0
 10
228.6999664306641
 20
244.3999938964844
 30
0.0
 10
228.3999633789062
 20
243.0
 30
0.0
 10
226.4999694824219
 20
235.1000061035156
 30
0.0
 10
225.1999664306641
 20
227.1000061035156
 30
0.0
 10
224.7999572753906
 20
219.0
 30
0.0
 10
224.4999542236328
 20
212.8000030517578
 30
0.0
 10
224.699951171875
 20
206.6000061035156
 30
0.0
 10
225.5999603271484
 20
200.3999938964844
 30
0.0
 10
225.5999603271484
 20
200.0999908447266
 30
0.0
 10
225.5999603271484
 20
199.7999877929688
 30
0.0
 10
225.7999572753906
 20
199.5
 30
0.0
 10
226.0999603271484
 20
199.8000030517578
 30
0.0
 10
226.0999603271484
 20
200.1999969482422
 30
0.0
 10
226.199951171875
 20
200.5
 30
0.0
 10
228.2999572753906
 20
206.5
 30
0.0
 10
231.3999481201172
 20
211.8999938964844
 30
0.0
 10
235.3999481201172
 20
216.6999969482422
 30
0.0
 10
236.4999542236328
 20
218.0999908447266
 30
0.0
 10
237.7999420166016
 20
219.3999938964844
 30
0.0
 10
239.199951171875
 20
220.5
 30
0.0
 10
239.9999542236328
 20
221.1999969482422
 30
0.0
 10
240.9999542236328
 20
221.8000030517578
 30
0.0
 10
241.8999481201172
 20
222.3999938964844
 30
0.0
 10
246.4999542236328
 20
224.7999877929688
 30
0.0
 10
252.0999450683594
 20
222.5999908447266
 30
0.0
 10
253.7999420166016
 20
217.6999969482422
 30
0.0
 10
254.4999389648438
 20
215.5999908447266
 30
0.0
 10
254.5999450683594
 20
213.3999938964844
 30
0.0
 10
254.4999389648438
 20
211.0999908447266
 30
0.0
 10
254.2999420166016
 20
205.9999847412109
 30
0.0
 10
253.3999328613281
 20
200.8999938964844
 30
0.0
 10
252.4999389648438
 20
195.8999938964844
 30
0.0
 10
251.4999389648438
 20
190.1999969482422
 30
0.0
 10
250.7999420166016
 20
184.3999938964844
 30
0.0
 10
250.1999359130859
 20
178.5999908447266
 30
0.0
 10
249.9999389648438
 20
176.4999847412109
 30
0.0
 10
249.7999420166016
 20
174.2999877929688
 30
0.0
 10
249.6999359130859
 20
172.1999816894531
 30
0.0
 10
249.4999389648438
 20
168.8999938964844
 30
0.0
 10
249.5999298095703
 20
165.5999755859375
 30
0.0
 10
250.3999328613281
 20
162.3999938964844
 30
0.0
 10
250.6999359130859
 20
161.0
 30
0.0
 10
251.1999359130859
 20
159.6999816894531
 30
0.0
 10
251.9999389648438
 20
158.5
 30
0.0
 10
252.8999328613281
 20
157.2000122070312
 30
0.0
 10
253.2999420166016
 20
157.2000122070312
 30
0.0
 10
254.2999420166016
 20
158.3999938964844
 30
0.0
 10
255.1999359130859
 20
159.3999938964844
 30
0.0
 10
255.6999359130859
 20
160.6000061035156
 30
0.0
 10
256.0999450683594
 20
161.7999877929688
 30
0.0
 10
256.8999328613281
 20
164.0999755859375
 30
0.0
 10
257.4999389648438
 20
166.5999755859375
 30
0.0
 10
257.9999389648438
 20
169.0
 30
0.0
 10
259.5999450683594
 20
176.1000061035156
 30
0.0
 10
260.7999267578125
 20
183.3000030517578
 30
0.0
 10
261.9999389648438
 20
190.5
 30
0.0
 10
262.0999450683594
 20
191.0
 30
0.0
 10
261.9999389648438
 20
191.5
 30
0.0
 10
261.8999328613281
 20
191.8999938964844
 30
0.0
 10
260.0999450683594
 20
198.5999908447266
 30
0.0
 10
259.3999328613281
 20
205.3999938964844
 30
0.0
 10
259.9999389648438
 20
212.2999877929688
 30
0.0
 10
260.3999328613281
 20
216.6999816894531
 30
0.0
 10
261.3999328613281
 20
220.8999938964844
 30
0.0
 10
263.4999389648438
 20
224.7999877929688
 30
0.0
 10
264.5999450683594
 20
226.8999938964844
 30
0.0
 10
265.9999389648438
 20
228.8999938964844
 30
0.0
 10
267.699951171875
 20
230.4999847412109
 30
0.0
 10
270.0999450683594
 20
232.6999816894531
 30
0.0
 10
272.8999633789062
 20
233.9999847412109
 30
0.0
 10
276.199951171875
 20
234.1999816894531
 30
0.0
 10
284.0999450683594
 20
234.4999847412109
 30
0.0
 10
289.7999572753906
 20
225.8999786376953
 30
0.0
 10
286.3999633789062
 20
218.7999877929688
 30
0.0
 10
285.4999694824219
 20
216.8999938964844
 30
0.0
 10
283.9999694824219
 20
215.4999847412109
 30
0.0
 10
282.0999755859375
 20
214.4999847412109
 30
0.0
 10
278.9999694824219
 20
212.8999786376953
 30
0.0
 10
275.5999755859375
 20
212.2999877929688
 30
0.0
 10
272.0999755859375
 20
212.5999908447266
 30
0.0
 10
270.7999877929688
 20
212.6999969482422
 30
0.0
 10
270.7999877929688
 20
212.6999969482422
 30
0.0
 10
270.6999816894531
 20
211.3999938964844
 30
0.0
 10
270.0999755859375
 20
203.2999877929688
 30
0.0
 10
271.4999694824219
 20
195.5999908447266
 30
0.0
 10
274.2999877929688
 20
188.0
 30
0.0
 10
274.8999938964844
 20
186.5
 30
0.0
 10
275.7999877929688
 20
185.1000061035156
 30
0.0
 10
276.7999877929688
 20
183.8000030517578
 30
0.0
 10
278.3999938964844
 20
181.9000091552734
 30
0.0
 10
280.1999816894531
 20
181.3000030517578
 30
0.0
 10
282.5999755859375
 20
182.0
 30
0.0
 10
284.1999816894531
 20
182.5
 30
0.0
 10
285.5999755859375
 20
183.3999938964844
 30
0.0
 10
286.8999633789062
 20
184.5
 30
0.0
 10
289.199951171875
 20
186.5
 30
0.0
 10
290.8999633789062
 20
188.8999938964844
 30
0.0
 10
292.3999633789062
 20
191.5
 30
0.0
 10
294.699951171875
 20
195.5
 30
0.0
 10
296.2999572753906
 20
199.8000030517578
 30
0.0
 10
297.4999694824219
 20
204.1999969482422
 30
0.0
 10
299.7999572753906
 20
212.3999938964844
 30
0.0
 10
301.0999755859375
 20
220.6999969482422
 30
0.0
 10
300.6999816894531
 20
229.1999969482422
 30
0.0
 10
300.6999816894531
 20
229.8999938964844
 30
0.0
 10
300.5999755859375
 20
230.5999908447266
 30
0.0
 10
300.5999755859375
 20
231.3000030517578
 30
0.0
 10
300.5999755859375
 20
231.8000030517578
 30
0.0
 10
300.3999633789062
 20
232.0
 30
0.0
 10
299.8999633789062
 20
232.0
 30
0.0
 10
297.7999572753906
 20
232.3999938964844
 30
0.0
 10
295.5999755859375
 20
232.8999938964844
 30
0.0
 10
293.4999694824219
 20
233.5
 30
0.0
 10
290.9999694824219
 20
234.3000030517578
 30
0.0
 10
288.5999755859375
 20
235.1999969482422
 30
0.0
 10
286.3999633789062
 20
236.6000061035156
 30
0.0
 10
284.8999633789062
 20
237.6000061035156
 30
0.0
 10
283.4999694824219
 20
238.7000122070312
 30
0.0
 10
282.3999633789062
 20
240.2000122070312
 30
0.0
 10
280.199951171875
 20
243.2000122070312
 30
0.0
 10
279.4999694824219
 20
246.6000061035156
 30
0.0
 10
280.7999572753906
 20
250.2000122070312
 30
0.0
 10
282.2999572753906
 20
254.5000152587891
 30
0.0
 10
286.3999633789062
 20
256.6000061035156
 30
0.0
 10
290.7999572753906
 20
255.5000152587891
 30
0.0
 10
292.7999572753906
 20
255.0000152587891
 30
0.0
 10
294.4999694824219
 20
253.9000091552734
 30
0.0
 10
295.9999694824219
 20
252.5000152587891
 30
0.0
 10
297.4999694824219
 20
251.1000213623047
 30
0.0
 10
298.5999755859375
 20
249.4000091552734
 30
0.0
 10
299.5999755859375
 20
247.6000213623047
 30
0.0
 10
301.6999816894531
 20
243.8000183105469
 30
0.0
 10
302.7999877929688
 20
239.7000274658203
 30
0.0
 10
303.3999633789062
 20
235.4000244140625
 30
0.0
 10
303.4999694824219
 20
234.5000305175781
 30
0.0
 10
303.4999694824219
 20
234.5000305175781
 30
0.0
 10
304.3999633789062
 20
234.4000244140625
 30
0.0
 10
306.9999694824219
 20
234.0000305175781
 30
0.0
 10
309.5999755859375
 20
233.8000183105469
 30
0.0
 10
312.199951171875
 20
234.0000305175781
 30
0.0
 10
313.5999450683594
 20
234.1000366210938
 30
0.0
 10
314.8999633789062
 20
233.8000335693359
 30
0.0
 10
316.0999450683594
 20
233.2000274658203
 30
0.0
 10
318.2999572753906
 20
232.0000305175781
 30
0.0
 10
319.4999389648438
 20
230.2000274658203
 30
0.0
 10
319.699951171875
 20
227.7000274658203
 30
0.0
 10
319.7999572753906
 20
225.6000213623047
 30
0.0
 10
319.3999633789062
 20
223.6000213623047
 30
0.0
 10
318.9999389648438
 20
221.6000213623047
 30
0.0
 10
317.9999389648438
 20
216.8000183105469
 30
0.0
 10
316.9999389648438
 20
212.0000152587891
 30
0.0
 10
316.2999267578125
 20
207.2000274658203
 30
0.0
 10
315.3999328613281
 20
200.7000274658203
 30
0.0
 10
314.7999267578125
 20
194.2000274658203
 30
0.0
 10
314.9999389648438
 20
187.6000213623047
 30
0.0
 10
315.0999450683594
 20
183.8000183105469
 30
0.0
 10
315.199951171875
 20
180.0000152587891
 30
0.0
 10
315.2999267578125
 20
176.2000274658203
 30
0.0
 10
315.2999267578125
 20
174.5000305175781
 30
0.0
 10
315.4999389648438
 20
172.9000244140625
 30
0.0
 10
316.0999145507812
 20
171.3000183105469
 30
0.0
 10
316.39990234375
 20
170.4000244140625
 30
0.0
 10
316.7999267578125
 20
169.5000305175781
 30
0.0
 10
317.39990234375
 20
168.8000183105469
 30
0.0
 10
317.9999084472656
 20
168.2000122070312
 30
0.0
 10
318.2998962402344
 20
168.1000061035156
 30
0.0
 10
318.9999084472656
 20
168.7000122070312
 30
0.0
 10
319.4999084472656
 20
169.1000061035156
 30
0.0
 10
319.89990234375
 20
169.6000061035156
 30
0.0
 10
320.1999206542969
 20
170.1000061035156
 30
0.0
 10
320.9999084472656
 20
171.2000122070312
 30
0.0
 10
321.5999145507812
 20
172.5
 30
0.0
 10
322.2999267578125
 20
173.7000122070312
 30
0.0
 10
324.3999328613281
 20
177.8000183105469
 30
0.0
 10
325.8999328613281
 20
182.1000061035156
 30
0.0
 10
327.5999145507812
 20
186.4000091552734
 30
0.0
 10
328.1999206542969
 20
188.0000152587891
 30
0.0
 10
328.2999267578125
 20
189.5000152587891
 30
0.0
 10
327.89990234375
 20
191.1000061035156
 30
0.0
 10
327.1998901367188
 20
193.9000091552734
 30
0.0
 10
326.9999084472656
 20
196.9000091552734
 30
0.0
 10
326.89990234375
 20
199.8000030517578
 30
0.0
 10
326.4999084472656
 20
207.1000061035156
 30
0.0
 10
326.9999084472656
 20
214.3000030517578
 30
0.0
 10
328.7998962402344
 20
221.4000091552734
 30
0.0
 10
329.1998901367188
 20
223.1000061035156
 30
0.0
 10
329.6998901367188
 20
224.8000030517578
 30
0.0
 10
330.39990234375
 20
226.4000091552734
 30
0.0
 10
331.0999145507812
 20
228.3000030517578
 30
0.0
 10
332.2998962402344
 20
229.8000030517578
 30
0.0
 10
333.7998962402344
 20
231.1000061035156
 30
0.0
 10
335.0998840332031
 20
232.2000122070312
 30
0.0
 10
336.89990234375
 20
231.9000091552734
 30
0.0
 10
337.89990234375
 20
231.1000061035156
 30
0.0
 10
338.4999084472656
 20
230.6000061035156
 30
0.0
 10
338.6998901367188
 20
230.0
 30
0.0
 10
338.89990234375
 20
229.3000030517578
 30
0.0
 10
339.39990234375
 20
227.1000061035156
 30
0.0
 10
339.2998962402344
 20
224.8000030517578
 30
0.0
 10
338.9999084472656
 20
222.6000061035156
 30
0.0
 10
338.39990234375
 20
218.4000091552734
 30
0.0
 10
337.89990234375
 20
214.1000061035156
 30
0.0
 10
337.5999145507812
 20
209.9000091552734
 30
0.0
 10
337.2999267578125
 20
204.5000152587891
 30
0.0
 10
337.4999084472656
 20
199.0000152587891
 30
0.0
 10
338.2999267578125
 20
193.6000061035156
 30
0.0
 10
338.2999267578125
 20
193.5
 30
0.0
 10
338.2999267578125
 20
193.4000091552734
 30
0.0
 10
338.5999145507812
 20
193.3000030517578
 30
0.0
 10
338.6999206542969
 20
193.9000091552734
 30
0.0
 10
338.7999267578125
 20
194.4000091552734
 30
0.0
 10
338.89990234375
 20
195.0
 30
0.0
 10
340.39990234375
 20
204.1000061035156
 30
0.0
 10
343.1998901367188
 20
212.8000030517578
 30
0.0
 10
347.6998901367188
 20
221.0
 30
0.0
 10
349.4998779296875
 20
224.3000030517578
 30
0.0
 10
351.5998840332031
 20
227.5
 30
0.0
 10
354.2998962402344
 20
230.1999969482422
 30
0.0
 10
355.4999084472656
 20
231.3999938964844
 30
0.0
 10
356.89990234375
 20
232.3999938964844
 30
0.0
 10
358.4999084472656
 20
232.8999938964844
 30
0.0
 10
360.39990234375
 20
233.5
 30
0.0
 10
362.2998962402344
 20
233.3999938964844
 30
0.0
 10
364.0999145507812
 20
232.5
 30
0.0
 10
366.1999206542969
 20
231.5
 30
0.0
 10
367.5999145507812
 20
229.8999938964844
 30
0.0
 10
368.5999145507812
 20
227.8000030517578
 30
0.0
 10
369.39990234375
 20
226.1000061035156
 30
0.0
 10
369.7999267578125
 20
224.1999969482422
 30
0.0
 10
369.9999084472656
 20
222.3000030517578
 30
0.0
 10
370.39990234375
 20
218.6000061035156
 30
0.0
 10
370.0999145507812
 20
214.9000091552734
 30
0.0
 10
369.6999206542969
 20
211.1999969482422
 30
0.0
 10
369.0999145507812
 20
205.0
 30
0.0
 10
368.4999084472656
 20
198.8999938964844
 30
0.0
 10
367.7999267578125
 20
192.6999969482422
 30
0.0
 10
367.3999328613281
 20
189.0999908447266
 30
0.0
 10
366.8999328613281
 20
185.5
 30
0.0
 10
366.5999145507812
 20
181.8999938964844
 30
0.0
 10
366.1999206542969
 20
178.0999908447266
 30
0.0
 10
365.9999084472656
 20
174.2999877929688
 30
0.0
 10
366.2999267578125
 20
170.5
 30
0.0
 10
366.3999328613281
 20
169.1000061035156
 30
0.0
 10
366.6999206542969
 20
167.7999877929688
 30
0.0
 10
367.2999267578125
 20
166.5
 30
0.0
 10
367.7999267578125
 20
166.7999877929688
 30
0.0
 10
368.1999206542969
 20
167.2000122070312
 30
0.0
 10
368.4999389648438
 20
167.6000061035156
 30
0.0
 10
369.2999267578125
 20
168.6000061035156
 30
0.0
 10
369.8999328613281
 20
169.7000122070312
 30
0.0
 10
370.4999389648438
 20
170.8000183105469
 30
0.0
 10
371.7999267578125
 20
173.1000061035156
 30
0.0
 10
372.9999389648438
 20
175.4000244140625
 30
0.0
 10
374.2999267578125
 20
177.6000213623047
 30
0.0
 10
374.4999389648438
 20
178.0000152587891
 30
0.0
 10
374.6999206542969
 20
178.4000244140625
 30
0.0
 10
374.9999389648438
 20
178.8000183105469
 30
0.0
 10
375.4999389648438
 20
179.5000152587891
 30
0.0
 10
376.3999328613281
 20
179.8000183105469
 30
0.0
 10
377.199951171875
 20
179.6000213623047
 30
0.0
 10
377.8999633789062
 20
179.4000244140625
 30
0.0
 10
378.199951171875
 20
178.9000244140625
 30
0.0
 10
378.0999450683594
 20
178.2000274658203
 30
0.0
 10
378.0999450683594
 20
177.9000244140625
 30
0.0
 10
377.9999389648438
 20
177.6000213623047
 30
0.0
 10
377.8999328613281
 20
177.3000335693359
 30
0.0
 10
376.3999328613281
 20
173.7000427246094
 30
0.0
 10
374.8999328613281
 20
170.1000366210938
 30
0.0
 10
372.6999206542969
 20
166.9000244140625
 30
0.0
 10
371.9999084472656
 20
165.9000244140625
 30
0.0
 10
371.2999267578125
 20
165.0000305175781
 30
0.0
 10
370.3999328613281
 20
164.3000183105469
 30
0.0
 10
369.1999206542969
 20
163.4000244140625
 30
0.0
 10
367.8999328613281
 20
162.8000183105469
 30
0.0
 10
366.3999328613281
 20
162.8000183105469
 30
0.0
 10
364.9999389648438
 20
162.8000183105469
 30
0.0
 10
363.7999267578125
 20
163.3000183105469
 30
0.0
 10
362.8999328613281
 20
164.4000244140625
 30
0.0
 10
362.3999328613281
 20
165.0000305175781
 30
0.0
 10
361.9999389648438
 20
165.6000366210938
 30
0.0
 10
361.5999450683594
 20
166.3000183105469
 30
0.0
 10
359.5999450683594
 20
169.7000122070312
 30
0.0
 10
358.2999572753906
 20
173.4000244140625
 30
0.0
 10
357.699951171875
 20
177.4000244140625
 30
0.0
 10
356.8999633789062
 20
183.0000305175781
 30
0.0
 10
356.7999572753906
 20
188.6000213623047
 30
0.0
 10
357.2999572753906
 20
194.2000274658203
 30
0.0
 10
357.8999633789062
 20
200.8000335693359
 30
0.0
 10
358.699951171875
 20
207.3000335693359
 30
0.0
 10
359.3999633789062
 20
213.9000244140625
 30
0.0
 10
359.7999572753906
 20
218.0000305175781
 30
0.0
 10
360.2999572753906
 20
222.1000213623047
 30
0.0
 10
360.0999755859375
 20
226.2000274658203
 30
0.0
 10
359.9999694824219
 20
228.0000305175781
 30
0.0
 10
359.9999694824219
 20
228.0000305175781
 30
0.0
 10
358.4999694824219
 20
227.0000305175781
 30
0.0
 10
357.1999816894531
 20
226.2000274658203
 30
0.0
 10
356.0999755859375
 20
225.2000274658203
 30
0.0
 10
355.0999755859375
 20
224.1000366210938
 30
0.0
 10
353.3999633789062
 20
222.2000427246094
 30
0.0
 10
351.8999633789062
 20
220.1000366210938
 30
0.0
 10
350.6999816894531
 20
217.8000335693359
 30
0.0
 10
346.9999694824219
 20
211.1000366210938
 30
0.0
 10
344.6999816894531
 20
204.0000305175781
 30
0.0
 10
343.2999877929688
 20
196.5000305175781
 30
0.0
 10
342.3999938964844
 20
191.4000244140625
 30
0.0
 10
342.0999755859375
 20
186.3000335693359
 30
0.0
 10
341.8999938964844
 20
181.2000274658203
 30
0.0
 10
341.8999938964844
 20
180.5000305175781
 30
0.0
 10
341.8999938964844
 20
179.7000274658203
 30
0.0
 10
341.7999877929688
 20
179.0000305175781
 30
0.0
 10
341.5999755859375
 20
177.9000244140625
 30
0.0
 10
341.0
 20
177.2000274658203
 30
0.0
 10
340.0
 20
176.7000274658203
 30
0.0
 10
338.3999938964844
 20
176.0000305175781
 30
0.0
 10
336.7999877929688
 20
176.2000274658203
 30
0.0
 10
335.2999877929688
 20
177.2000274658203
 30
0.0
 10
334.5
 20
177.7000274658203
 30
0.0
 10
333.8999938964844
 20
178.3000335693359
 30
0.0
 10
333.3999938964844
 20
179.0000305175781
 30
0.0
 10
332.3999938964844
 20
180.2000274658203
 30
0.0
 10
331.6000061035156
 20
181.5000305175781
 30
0.0
 10
330.8999938964844
 20
182.8000335693359
 30
0.0
 10
330.7999877929688
 20
183.1000366210938
 30
0.0
 10
330.6999816894531
 20
183.4000396728516
 30
0.0
 10
330.2999877929688
 20
183.6000366210938
 30
0.0
 10
330.1999816894531
 20
183.3000335693359
 30
0.0
 10
330.0999755859375
 20
183.0000305175781
 30
0.0
 10
329.8999938964844
 20
182.7000427246094
 30
0.0
 10
328.6999816894531
 20
179.5000457763672
 30
0.0
 10
327.6999816894531
 20
176.2000427246094
 30
0.0
 10
326.1999816894531
 20
173.0000305175781
 30
0.0
 10
325.4999694824219
 20
171.4000244140625
 30
0.0
 10
324.6999816894531
 20
169.8000183105469
 30
0.0
 10
323.6999816894531
 20
168.4000244140625
 30
0.0
 10
322.6999816894531
 20
166.9000244140625
 30
0.0
 10
321.3999938964844
 20
165.7000122070312
 30
0.0
 10
319.6999816894531
 20
165.0000305175781
 30
0.0
 10
316.9999694824219
 20
163.9000244140625
 30
0.0
 10
314.4999694824219
 20
164.2000427246094
 30
0.0
 10
312.2999877929688
 20
166.2000427246094
 30
0.0
 10
311.2999877929688
 20
167.1000366210938
 30
0.0
 10
310.5
 20
168.1000366210938
 30
0.0
 10
309.7999877929688
 20
169.2000427246094
 30
0.0
 10
307.6999816894531
 20
172.2000427246094
 30
0.0
 10
306.1999816894531
 20
175.5000305175781
 30
0.0
 10
305.3999938964844
 20
179.1000366210938
 30
0.0
 10
304.7999877929688
 20
181.5000305175781
 30
0.0
 10
304.5
 20
183.8000335693359
 30
0.0
 10
304.5
 20
186.3000335693359
 30
0.0
 10
304.2000122070312
 20
194.7000274658203
 30
0.0
 10
305.0
 20
202.9000396728516
 30
0.0
 10
306.2999877929688
 20
211.2000274658203
 30
0.0
 10
307.2999877929688
 20
217.2000274658203
 30
0.0
 10
308.7999877929688
 20
223.2000274658203
 30
0.0
 10
310.1999816894531
 20
229.1000213623047
 30
0.0
 10
310.4999694824219
 20
230.4000244140625
 30
0.0
 10
310.4999694824219
 20
230.4000244140625
 30
0.0
 10
309.1999816894531
 20
230.6000213623047
 30
0.0
 10
307.7999877929688
 20
230.8000183105469
 30
0.0
 10
306.3999938964844
 20
231.0000152587891
 30
0.0
 10
304.8999938964844
 20
231.1000213623047
 30
0.0
 10
304.1999816894531
 20
231.2000274658203
 30
0.0
 10
304.1999816894531
 20
231.2000274658203
 30
0.0
 10
304.1999816894531
 20
230.5000152587891
 30
0.0
 10
304.2999877929688
 20
228.5000152587891
 30
0.0
 10
304.3999938964844
 20
226.5000152587891
 30
0.0
 10
304.2999877929688
 20
224.4000091552734
 30
0.0
 10
304.0
 20
215.6000061035156
 30
0.0
 10
302.6999816894531
 20
207.0000152587891
 30
0.0
 10
299.8999938964844
 20
198.7000122070312
 30
0.0
 10
298.6999816894531
 20
195.0000152587891
 30
0.0
 10
297.1000061035156
 20
191.5000152587891
 30
0.0
 10
295.0
 20
188.2000122070312
 30
0.0
 10
293.3999938964844
 20
185.6000061035156
 30
0.0
 10
291.5
 20
183.2000122070312
 30
0.0
 10
289.2000122070312
 20
181.1000061035156
 30
0.0
 10
286.4000244140625
 20
178.6000061035156
 30
0.0
 10
283.1000061035156
 20
177.2000122070312
 30
0.0
 10
279.4000244140625
 20
177.1000061035156
 30
0.0
 10
275.0000305175781
 20
176.9000091552734
 30
0.0
 10
271.2000122070312
 20
178.5
 30
0.0
 10
268.0000305175781
 20
181.6000061035156
 30
0.0
 10
267.1000366210938
 20
182.5
 30
0.0
 10
266.3000183105469
 20
183.4000091552734
 30
0.0
 10
265.6000366210938
 20
184.4000091552734
 30
0.0
 10
265.4000244140625
 20
184.6000061035156
 30
0.0
 10
265.300048828125
 20
184.9000091552734
 30
0.0
 10
265.0000305175781
 20
185.1000061035156
 30
0.0
 10
264.7000427246094
 20
184.9000091552734
 30
0.0
 10
264.8000183105469
 20
184.5
 30
0.0
 10
264.7000427246094
 20
184.2000122070312
 30
0.0
 10
263.7000427246094
 20
177.4000091552734
 30
0.0
 10
262.5000305175781
 20
170.6000061035156
 30
0.0
 10
260.800048828125
 20
164.0
 30
0.0
 10
260.4000549316406
 20
162.5
 30
0.0
 10
260.0000610351562
 20
161.0
 30
0.0
 10
259.4000549316406
 20
159.5
 30
0.0
 10
258.800048828125
 20
158.0
 30
0.0
 10
257.9000549316406
 20
156.6000061035156
 30
0.0
 10
256.7000427246094
 20
155.5
 30
0.0
 10
254.1000366210938
 20
153.2000122070312
 30
0.0
 10
250.800048828125
 20
153.0
 30
0.0
 10
248.0000457763672
 20
155.1000061035156
 30
0.0
 10
246.800048828125
 20
156.0
 30
0.0
 10
245.800048828125
 20
157.2000122070312
 30
0.0
 10
245.0000457763672
 20
158.5
 30
0.0
 10
243.2000427246094
 20
161.3999938964844
 30
0.0
 10
242.2000427246094
 20
164.6000061035156
 30
0.0
 10
241.300048828125
 20
167.7999877929688
 30
0.0
 10
239.800048828125
 20
173.5
 30
0.0
 10
239.5000457763672
 20
179.1999816894531
 30
0.0
 10
240.2000427246094
 20
184.9999847412109
 30
0.0
 10
240.9000396728516
 20
190.5999908447266
 30
0.0
 10
241.800048828125
 20
196.0999908447266
 30
0.0
 10
242.7000427246094
 20
201.6999816894531
 30
0.0
 10
243.4000396728516
 20
205.7999877929688
 30
0.0
 10
244.0000457763672
 20
209.9999847412109
 30
0.0
 10
244.300048828125
 20
214.1999816894531
 30
0.0
 10
244.300048828125
 20
214.9999847412109
 30
0.0
 10
244.300048828125
 20
215.7999877929688
 30
0.0
 10
244.2000427246094
 20
216.4999847412109
 30
0.0
 10
244.2000427246094
 20
216.8999786376953
 30
0.0
 10
244.0000457763672
 20
216.9999847412109
 30
0.0
 10
243.6000366210938
 20
216.8999786376953
 30
0.0
 10
243.1000366210938
 20
216.6999816894531
 30
0.0
 10
242.6000366210938
 20
216.3999786376953
 30
0.0
 10
242.1000366210938
 20
216.0999755859375
 30
0.0
 10
240.5000305175781
 20
215.0999755859375
 30
0.0
 10
239.0000305175781
 20
213.7999725341797
 30
0.0
 10
237.7000427246094
 20
212.3999786376953
 30
0.0
 10
233.1000366210938
 20
207.4999847412109
 30
0.0
 10
230.1000366210938
 20
201.5999755859375
 30
0.0
 10
228.300048828125
 20
195.1999816894531
 30
0.0
 10
227.800048828125
 20
193.4999847412109
 30
0.0
 10
227.5000457763672
 20
191.7999877929688
 30
0.0
 10
227.2000427246094
 20
190.0999755859375
 30
0.0
 10
227.1000366210938
 20
189.2999725341797
 30
0.0
 10
227.0000457763672
 20
188.5999755859375
 30
0.0
 10
227.1000366210938
 20
187.7999725341797
 30
0.0
 10
227.3000335693359
 20
185.9999694824219
 30
0.0
 10
227.5000305175781
 20
184.1999664306641
 30
0.0
 10
227.6000366210938
 20
182.4999694824219
 30
0.0
 10
227.6000366210938
 20
181.9999694824219
 30
0.0
 10
227.7000427246094
 20
181.4999694824219
 30
0.0
 10
227.6000366210938
 20
180.8999633789062
 30
0.0
 10
227.6000366210938
 20
179.9999694824219
 30
0.0
 10
227.1000366210938
 20
179.3999633789062
 30
0.0
 10
226.4000396728516
 20
179.0999603271484
 30
0.0
 10
225.1000366210938
 20
178.3999633789062
 30
0.0
 10
223.4000396728516
 20
178.6999664306641
 30
0.0
 10
222.4000396728516
 20
179.7999572753906
 30
0.0
 10
221.7000427246094
 20
180.5999603271484
 30
0.0
 10
221.1000366210938
 20
181.4999542236328
 30
0.0
 10
220.6000366210938
 20
182.3999633789062
 30
0.0
 10
219.8000335693359
 20
183.8999633789062
 30
0.0
 10
219.0000305175781
 20
185.3999633789062
 30
0.0
 10
218.2000427246094
 20
186.8999633789062
 30
0.0
 10
217.5000457763672
 20
188.3999633789062
 30
0.0
 10
216.800048828125
 20
189.8999633789062
 30
0.0
 10
216.300048828125
 20
191.4999694824219
 30
0.0
 10
215.9000549316406
 20
191.2999725341797
 30
0.0
 10
216.0000457763672
 20
190.9999694824219
 30
0.0
 10
216.0000457763672
 20
190.6999664306641
 30
0.0
 10
215.5000457763672
 20
187.2999725341797
 30
0.0
 10
215.1000518798828
 20
183.8999633789062
 30
0.0
 10
214.2000427246094
 20
180.5999603271484
 30
0.0
 10
213.6000366210938
 20
178.3999633789062
 30
0.0
 10
213.0000457763672
 20
176.2999572753906
 30
0.0
 10
212.1000366210938
 20
174.199951171875
 30
0.0
 10
211.7000427246094
 20
173.2999572753906
 30
0.0
 10
211.2000427246094
 20
172.4999389648438
 30
0.0
 10
210.6000366210938
 20
171.699951171875
 30
0.0
 10
208.0000305175781
 20
168.3999633789062
 30
0.0
 10
203.3000335693359
 20
167.5999450683594
 30
0.0
 10
199.7000427246094
 20
169.7999572753906
 30
0.0
 10
197.300048828125
 20
171.2999572753906
 30
0.0
 10
195.6000366210938
 20
173.4999694824219
 30
0.0
 10
194.1000366210938
 20
175.7999572753906
 30
0.0
 10
191.5000305175781
 20
180.0999603271484
 30
0.0
 10
189.6000366210938
 20
184.7999572753906
 30
0.0
 10
188.3000335693359
 20
189.5999603271484
 30
0.0
 10
187.0000305175781
 20
194.0999603271484
 30
0.0
 10
186.2000274658203
 20
198.6999664306641
 30
0.0
 10
185.6000366210938
 20
203.2999572753906
 30
0.0
 10
185.2000427246094
 20
205.8999633789062
 30
0.0
 10
184.9000396728516
 20
208.4999542236328
 30
0.0
 10
184.6000366210938
 20
211.0999603271484
 30
0.0
 10
184.6000366210938
 20
211.1999664306641
 30
0.0
 10
184.6000366210938
 20
211.3999633789062
 30
0.0
 10
184.5000305175781
 20
211.3999633789062
 30
0.0
 10
184.2000274658203
 20
211.1999664306641
 30
0.0
 10
184.3000335693359
 20
210.8999633789062
 30
0.0
 10
184.2000274658203
 20
210.6999664306641
 30
0.0
 10
182.8000335693359
 20
202.8999633789062
 30
0.0
 10
181.6000213623047
 20
195.0999603271484
 30
0.0
 10
180.3000335693359
 20
187.2999725341797
 30
0.0
 10
179.6000366210938
 20
182.9999694824219
 30
0.0
 10
178.8000335693359
 20
178.5999755859375
 30
0.0
 10
177.6000366210938
 20
174.3999633789062
 30
0.0
 10
177.1000366210938
 20
172.7999572753906
 30
0.0
 10
176.6000366210938
 20
171.199951171875
 30
0.0
 10
175.8000335693359
 20
169.7999572753906
 30
0.0
 10
174.7000274658203
 20
167.8999633789062
 30
0.0
 10
173.1000366210938
 20
166.699951171875
 30
0.0
 10
171.0000305175781
 20
166.199951171875
 30
0.0
 10
168.7000274658203
 20
165.699951171875
 30
0.0
 10
166.6000366210938
 20
166.2999572753906
 30
0.0
 10
164.8000335693359
 20
167.7999572753906
 30
0.0
 10
163.1000366210938
 20
169.199951171875
 30
0.0
 10
162.0000305175781
 20
170.9999694824219
 30
0.0
 10
161.0000305175781
 20
172.9999694824219
 30
0.0
 10
159.6000366210938
 20
176.0999755859375
 30
0.0
 10
158.9000244140625
 20
179.2999725341797
 30
0.0
 10
158.6000366210938
 20
182.5999755859375
 30
0.0
 10
158.0000305175781
 20
188.8999786376953
 30
0.0
 10
158.2000427246094
 20
195.1999816894531
 30
0.0
 10
158.7000427246094
 20
201.4999694824219
 30
0.0
 10
158.800048828125
 20
202.3999633789062
 30
0.0
 10
158.9000396728516
 20
203.3999633789062
 30
0.0
 10
158.9000396728516
 20
204.2999725341797
 30
0.0
 10
158.9000396728516
 20
204.5999755859375
 30
0.0
 10
159.0000457763672
 20
204.8999786376953
 30
0.0
 10
158.8000335693359
 20
205.1999664306641
 30
0.0
 10
158.5000305175781
 20
204.8999633789062
 30
0.0
 10
158.5000305175781
 20
204.4999694824219
 30
0.0
 10
158.3000335693359
 20
204.0999603271484
 30
0.0
 10
157.2000274658203
 20
201.1999664306641
 30
0.0
 10
156.2000274658203
 20
198.2999572753906
 30
0.0
 10
154.9000396728516
 20
195.5999603271484
 30
0.0
 10
154.3000335693359
 20
194.2999572753906
 30
0.0
 10
153.6000366210938
 20
192.9999542236328
 30
0.0
 10
152.7000427246094
 20
191.7999572753906
 30
0.0
 10
151.4000396728516
 20
190.199951171875
 30
0.0
 10
149.7000427246094
 20
189.0999603271484
 30
0.0
 10
147.6000366210938
 20
188.8999633789062
 30
0.0
 10
145.9000396728516
 20
188.7999572753906
 30
0.0
 10
144.4000396728516
 20
189.1999664306641
 30
0.0
 10
143.0000305175781
 20
189.9999694824219
 30
0.0
 10
141.0000305175781
 20
191.1999664306641
 30
0.0
 10
139.6000366210938
 20
192.8999633789062
 30
0.0
 10
138.3000335693359
 20
194.6999664306641
 30
0.0
 10
136.1000366210938
 20
197.8999633789062
 30
0.0
 10
134.8000335693359
 20
201.5999603271484
 30
0.0
 10
133.9000396728516
 20
205.3999633789062
 30
0.0
 10
133.0000457763672
 20
209.5999603271484
 30
0.0
 10
132.3000335693359
 20
213.7999572753906
 30
0.0
 10
132.1000366210938
 20
217.9999694824219
 30
0.0
 10
132.1000366210938
 20
218.2999725341797
 30
0.0
 10
132.3000335693359
 20
218.7999725341797
 30
0.0
 10
131.6000366210938
 20
218.6999664306641
 30
0.0
 10
130.8000335693359
 20
218.5999603271484
 30
0.0
 10
130.6000366210938
 20
218.4999694824219
 30
0.0
 10
130.6000366210938
 20
217.7999725341797
 30
0.0
 10
130.6000366210938
 20
214.5999755859375
 30
0.0
 10
130.5000305175781
 20
211.4999694824219
 30
0.0
 10
129.9000396728516
 20
208.3999786376953
 30
0.0
 10
129.3000335693359
 20
205.1999816894531
 30
0.0
 10
128.3000335693359
 20
202.1999816894531
 30
0.0
 10
126.8000411987305
 20
199.2999725341797
 30
0.0
 10
125.9000396728516
 20
197.5999755859375
 30
0.0
 10
124.9000396728516
 20
195.9999694824219
 30
0.0
 10
123.5000381469727
 20
194.6999664306641
 30
0.0
 10
119.7000350952148
 20
191.1999664306641
 30
0.0
 10
115.4000396728516
 20
189.8999633789062
 30
0.0
 10
110.4000396728516
 20
191.3999633789062
 30
0.0
 10
107.5000381469727
 20
192.2999572753906
 30
0.0
 10
105.2000427246094
 20
194.0999603271484
 30
0.0
 10
103.7000427246094
 20
196.6999664306641
 30
0.0
 10
102.5000457763672
 20
198.6999664306641
 30
0.0
 10
101.7000427246094
 20
200.7999725341797
 30
0.0
 10
101.0000457763672
 20
202.9999694824219
 30
0.0
 10
99.70004272460938
 20
207.3999633789062
 30
0.0
 10
98.9000473022461
 20
211.8999633789062
 30
0.0
 10
98.70004272460938
 20
216.3999633789062
 30
0.0
 10
98.70004272460938
 20
216.6999664306641
 30
0.0
 10
98.70004272460938
 20
216.8999633789062
 30
0.0
 10
98.60004425048828
 20
217.1999664306641
 30
0.0
 10
98.30004119873047
 20
217.2999725341797
 30
0.0
 10
98.20004272460938
 20
217.0999603271484
 30
0.0
 10
98.00004577636719
 20
216.8999633789062
 30
0.0
 10
94.20004272460938
 20
213.5999603271484
 30
0.0
 10
90.4000473022461
 20
210.2999572753906
 30
0.0
 10
86.70004272460938
 20
206.8999633789062
 30
0.0
 10
86.60004425048828
 20
206.7999572753906
 30
0.0
 10
86.50004577636719
 20
206.6999664306641
 30
0.0
 10
86.30004119873047
 20
206.5999603271484
 30
0.0
 10
86.10004425048828
 20
206.3999633789062
 30
0.0
 10
86.00003814697266
 20
206.1999664306641
 30
0.0
 10
86.20004272460938
 20
205.8999633789062
 30
0.0
 10
86.40003967285156
 20
205.6999664306641
 30
0.0
 10
86.50004577636719
 20
205.3999633789062
 30
0.0
 10
86.70004272460938
 20
205.1999664306641
 30
0.0
 10
90.00004577636719
 20
200.3999633789062
 30
0.0
 10
93.00004577636719
 20
195.4999694824219
 30
0.0
 10
95.30004119873047
 20
190.0999603271484
 30
0.0
 10
97.10004425048828
 20
185.8999633789062
 30
0.0
 10
98.30004119873047
 20
181.4999542236328
 30
0.0
 10
98.30004119873047
 20
176.9999542236328
 30
0.0
 10
98.20004272460938
 20
169.199951171875
 30
0.0
 10
95.00003814697266
 20
162.8999633789062
 30
0.0
 10
88.10004425048828
 20
159.0999450683594
 30
0.0
 10
81.30004119873047
 20
155.2999572753906
 30
0.0
 10
74.20004272460938
 20
155.2999572753906
 30
0.0
 10
67.50004577636719
 20
159.699951171875
 30
0.0
 10
62.00004577636719
 20
163.3999633789062
 30
0.0
 10
59.10004425048828
 20
168.699951171875
 30
0.0
 10
59.30004501342773
 20
175.3999633789062
 30
0.0
 10
59.40004348754883
 20
178.1999664306641
 30
0.0
 10
60.20004653930664
 20
180.7999572753906
 30
0.0
 10
61.30004501342773
 20
183.2999572753906
 30
0.0
 10
62.50004577636719
 20
185.7999572753906
 30
0.0
 10
63.90004348754883
 20
188.199951171875
 30
0.0
 10
65.60004425048828
 20
190.3999633789062
 30
0.0
 10
68.10004425048828
 20
193.6999664306641
 30
0.0
 10
70.80004119873047
 20
196.7999572753906
 30
0.0
 10
73.70004272460938
 20
199.6999664306641
 30
0.0
 10
74.30004119873047
 20
200.2999725341797
 30
0.0
 10
74.90003967285156
 20
200.8999633789062
 30
0.0
 10
75.50004577636719
 20
201.4999694824219
 30
0.0
 10
76.300048828125
 20
202.2999725341797
 30
0.0
 10
76.20004272460938
 20
202.1999664306641
 30
0.0
 10
75.70004272460938
 20
202.9999694824219
 30
0.0
 10
73.10004425048828
 20
206.8999633789062
 30
0.0
 10
70.30004119873047
 20
210.6999664306641
 30
0.0
 10
67.60004425048828
 20
214.4999694824219
 30
0.0
 10
64.70004272460938
 20
218.5999755859375
 30
0.0
 10
61.90004348754883
 20
222.6999664306641
 30
0.0
 10
59.60004425048828
 20
227.0999755859375
 30
0.0
 10
57.00004577636719
 20
231.9999694824219
 30
0.0
 10
55.10004425048828
 20
237.1999816894531
 30
0.0
 10
54.30004501342773
 20
242.6999816894531
 30
0.0
 10
53.30004501342773
 20
249.4999847412109
 30
0.0
 10
54.00004577636719
 20
256.1999816894531
 30
0.0
 10
57.20004653930664
 20
262.3999786376953
 30
0.0
 10
59.00004577636719
 20
265.9999847412109
 30
0.0
 10
61.60004806518555
 20
268.9999847412109
 30
0.0
 10
64.9000473022461
 20
271.2999725341797
 30
0.0
 10
72.60004425048828
 20
276.3999786376953
 30
0.0
 10
82.10005187988281
 20
275.4999694824219
 30
0.0
 10
88.70004272460938
 20
268.9999694824219
 30
0.0
 10
92.20004272460938
 20
265.4999694824219
 30
0.0
 10
94.20004272460938
 20
261.2999725341797
 30
0.0
 10
95.00004577636719
 20
256.3999633789062
 30
0.0
 10
95.20004272460938
 20
254.8999633789062
 30
0.0
 10
95.4000473022461
 20
253.3999633789062
 30
0.0
 10
95.4000473022461
 20
251.8999633789062
 30
0.0
 10
95.5
 20
252.5
 30
0.0
 10
95.5
 20
252.3000030517578
 30
0.0
 10
95.5999984741211
 20
252.0
 30
0.0
  0
SPLINE
  5
42
330
1F
100
AcDbEntity
  8
Calque 1
370
     0
100
AcDbSpline
210
0.0
220
0.0
230
1.0
 70
    11
 71
     3
 72
   191
 73
   187
 74
     0
 42
0.0000000001
 43
0.0000000001
 12
1.0
 22
0.0
 32
0.0
 13
1.0
 23
0.0
 33
0.0
 40
0.0
 40
0.0
 40
0.0
 40
0.0
 40
1.0
 40
1.0
 40
1.0
 40
2.0
 40
2.0
 40
2.0
 40
3.0
 40
3.0
 40
3.0
 40
4.0
 40
4.0
 40
4.0
 40
5.0
 40
5.0
 40
5.0
 40
6.0
 40
6.0
 40
6.0
 40
7.0
 40
7.0
 40
7.0
 40
8.0
 40
8.0
 40
8.0
 40
9.0
 40
9.0
 40
9.0
 40
10.0
 40
10.0
 40
10.0
 40
11.0
 40
11.0
 40
11.0
 40
12.0
 40
12.0
 40
12.0
 40
13.0
 40
13.0
 40
13.0
 40
14.0
 40
14.0
 40
14.0
 40
15.0
 40
15.0
 40
15.0
 40
16.0
 40
16.0
 40
16.0
 40
17.0
 40
17.0
 40
17.0
 40
18.0
 40
18.0
 40
18.0
 40
19.0
 40
19.0
 40
19.0
 40
20.0
 40
20.0
 40
20.0
 40
21.0
 40
21.0
 40
21.0
 40
22.0
 40
22.0
 40
22.0
 40
23.0
 40
23.0
 40
23.0
 40
24.0
 40
24.0
 40
24.0
 40
25.0
 40
25.0
 40
25.0
 40
26.0
 40
26.0
 40
26.0
 40
27.0
 40
27.0
 40
27.0
 40
28.0
 40
28.0
 40
28.0
 40
29.0
 40
29.0
 40
29.0
 40
30.0
 40
30.0
 40
30.0
 40
31.0
 40
31.0
 40
31.0
 40
32.0
 40
32.0
 40
32.0
 40
33.0
 40
33.0
 40
33.0
 40
34.0
 40
34.0
 40
34.0
 40
35.0
 40
35.0
 40
35.0
 40
36.0
 40
36.0
 40
36.0
 40
37.0
 40
37.0
 40
37.0
 40
38.0
 40
38.0
 40
38.0
 40
39.0
 40
39.0
 40
39.0
 40
40.0
 40
40.0
 40
40.0
 40
41.0
 40
41.0
 40
41.0
 40
42.0
 40
42.0
 40
42.0
 40
43.0
 40
43.0
 40
43.0
 40
44.0
 40
44.0
 40
44.0
 40
45.0
 40
45.0
 40
45.0
 40
46.0
 40
46.0
 40
46.0
 40
47.0
 40
47.0
 40
47.0
 40
48.0
 40
48.0
 40
48.0
 40
49.0
 40
49.0
 40
49.0
 40
50.0
 40
50.0
 40
50.0
 40
51.0
 40
51.0
 40
51.0
 40
52.0
 40
52.0
 40
52.0
 40
53.0
 40
53.0
 40
53.0
 40
54.0
 40
54.0
 40
54.0
 40
55.0
 40
55.0
 40
55.0
 40
56.0
 40
56.0
 40
56.0
 40
57.0
 40
57.0
 40
57.0
 40
58.0
 40
58.0
 40
58.0
 40
59.0
 40
59.0
 40
59.0
 40
60.0
 40
60.0
 40
60.0
 40
61.0
 40
61.0
 40
61.0
 40
62.0
 40
62.0
 40
62.0
 40
62.0
 10
168.8000030517578
 20
193.5
 30
0.0
 10
168.8000030517578
 20
191.3999938964844
 30
0.0
 10
168.8000030517578
 20
189.6000061035156
 30
0.0
 10
168.9000091552734
 20
187.8000030517578
 30
0.0
 10
169.2000122070312
 20
184.1000061035156
 30
0.0
 10
169.5000152587891
 20
180.3000030517578
 30
0.0
 10
169.8000030517578
 20
176.6000061035156
 30
0.0
 10
169.9000091552734
 20
175.6000061035156
 30
0.0
 10
170.0
 20
174.7000122070312
 30
0.0
 10
170.1999969482422
 20
173.7000122070312
 30
0.0
 10
170.3000030517578
 20
173.1000061035156
 30
0.0
 10
170.5
 20
172.4000244140625
 30
0.0
 10
170.8999938964844
 20
171.9000244140625
 30
0.0
 10
171.2999877929688
 20
171.3000183105469
 30
0.0
 10
171.3999938964844
 20
171.3000183105469
 30
0.0
 10
171.7999877929688
 20
171.9000244140625
 30
0.0
 10
172.1999816894531
 20
172.6000366210938
 30
0.0
 10
172.4999847412109
 20
173.3000183105469
 30
0.0
 10
172.6999816894531
 20
174.0000305175781
 30
0.0
 10
173.2999877929688
 20
175.7000427246094
 30
0.0
 10
173.6999816894531
 20
177.4000244140625
 30
0.0
 10
174.0999755859375
 20
179.1000366210938
 30
0.0
 10
175.5999755859375
 20
186.1000366210938
 30
0.0
 10
176.7999725341797
 20
193.1000366210938
 30
0.0
 10
178.1999816894531
 20
200.1000366210938
 30
0.0
 10
179.7999877929688
 20
208.4000396728516
 30
0.0
 10
181.2999877929688
 20
216.8000335693359
 30
0.0
 10
182.8999786376953
 20
225.2000427246094
 30
0.0
 10
183.0999755859375
 20
226.4000396728516
 30
0.0
 10
183.4999847412109
 20
227.6000366210938
 30
0.0
 10
183.4999847412109
 20
228.800048828125
 30
0.0
 10
183.4999847412109
 20
232.1000518798828
 30
0.0
 10
183.4999847412109
 20
235.4000549316406
 30
0.0
 10
183.4999847412109
 20
238.7000427246094
 30
0.0
 10
183.4999847412109
 20
239.2000427246094
 30
0.0
 10
183.2999877929688
 20
239.5000457763672
 30
0.0
 10
182.7999877929688
 20
239.5000457763672
 30
0.0
 10
182.5999908447266
 20
239.5000457763672
 30
0.0
 10
182.3999938964844
 20
239.5000457763672
 30
0.0
 10
182.1999816894531
 20
239.6000518798828
 30
0.0
 10
178.0999755859375
 20
240.0000457763672
 30
0.0
 10
174.0999755859375
 20
240.6000518798828
 30
0.0
 10
169.9999847412109
 20
241.300048828125
 30
0.0
 10
158.8999786376953
 20
243.300048828125
 30
0.0
 10
147.8999786376953
 20
245.5000457763672
 30
0.0
 10
136.8999938964844
 20
247.800048828125
 30
0.0
 10
129.8999938964844
 20
249.300048828125
 30
0.0
 10
122.7999954223633
 20
250.4000549316406
 30
0.0
 10
115.5999908447266
 20
250.6000518798828
 30
0.0
 10
109.3999938964844
 20
250.800048828125
 30
0.0
 10
103.1999893188477
 20
250.4000549316406
 30
0.0
 10
96.99999237060547
 20
249.2000579833984
 30
0.0
 10
94.79999542236328
 20
248.7000579833984
 30
0.0
 10
95.29999542236328
 20
249.2000579833984
 30
0.0
 10
94.99999237060547
 20
247.1000518798828
 30
0.0
 10
93.19998931884766
 20
233.6000518798828
 30
0.0
 10
80.79999542236328
 20
220.6000518798828
 30
0.0
 10
76.49999237060547
 20
229.1000518798828
 30
0.0
 10
75.79999542236328
 20
230.4000549316406
 30
0.0
 10
75.69998931884766
 20
231.800048828125
 30
0.0
 10
75.99999237060547
 20
233.300048828125
 30
0.0
 10
76.79999542236328
 20
237.800048828125
 30
0.0
 10
78.89999389648438
 20
241.6000518798828
 30
0.0
 10
81.99999237060547
 20
244.9000549316406
 30
0.0
 10
84.49999237060547
 20
247.5000610351562
 30
0.0
 10
87.39999389648438
 20
249.4000549316406
 30
0.0
 10
90.69998931884766
 20
250.6000518798828
 30
0.0
 10
91.09999084472656
 20
250.800048828125
 30
0.0
 10
91.39998626708984
 20
250.9000549316406
 30
0.0
 10
91.49999237060547
 20
251.4000549316406
 30
0.0
 10
91.59999084472656
 20
254.7000579833984
 30
0.0
 10
91.39999389648438
 20
258.0000610351562
 30
0.0
 10
90.29999542236328
 20
261.1000518798828
 30
0.0
 10
88.89999389648438
 20
265.0000457763672
 30
0.0
 10
86.5999984741211
 20
268.1000518798828
 30
0.0
 10
82.89999389648438
 20
270.1000518798828
 30
0.0
 10
78.59999084472656
 20
272.4000549316406
 30
0.0
 10
73.79999542236328
 20
271.6000518798828
 30
0.0
 10
70.49999237060547
 20
268.0000457763672
 30
0.0
 10
69.49999237060547
 20
266.9000396728516
 30
0.0
 10
68.69998931884766
 20
265.7000427246094
 30
0.0
 10
67.99999237060547
 20
264.4000396728516
 30
0.0
 10
64.29999542236328
 20
256.8000335693359
 30
0.0
 10
63.29999160766602
 20
248.9000396728516
 30
0.0
 10
65.39999389648438
 20
240.6000366210938
 30
0.0
 10
66.59999084472656
 20
235.6000366210938
 30
0.0
 10
68.79999542236328
 20
231.1000366210938
 30
0.0
 10
71.59999084472656
 20
226.8000335693359
 30
0.0
 10
75.19998931884766
 20
221.2000274658203
 30
0.0
 10
79.39999389648438
 20
216.0000305175781
 30
0.0
 10
83.29998779296875
 20
210.6000366210938
 30
0.0
 10
83.69998931884766
 20
210.0000305175781
 30
0.0
 10
83.69998931884766
 20
210.0000305175781
 30
0.0
 10
84.29998779296875
 20
210.5000305175781
 30
0.0
 10
87.29998779296875
 20
213.1000366210938
 30
0.0
 10
90.39998626708984
 20
215.6000366210938
 30
0.0
 10
93.39998626708984
 20
218.2000274658203
 30
0.0
 10
94.99998474121094
 20
219.7000274658203
 30
0.0
 10
96.59998321533203
 20
221.2000274658203
 30
0.0
 10
98.09998321533203
 20
222.8000335693359
 30
0.0
 10
98.59998321533203
 20
223.4000396728516
 30
0.0
 10
98.59998321533203
 20
223.4000396728516
 30
0.0
 10
98.19998168945312
 20
224.1000366210938
 30
0.0
 10
96.39997863769531
 20
226.8000335693359
 30
0.0
 10
96.09998321533203
 20
229.7000427246094
 30
0.0
 10
97.29998016357422
 20
232.8000335693359
 30
0.0
 10
97.9999771118164
 20
234.6000366210938
 30
0.0
 10
99.09998321533203
 20
236.2000274658203
 30
0.0
 10
100.3999786376953
 20
237.6000366210938
 30
0.0
 10
104.1999816894531
 20
241.6000366210938
 30
0.0
 10
108.6999816894531
 20
243.5000305175781
 30
0.0
 10
114.2999801635742
 20
242.8000335693359
 30
0.0
 10
118.1999816894531
 20
242.3000335693359
 30
0.0
 10
121.2999801635742
 20
240.4000396728516
 30
0.0
 10
123.8999786376953
 20
237.6000366210938
 30
0.0
 10
127.0999755859375
 20
234.1000366210938
 30
0.0
 10
128.9999847412109
 20
230.0000305175781
 30
0.0
 10
129.8999786376953
 20
225.4000396728516
 30
0.0
 10
130.0999755859375
 20
224.5000457763672
 30
0.0
 10
130.1999816894531
 20
223.6000366210938
 30
0.0
 10
130.2999725341797
 20
222.7000427246094
 30
0.0
 10
130.2999725341797
 20
222.5000457763672
 30
0.0
 10
130.2999725341797
 20
222.2000427246094
 30
0.0
 10
130.5999755859375
 20
222.1000366210938
 30
0.0
 10
130.9999694824219
 20
222.0000305175781
 30
0.0
 10
131.3999786376953
 20
222.2000427246094
 30
0.0
 10
131.6999816894531
 20
222.3000335693359
 30
0.0
 10
132.0999755859375
 20
222.4000396728516
 30
0.0
 10
131.8999786376953
 20
222.8000335693359
 30
0.0
 10
131.8999786376953
 20
223.1000366210938
 30
0.0
 10
131.9999847412109
 20
224.3000335693359
 30
0.0
 10
131.9999847412109
 20
225.5000305175781
 30
0.0
 10
132.1999816894531
 20
226.7000427246094
 30
0.0
 10
132.3999786376953
 20
228.4000396728516
 30
0.0
 10
132.5999755859375
 20
230.1000366210938
 30
0.0
 10
133.2999877929688
 20
231.6000366210938
 30
0.0
 10
133.7999877929688
 20
232.8000335693359
 30
0.0
 10
134.5999908447266
 20
233.6000366210938
 30
0.0
 10
135.7999877929688
 20
234.0000305175781
 30
0.0
 10
137.4999847412109
 20
234.6000366210938
 30
0.0
 10
139.1999816894531
 20
234.4000244140625
 30
0.0
 10
140.7999877929688
 20
233.4000244140625
 30
0.0
 10
141.8999938964844
 20
232.7000274658203
 30
0.0
 10
142.4999847412109
 20
231.8000183105469
 30
0.0
 10
142.5999908447266
 20
230.5000305175781
 30
0.0
 10
142.6999969482422
 20
229.6000366210938
 30
0.0
 10
142.6999969482422
 20
228.7000274658203
 30
0.0
 10
142.5999908447266
 20
227.9000244140625
 30
0.0
 10
142.2999877929688
 20
222.0000305175781
 30
0.0
 10
142.6999969482422
 20
216.2000274658203
 30
0.0
 10
143.8999938964844
 20
210.4000244140625
 30
0.0
 10
144.8999938964844
 20
205.8000183105469
 30
0.0
 10
146.0999908447266
 20
201.3000183105469
 30
0.0
 10
147.1999969482422
 20
196.7000274658203
 30
0.0
 10
147.3999938964844
 20
195.9000244140625
 30
0.0
 10
147.6999969482422
 20
195.2000274658203
 30
0.0
 10
148.0
 20
194.5000305175781
 30
0.0
 10
148.3999938964844
 20
193.6000366210938
 30
0.0
 10
148.6000061035156
 20
193.6000366210938
 30
0.0
 10
149.1999969482422
 20
194.4000244140625
 30
0.0
 10
150.0
 20
195.3000183105469
 30
0.0
 10
150.5
 20
196.2000274658203
 30
0.0
 10
151.0999908447266
 20
197.3000183105469
 30
0.0
 10
152.1999969482422
 20
199.4000244140625
 30
0.0
 10
152.9999847412109
 20
201.5000152587891
 30
0.0
 10
153.7999877929688
 20
203.7000122070312
 30
0.0
 10
155.4999847412109
 20
208.3000183105469
 30
0.0
 10
157.0999908447266
 20
213.0000152587891
 30
0.0
 10
158.6999816894531
 20
217.6000061035156
 30
0.0
 10
159.6999816894531
 20
220.4000091552734
 30
0.0
 10
160.8999786376953
 20
223.1000061035156
 30
0.0
 10
161.6999816894531
 20
226.0
 30
0.0
 10
161.9999847412109
 20
226.8999938964844
 30
0.0
 10
162.6999816894531
 20
227.3999938964844
 30
0.0
 10
163.4999847412109
 20
227.8000030517578
 30
0.0
 10
165.9999847412109
 20
228.8000030517578
 30
0.0
 10
170.4999847412109
 20
227.6000061035156
 30
0.0
 10
170.9999847412109
 20
223.5
 30
0.0
 10
171.0999908447266
 20
222.3999938964844
 30
0.0
 10
171.1999816894531
 20
221.1999969482422
 30
0.0
 10
171.0999908447266
 20
220.1000061035156
 30
0.0
 10
170.7999877929688
 20
215.9000091552734
 30
0.0
 10
170.1999969482422
 20
211.8000030517578
 30
0.0
 10
169.6999969482422
 20
207.6000061035156
 30
0.0
 10
169.3999938964844
 20
202.6999969482422
 30
0.0
 10
169.0
 20
198.0
 30
0.0
 10
168.8000030517578
 20
193.5
 30
0.0
  0
SPLINE
  5
43
330
1F
100
AcDbEntity
  8
Calque 1
370
     0
100
AcDbSpline
210
0.0
220
0.0
230
1.0
 70
    11
 71
     3
 72
    53
 73
    49
 74
     0
 42
0.0000000001
 43
0.0000000001
 12
1.0
 22
0.0
 32
0.0
 13
1.0
 23
0.0
 33
0.0
 40
0.0
 40
0.0
 40
0.0
 40
0.0
 40
1.0
 40
1.0
 40
1.0
 40
2.0
 40
2.0
 40
2.0
 40
3.0
 40
3.0
 40
3.0
 40
4.0
 40
4.0
 40
4.0
 40
5.0
 40
5.0
 40
5.0
 40
6.0
 40
6.0
 40
6.0
 40
7.0
 40
7.0
 40
7.0
 40
8.0
 40
8.0
 40
8.0
 40
9.0
 40
9.0
 40
9.0
 40
10.0
 40
10.0
 40
10.0
 40
11.0
 40
11.0
 40
11.0
 40
12.0
 40
12.0
 40
12.0
 40
13.0
 40
13.0
 40
13.0
 40
14.0
 40
14.0
 40
14.0
 40
15.0
 40
15.0
 40
15.0
 40
16.0
 40
16.0
 40
16.0
 40
16.0
 10
216.8000030517578
 20
241.1000061035156
 30
0.0
 10
216.5
 20
241.2000122070312
 30
0.0
 10
216.3000030517578
 20
241.2000122070312
 30
0.0
 10
216.1000061035156
 20
241.1000061035156
 30
0.0
 10
209.2000122070312
 20
239.5
 30
0.0
 10
202.3000030517578
 20
238.7000122070312
 30
0.0
 10
195.2000122070312
 20
238.7000122070312
 30
0.0
 10
194.2000122070312
 20
238.7000122070312
 30
0.0
 10
194.2000122070312
 20
238.7000122070312
 30
0.0
 10
194.2000122070312
 20
237.7000122070312
 30
0.0
 10
194.2000122070312
 20
234.6000061035156
 30
0.0
 10
194.2000122070312
 20
231.5000152587891
 30
0.0
 10
194.3000183105469
 20
228.4000091552734
 30
0.0
 10
194.5000152587891
 20
221.9000091552734
 30
0.0
 10
194.9000244140625
 20
215.5000152587891
 30
0.0
 10
195.7000122070312
 20
209.0000152587891
 30
0.0
 10
196.4000091552734
 20
203.0000152587891
 30
0.0
 10
197.6000061035156
 20
197.1000213623047
 30
0.0
 10
199.0000152587891
 20
191.3000183105469
 30
0.0
 10
200.1000213623047
 20
186.7000122070312
 30
0.0
 10
201.3000183105469
 20
182.2000122070312
 30
0.0
 10
203.0000152587891
 20
177.9000244140625
 30
0.0
 10
203.5000152587891
 20
176.6000213623047
 30
0.0
 10
204.1000213623047
 20
175.4000244140625
 30
0.0
 10
204.9000091552734
 20
174.3000183105469
 30
0.0
 10
205.7000122070312
 20
173.3000183105469
 30
0.0
 10
206.1000061035156
 20
173.3000183105469
 30
0.0
 10
206.9000091552734
 20
174.3000183105469
 30
0.0
 10
207.5000152587891
 20
175.0000305175781
 30
0.0
 10
207.9000091552734
 20
175.8000183105469
 30
0.0
 10
208.2000122070312
 20
176.7000122070312
 30
0.0
 10
209.3000183105469
 20
179.2000122070312
 30
0.0
 10
210.0000152587891
 20
181.8000183105469
 30
0.0
 10
210.5000152587891
 20
184.4000091552734
 30
0.0
 10
211.5000152587891
 20
190.2000122070312
 30
0.0
 10
212.4000091552734
 20
195.9000091552734
 30
0.0
 10
213.5000152587891
 20
201.7000122070312
 30
0.0
 10
213.9000091552734
 20
203.9000091552734
 30
0.0
 10
214.0000152587891
 20
206.1000061035156
 30
0.0
 10
213.7000122070312
 20
208.4000091552734
 30
0.0
 10
213.7000122070312
 20
208.7000122070312
 30
0.0
 10
213.7000122070312
 20
209.0000152587891
 30
0.0
 10
213.6000061035156
 20
209.3000030517578
 30
0.0
 10
213.3000030517578
 20
217.9000091552734
 30
0.0
 10
213.9000091552734
 20
226.3000030517578
 30
0.0
 10
215.4000091552734
 20
234.8000030517578
 30
0.0
 10
215.8999938964844
 20
236.8999938964844
 30
0.0
 10
216.3999938964844
 20
239.0
 30
0.0
 10
216.8000030517578
 20
241.1000061035156
 30
0.0
  0
SPLINE
  5
44
330
1F
100
AcDbEntity
  8
Calque 1
370
     0
100
AcDbSpline
210
0.0
220
0.0
230
1.0
 70
    11
 71
     3
 72
    35
 73
    31
 74
     0
 42
0.0000000001
 43
0.0000000001
 12
1.0
 22
0.0
 32
0.0
 13
1.0
 23
0.0
 33
0.0
 40
0.0
 40
0.0
 40
0.0
 40
0.0
 40
1.0
 40
1.0
 40
1.0
 40
2.0
 40
2.0
 40
2.0
 40
3.0
 40
3.0
 40
3.0
 40
4.0
 40
4.0
 40
4.0
 40
5.0
 40
5.0
 40
5.0
 40
6.0
 40
6.0
 40
6.0
 40
7.0
 40
7.0
 40
7.0
 40
8.0
 40
8.0
 40
8.0
 40
9.0
 40
9.0
 40
9.0
 40
10.0
 40
10.0
 40
10.0
 40
10.0
 10
88.0
 20
174.8999938964844
 30
0.0
 10
88.0
 20
177.7999877929688
 30
0.0
 10
87.5999984741211
 20
180.2999877929688
 30
0.0
 10
86.5999984741211
 20
183.2999877929688
 30
0.0
 10
84.69999694824219
 20
188.9999847412109
 30
0.0
 10
81.79999542236328
 20
194.0999908447266
 30
0.0
 10
78.69999694824219
 20
199.1999816894531
 30
0.0
 10
78.29999542236328
 20
199.7999877929688
 30
0.0
 10
78.29999542236328
 20
199.7999877929688
 30
0.0
 10
77.79999542236328
 20
199.2999877929688
 30
0.0
 10
75.89999389648438
 20
197.3999938964844
 30
0.0
 10
74.0999984741211
 20
195.4999847412109
 30
0.0
 10
72.39999389648438
 20
193.4999847412109
 30
0.0
 10
70.39999389648438
 20
191.1999816894531
 30
0.0
 10
68.49999237060547
 20
188.6999816894531
 30
0.0
 10
66.79999542236328
 20
186.0999908447266
 30
0.0
 10
65.49999237060547
 20
183.8999938964844
 30
0.0
 10
64.39999389648438
 20
181.5999908447266
 30
0.0
 10
63.69999694824219
 20
179.1999969482422
 30
0.0
 10
63.09999847412109
 20
177.0999908447266
 30
0.0
 10
62.99999618530273
 20
174.8999938964844
 30
0.0
 10
63.49999618530273
 20
172.7000122070312
 30
0.0
 10
65.19999694824219
 20
165.6000061035156
 30
0.0
 10
72.19999694824219
 20
160.9000244140625
 30
0.0
 10
79.39999389648438
 20
162.1000061035156
 30
0.0
 10
83.59999084472656
 20
162.8000183105469
 30
0.0
 10
86.19999694824219
 20
165.1000061035156
 30
0.0
 10
87.19999694824219
 20
169.3000183105469
 30
0.0
 10
87.80000305175781
 20
171.1000061035156
 30
0.0
 10
88.0
 20
173.0
 30
0.0
 10
88.0
 20
174.8999938964844
 30
0.0
  0
SPLINE
  5
45
330
1F
100
AcDbEntity
  8
Calque 1
370
     0
100
AcDbSpline
210
0.0
220
0.0
230
1.0
 70
    11
 71
     3
 72
    47
 73
    43
 74
     0
 42
0.0000000001
 43
0.0000000001
 12
1.0
 22
0.0
 32
0.0
 13
1.0
 23
0.0
 33
0.0
 40
0.0
 40
0.0
 40
0.0
 40
0.0
 40
1.0
 40
1.0
 40
1.0
 40
2.0
 40
2.0
 40
2.0
 40
3.0
 40
3.0
 40
3.0
 40
4.0
 40
4.0
 40
4.0
 40
5.0
 40
5.0
 40
5.0
 40
6.0
 40
6.0
 40
6.0
 40
7.0
 40
7.0
 40
7.0
 40
8.0
 40
8.0
 40
8.0
 40
9.0
 40
9.0
 40
9.0
 40
10.0
 40
10.0
 40
10.0
 40
11.0
 40
11.0
 40
11.0
 40
12.0
 40
12.0
 40
12.0
 40
13.0
 40
13.0
 40
13.0
 40
14.0
 40
14.0
 40
14.0
 40
14.0
 10
117.8000030517578
 20
220.1000061035156
 30
0.0
 10
120.4000015258789
 20
220.1000061035156
 30
0.0
 10
123.0
 20
220.7000122070312
 30
0.0
 10
125.5
 20
221.1000061035156
 30
0.0
 10
126.0
 20
221.2000122070312
 30
0.0
 10
126.0
 20
221.4000091552734
 30
0.0
 10
126.0
 20
221.9000091552734
 30
0.0
 10
125.9000015258789
 20
223.1000061035156
 30
0.0
 10
125.5999984741211
 20
224.3000030517578
 30
0.0
 10
125.3000030517578
 20
225.4000091552734
 30
0.0
 10
124.3000030517578
 20
229.3000030517578
 30
0.0
 10
122.6000061035156
 20
232.9000091552734
 30
0.0
 10
119.7000045776367
 20
235.7000122070312
 30
0.0
 10
118.6000061035156
 20
236.8000183105469
 30
0.0
 10
117.4000015258789
 20
237.7000122070312
 30
0.0
 10
116.0000076293945
 20
238.3000183105469
 30
0.0
 10
114.0000076293945
 20
239.2000122070312
 30
0.0
 10
112.0000076293945
 20
239.4000244140625
 30
0.0
 10
109.9000091552734
 20
238.6000213623047
 30
0.0
 10
106.4000091552734
 20
237.2000274658203
 30
0.0
 10
104.1000061035156
 20
234.6000213623047
 30
0.0
 10
102.8000106811523
 20
231.0000152587891
 30
0.0
 10
102.5000076293945
 20
230.2000122070312
 30
0.0
 10
102.4000091552734
 20
229.3000183105469
 30
0.0
 10
102.6000137329102
 20
228.4000091552734
 30
0.0
 10
102.7000122070312
 20
228.0000152587891
 30
0.0
 10
102.8000106811523
 20
227.8000030517578
 30
0.0
 10
103.3000106811523
 20
227.9000091552734
 30
0.0
 10
104.0000076293945
 20
228.0000152587891
 30
0.0
 10
104.7000122070312
 20
227.9000091552734
 30
0.0
 10
105.4000091552734
 20
227.8000030517578
 30
0.0
 10
107.2000122070312
 20
227.4000091552734
 30
0.0
 10
108.4000091552734
 20
226.3000030517578
 30
0.0
 10
108.8000106811523
 20
224.4000091552734
 30
0.0
 10
108.9000091552734
 20
223.8000030517578
 30
0.0
 10
109.1000137329102
 20
223.2000122070312
 30
0.0
 10
109.0000076293945
 20
222.6000061035156
 30
0.0
 10
109.0000076293945
 20
222.0
 30
0.0
 10
109.2000045776367
 20
221.7000122070312
 30
0.0
 10
109.8000106811523
 20
221.5
 30
0.0
 10
112.4000015258789
 20
220.6999969482422
 30
0.0
 10
115.0999984741211
 20
220.1000061035156
 30
0.0
 10
117.8000030517578
 20
220.1000061035156
 30
0.0
  0
SPLINE
  5
46
330
1F
100
AcDbEntity
  8
Calque 1
370
     0
100
AcDbSpline
210
0.0
220
0.0
230
1.0
 70
    11
 71
     3
 72
    44
 73
    40
 74
     0
 42
0.0000000001
 43
0.0000000001
 12
1.0
 22
0.0
 32
0.0
 13
1.0
 23
0.0
 33
0.0
 40
0.0
 40
0.0
 40
0.0
 40
0.0
 40
1.0
 40
1.0
 40
1.0
 40
2.0
 40
2.0
 40
2.0
 40
3.0
 40
3.0
 40
3.0
 40
4.0
 40
4.0
 40
4.0
 40
5.0
 40
5.0
 40
5.0
 40
6.0
 40
6.0
 40
6.0
 40
7.0
 40
7.0
 40
7.0
 40
8.0
 40
8.0
 40
8.0
 40
9.0
 40
9.0
 40
9.0
 40
10.0
 40
10.0
 40
10.0
 40
11.0
 40
11.0
 40
11.0
 40
12.0
 40
12.0
 40
12.0
 40
13.0
 40
13.0
 40
13.0
 40
13.0
 10
126.4000015258789
 20
215.6999969482422
 30
0.0
 10
126.4000015258789
 20
216.3999938964844
 30
0.0
 10
126.4000015258789
 20
217.0999908447266
 30
0.0
 10
126.4000015258789
 20
217.6999969482422
 30
0.0
 10
126.4000015258789
 20
218.3000030517578
 30
0.0
 10
126.3000030517578
 20
218.3000030517578
 30
0.0
 10
125.8000030517578
 20
218.1999969482422
 30
0.0
 10
125.4000015258789
 20
218.0999908447266
 30
0.0
 10
124.9000015258789
 20
218.0
 30
0.0
 10
124.5
 20
217.8999938964844
 30
0.0
 10
121.8000030517578
 20
217.3999938964844
 30
0.0
 10
119.0999984741211
 20
216.8999938964844
 30
0.0
 10
116.3000030517578
 20
216.8999938964844
 30
0.0
 10
114.3000030517578
 20
216.8999938964844
 30
0.0
 10
112.3000030517578
 20
217.0999908447266
 30
0.0
 10
110.3000030517578
 20
217.5
 30
0.0
 10
109.6000061035156
 20
217.6000061035156
 30
0.0
 10
109.6000061035156
 20
217.6000061035156
 30
0.0
 10
109.6000061035156
 20
216.8999938964844
 30
0.0
 10
109.8000030517578
 20
214.8999938964844
 30
0.0
 10
110.1000061035156
 20
212.8999938964844
 30
0.0
 10
110.5000076293945
 20
210.8999938964844
 30
0.0
 10
111.3000106811523
 20
207.0
 30
0.0
 10
112.6000061035156
 20
203.1999969482422
 30
0.0
 10
115.0000076293945
 20
200.0
 30
0.0
 10
115.6000061035156
 20
199.1999969482422
 30
0.0
 10
116.3000106811523
 20
198.3999938964844
 30
0.0
 10
117.2000045776367
 20
197.8000030517578
 30
0.0
 10
118.1000061035156
 20
197.1999969482422
 30
0.0
 10
119.0000076293945
 20
197.1999969482422
 30
0.0
 10
120.0000076293945
 20
197.8000030517578
 30
0.0
 10
120.7000045776367
 20
198.1999969482422
 30
0.0
 10
121.3000106811523
 20
198.8000030517578
 30
0.0
 10
121.8000106811523
 20
199.4000091552734
 30
0.0
 10
122.6000137329102
 20
200.5000152587891
 30
0.0
 10
123.3000106811523
 20
201.6000061035156
 30
0.0
 10
123.8000106811523
 20
202.8000030517578
 30
0.0
 10
125.5
 20
207.0
 30
0.0
 10
126.3000030517578
 20
211.3000030517578
 30
0.0
 10
126.4000015258789
 20
215.6999969482422
 30
0.0
  0
SPLINE
  5
47
330
1F
100
AcDbEntity
  8
Calque 1
370
     0
100
AcDbSpline
210
0.0
220
0.0
230
1.0
 70
    11
 71
     3
 72
    35
 73
    31
 74
     0
 42
0.0000000001
 43
0.0000000001
 12
1.0
 22
0.0
 32
0.0
 13
1.0
 23
0.0
 33
0.0
 40
0.0
 40
0.0
 40
0.0
 40
0.0
 40
1.0
 40
1.0
 40
1.0
 40
2.0
 40
2.0
 40
2.0
 40
3.0
 40
3.0
 40
3.0
 40
4.0
 40
4.0
 40
4.0
 40
5.0
 40
5.0
 40
5.0
 40
6.0
 40
6.0
 40
6.0
 40
7.0
 40
7.0
 40
7.0
 40
8.0
 40
8.0
 40
8.0
 40
9.0
 40
9.0
 40
9.0
 40
10.0
 40
10.0
 40
10.0
 40
10.0
 10
230.5
 20
250.1000061035156
 30
0.0
 10
233.8000030517578
 20
251.5
 30
0.0
 10
236.8999938964844
 20
253.2000122070312
 30
0.0
 10
239.6999969482422
 20
255.4000091552734
 30
0.0
 10
242.3999938964844
 20
257.5000152587891
 30
0.0
 10
244.5999908447266
 20
260.1000061035156
 30
0.0
 10
246.0999908447266
 20
263.2000122070312
 30
0.0
 10
246.8999938964844
 20
265.0000152587891
 30
0.0
 10
247.3999938964844
 20
266.8000183105469
 30
0.0
 10
247.1999969482422
 20
268.8000183105469
 30
0.0
 10
247.0999908447266
 20
270.1000213623047
 30
0.0
 10
246.6999969482422
 20
271.2000122070312
 30
0.0
 10
245.8999938964844
 20
272.2000122070312
 30
0.0
 10
245.2999877929688
 20
272.9000091552734
 30
0.0
 10
244.5999908447266
 20
273.2000122070312
 30
0.0
 10
243.6999969482422
 20
273.0000152587891
 30
0.0
 10
242.8999938964844
 20
272.8000183105469
 30
0.0
 10
242.1999969482422
 20
272.6000213623047
 30
0.0
 10
241.5999908447266
 20
272.1000213623047
 30
0.0
 10
240.6999969482422
 20
271.4000244140625
 30
0.0
 10
239.8999938964844
 20
270.6000213623047
 30
0.0
 10
239.1999969482422
 20
269.7000274658203
 30
0.0
 10
238.3000030517578
 20
268.5000305175781
 30
0.0
 10
237.5
 20
267.3000335693359
 30
0.0
 10
236.6999969482422
 20
265.9000244140625
 30
0.0
 10
234.0
 20
261.1000213623047
 30
0.0
 10
232.0999908447266
 20
255.9000244140625
 30
0.0
 10
230.5999908447266
 20
250.6000213623047
 30
0.0
 10
230.3999938964844
 20
250.5
 30
0.0
 10
230.3000030517578
 20
250.3000030517578
 30
0.0
 10
230.5
 20
250.1000061035156
 30
0.0
  0
SPLINE
  5
48
330
1F
100
AcDbEntity
  8
Calque 1
370
     0
100
AcDbSpline
210
0.0
220
0.0
230
1.0
 70
    11
 71
     3
 72
    32
 73
    28
 74
     0
 42
0.0000000001
 43
0.0000000001
 12
1.0
 22
0.0
 32
0.0
 13
1.0
 23
0.0
 33
0.0
 40
0.0
 40
0.0
 40
0.0
 40
0.0
 40
1.0
 40
1.0
 40
1.0
 40
2.0
 40
2.0
 40
2.0
 40
3.0
 40
3.0
 40
3.0
 40
4.0
 40
4.0
 40
4.0
 40
5.0
 40
5.0
 40
5.0
 40
6.0
 40
6.0
 40
6.0
 40
7.0
 40
7.0
 40
7.0
 40
8.0
 40
8.0
 40
8.0
 40
9.0
 40
9.0
 40
9.0
 40
9.0
 10
285.2999877929688
 20
245.8000030517578
 30
0.0
 10
285.2999877929688
 20
243.5
 30
0.0
 10
286.1999816894531
 20
241.8000030517578
 30
0.0
 10
287.7999877929688
 20
240.3000030517578
 30
0.0
 10
289.0
 20
239.3000030517578
 30
0.0
 10
290.2999877929688
 20
238.6000061035156
 30
0.0
 10
291.6999816894531
 20
237.9000091552734
 30
0.0
 10
293.9999694824219
 20
236.8000030517578
 30
0.0
 10
296.3999938964844
 20
236.1000061035156
 30
0.0
 10
298.8999938964844
 20
235.6000061035156
 30
0.0
 10
300.3999938964844
 20
235.3000030517578
 30
0.0
 10
300.3999938964844
 20
235.1000061035156
 30
0.0
 10
300.1000061035156
 20
236.8000030517578
 30
0.0
 10
299.3999938964844
 20
240.6000061035156
 30
0.0
 10
298.1000061035156
 20
244.3000030517578
 30
0.0
 10
296.0
 20
247.6000061035156
 30
0.0
 10
295.1000061035156
 20
249.0
 30
0.0
 10
294.1000061035156
 20
250.4000091552734
 30
0.0
 10
292.7000122070312
 20
251.4000091552734
 30
0.0
 10
290.9000244140625
 20
252.7000122070312
 30
0.0
 10
289.2000122070312
 20
252.6000061035156
 30
0.0
 10
287.5
 20
251.1000061035156
 30
0.0
 10
286.7000122070312
 20
250.4000091552734
 30
0.0
 10
286.2000122070312
 20
249.6000061035156
 30
0.0
 10
285.8999938964844
 20
248.7000122070312
 30
0.0
 10
285.5
 20
247.6999969482422
 30
0.0
 10
285.2999877929688
 20
246.6999969482422
 30
0.0
 10
285.2999877929688
 20
245.8000030517578
 30
0.0
  0
SPLINE
  5
49
330
1F
100
AcDbEntity
  8
Calque 1
370
     0
100
AcDbSpline
210
0.0
220
0.0
230
1.0
 70
    11
 71
     3
 72
    20
 73
    16
 74
     0
 42
0.0000000001
 43
0.0000000001
 12
1.0
 22
0.0
 32
0.0
 13
1.0
 23
0.0
 33
0.0
 40
0.0
 40
0.0
 40
0.0
 40
0.0
 40
1.0
 40
1.0
 40
1.0
 40
2.0
 40
2.0
 40
2.0
 40
3.0
 40
3.0
 40
3.0
 40
4.0
 40
4.0
 40
4.0
 40
5.0
 40
5.0
 40
5.0
 40
5.0
 10
91.19999694824219
 20
247.0
 30
0.0
 10
91.0
 20
247.0
 30
0.0
 10
90.89999389648438
 20
247.0
 30
0.0
 10
90.89999389648438
 20
247.0
 30
0.0
 10
90.69999694824219
 20
246.8999938964844
 30
0.0
 10
90.49999237060547
 20
246.8000030517578
 30
0.0
 10
90.29999542236328
 20
246.6999969482422
 30
0.0
 10
85.0999984741211
 20
244.0
 30
0.0
 10
81.69999694824219
 20
239.8000030517578
 30
0.0
 10
80.0999984741211
 20
234.0999908447266
 30
0.0
 10
76.9000015258789
 20
222.9999847412109
 30
0.0
 10
88.5999984741211
 20
233.2999877929688
 30
0.0
 10
90.9000015258789
 20
244.8999938964844
 30
0.0
 10
91.0
 20
245.6000061035156
 30
0.0
 10
91.19999694824219
 20
246.3000030517578
 30
0.0
 10
91.19999694824219
 20
247.0
 30
0.0
  0
SPLINE
  5
4A
330
1F
100
AcDbEntity
  8
Calque 1
370
     0
100
AcDbSpline
210
0.0
220
0.0
230
1.0
 70
    11
 71
     3
 72
    29
 73
    25
 74
     0
 42
0.0000000001
 43
0.0000000001
 12
1.0
 22
0.0
 32
0.0
 13
1.0
 23
0.0
 33
0.0
 40
0.0
 40
0.0
 40
0.0
 40
0.0
 40
1.0
 40
1.0
 40
1.0
 40
2.0
 40
2.0
 40
2.0
 40
3.0
 40
3.0
 40
3.0
 40
4.0
 40
4.0
 40
4.0
 40
5.0
 40
5.0
 40
5.0
 40
6.0
 40
6.0
 40
6.0
 40
7.0
 40
7.0
 40
7.0
 40
8.0
 40
8.0
 40
8.0
 40
8.0
 10
271.8999938964844
 20
217.3000030517578
 30
0.0
 10
272.1000061035156
 20
217.1000061035156
 30
0.0
 10
272.3999938964844
 20
217.1000061035156
 30
0.0
 10
272.6000061035156
 20
217.1000061035156
 30
0.0
 10
274.6000061035156
 20
216.9000091552734
 30
0.0
 10
276.5
 20
217.1000061035156
 30
0.0
 10
278.3999938964844
 20
217.8000030517578
 30
0.0
 10
281.0
 20
218.6999969482422
 30
0.0
 10
282.3999938964844
 20
220.6000061035156
 30
0.0
 10
282.6000061035156
 20
223.3000030517578
 30
0.0
 10
282.8000183105469
 20
225.3000030517578
 30
0.0
 10
282.1000061035156
 20
227.1000061035156
 30
0.0
 10
280.5
 20
228.4000091552734
 30
0.0
 10
279.7000122070312
 20
229.1000061035156
 30
0.0
 10
279.1000061035156
 20
229.1000061035156
 30
0.0
 10
278.2000122070312
 20
228.5000152587891
 30
0.0
 10
277.7000122070312
 20
228.1000213623047
 30
0.0
 10
277.3000183105469
 20
227.7000122070312
 30
0.0
 10
276.9000244140625
 20
227.2000122070312
 30
0.0
 10
274.6000366210938
 20
224.4000091552734
 30
0.0
 10
273.0000305175781
 20
221.3000183105469
 30
0.0
 10
272.0000305175781
 20
217.9000091552734
 30
0.0
 10
271.8999938964844
 20
217.6999969482422
 30
0.0
 10
271.7999877929688
 20
217.5
 30
0.0
 10
271.8999938964844
 20
217.3000030517578
 30
0.0
  0
HATCH
  5
4B
330
1F
100
AcDbEntity
  8
Calque 1
 62
    37
420
  7692621
100
AcDbHatch
 10
0.0
 20
0.0
 30
0.0
210
0.0
220
0.0
230
1.0
  2
SOLID
 70
     1
 71
     0
 91
       10
 92
        1
 93
        1
 72
     4
 94
        3
 73
     0
 74
     1
 95
      740
 96
      736
 40
0.0
 40
0.0
 40
0.0
 40
0.0
 40
1.0
 40
1.0
 40
1.0
 40
2.0
 40
2.0
 40
2.0
 40
3.0
 40
3.0
 40
3.0
 40
4.0
 40
4.0
 40
4.0
 40
5.0
 40
5.0
 40
5.0
 40
6.0
 40
6.0
 40
6.0
 40
7.0
 40
7.0
 40
7.0
 40
8.0
 40
8.0
 40
8.0
 40
9.0
 40
9.0
 40
9.0
 40
10.0
 40
10.0
 40
10.0
 40
11.0
 40
11.0
 40
11.0
 40
12.0
 40
12.0
 40
12.0
 40
13.0
 40
13.0
 40
13.0
 40
14.0
 40
14.0
 40
14.0
 40
15.0
 40
15.0
 40
15.0
 40
16.0
 40
16.0
 40
16.0
 40
17.0
 40
17.0
 40
17.0
 40
18.0
 40
18.0
 40
18.0
 40
19.0
 40
19.0
 40
19.0
 40
20.0
 40
20.0
 40
20.0
 40
21.0
 40
21.0
 40
21.0
 40
22.0
 40
22.0
 40
22.0
 40
23.0
 40
23.0
 40
23.0
 40
24.0
 40
24.0
 40
24.0
 40
25.0
 40
25.0
 40
25.0
 40
26.0
 40
26.0
 40
26.0
 40
27.0
 40
27.0
 40
27.0
 40
28.0
 40
28.0
 40
28.0
 40
29.0
 40
29.0
 40
29.0
 40
30.0
 40
30.0
 40
30.0
 40
31.0
 40
31.0
 40
31.0
 40
32.0
 40
32.0
 40
32.0
 40
33.0
 40
33.0
 40
33.0
 40
34.0
 40
34.0
 40
34.0
 40
35.0
 40
35.0
 40
35.0
 40
36.0
 40
36.0
 40
36.0
 40
37.0
 40
37.0
 40
37.0
 40
38.0
 40
38.0
 40
38.0
 40
39.0
 40
39.0
 40
39.0
 40
40.0
 40
40.0
 40
40.0
 40
41.0
 40
41.0
 40
41.0
 40
42.0
 40
42.0
 40
42.0
 40
43.0
 40
43.0
 40
43.0
 40
44.0
 40
44.0
 40
44.0
 40
45.0
 40
45.0
 40
45.0
 40
46.0
 40
46.0
 40
46.0
 40
47.0
 40
47.0
 40
47.0
 40
48.0
 40
48.0
 40
48.0
 40
49.0
 40
49.0
 40
49.0
 40
50.0
 40
50.0
 40
50.0
 40
51.0
 40
51.0
 40
51.0
 40
52.0
 40
52.0
 40
52.0
 40
53.0
 40
53.0
 40
53.0
 40
54.0
 40
54.0
 40
54.0
 40
55.0
 40
55.0
 40
55.0
 40
56.0
 40
56.0
 40
56.0
 40
57.0
 40
57.0
 40
57.0
 40
58.0
 40
58.0
 40
58.0
 40
59.0
 40
59.0
 40
59.0
 40
60.0
 40
60.0
 40
60.0
 40
61.0
 40
61.0
 40
61.0
 40
62.0
 40
62.0
 40
62.0
 40
63.0
 40
63.0
 40
63.0
 40
64.0
 40
64.0
 40
64.0
 40
65.0
 40
65.0
 40
65.0
 40
66.0
 40
66.0
 40
66.0
 40
67.0
 40
67.0
 40
67.0
 40
68.0
 40
68.0
 40
68.0
 40
69.0
 40
69.0
 40
69.0
 40
70.0
 40
70.0
 40
70.0
 40
71.0
 40
71.0
 40
71.0
 40
72.0
 40
72.0
 40
72.0
 40
73.0
 40
73.0
 40
73.0
 40
74.0
 40
74.0
 40
74.0
 40
75.0
 40
75.0
 40
75.0
 40
76.0
 40
76.0
 40
76.0
 40
77.0
 40
77.0
 40
77.0
 40
78.0
 40
78.0
 40
78.0
 40
79.0
 40
79.0
 40
79.0
 40
80.0
 40
80.0
 40
80.0
 40
81.0
 40
81.0
 40
81.0
 40
82.0
 40
82.0
 40
82.0
 40
83.0
 40
83.0
 40
83.0
 40
84.0
 40
84.0
 40
84.0
 40
85.0
 40
85.0
 40
85.0
 40
86.0
 40
86.0
 40
86.0
 40
87.0
 40
87.0
 40
87.0
 40
88.0
 40
88.0
 40
88.0
 40
89.0
 40
89.0
 40
89.0
 40
90.0
 40
90.0
 40
90.0
 40
91.0
 40
91.0
 40
91.0
 40
92.0
 40
92.0
 40
92.0
 40
93.0
 40
93.0
 40
93.0
 40
94.0
 40
94.0
 40
94.0
 40
95.0
 40
95.0
 40
95.0
 40
96.0
 40
96.0
 40
96.0
 40
97.0
 40
97.0
 40
97.0
 40
98.0
 40
98.0
 40
98.0
 40
99.0
 40
99.0
 40
99.0
 40
100.0
 40
100.0
 40
100.0
 40
101.0
 40
101.0
 40
101.0
 40
102.0
 40
102.0
 40
102.0
 40
103.0
 40
103.0
 40
103.0
 40
104.0
 40
104.0
 40
104.0
 40
105.0
 40
105.0
 40
105.0
 40
106.0
 40
106.0
 40
106.0
 40
107.0
 40
107.0
 40
107.0
 40
108.0
 40
108.0
 40
108.0
 40
109.0
 40
109.0
 40
109.0
 40
110.0
 40
110.0
 40
110.0
 40
111.0
 40
111.0
 40
111.0
 40
112.0
 40
112.0
 40
112.0
 40
113.0
 40
113.0
 40
113.0
 40
114.0
 40
114.0
 40
114.0
 40
115.0
 40
115.0
 40
115.0
 40
116.0
 40
116.0
 40
116.0
 40
117.0
 40
117.0
 40
117.0
 40
118.0
 40
118.0
 40
118.0
 40
119.0
 40
119.0
 40
119.0
 40
120.0
 40
120.0
 40
120.0
 40
121.0
 40
121.0
 40
121.0
 40
122.0
 40
122.0
 40
122.0
 40
123.0
 40
123.0
 40
123.0
 40
124.0
 40
124.0
 40
124.0
 40
125.0
 40
125.0
 40
125.0
 40
126.0
 40
126.0
 40
126.0
 40
127.0
 40
127.0
 40
127.0
 40
128.0
 40
128.0
 40
128.0
 40
129.0
 40
129.0
 40
129.0
 40
130.0
 40
130.0
 40
130.0
 40
131.0
 40
131.0
 40
131.0
 40
132.0
 40
132.0
 40
132.0
 40
133.0
 40
133.0
 40
133.0
 40
134.0
 40
134.0
 40
134.0
 40
135.0
 40
135.0
 40
135.0
 40
136.0
 40
136.0
 40
136.0
 40
137.0
 40
137.0
 40
137.0
 40
138.0
 40
138.0
 40
138.0
 40
139.0
 40
139.0
 40
139.0
 40
140.0
 40
140.0
 40
140.0
 40
141.0
 40
141.0
 40
141.0
 40
142.0
 40
142.0
 40
142.0
 40
143.0
 40
143.0
 40
143.0
 40
144.0
 40
144.0
 40
144.0
 40
145.0
 40
145.0
 40
145.0
 40
146.0
 40
146.0
 40
146.0
 40
147.0
 40
147.0
 40
147.0
 40
148.0
 40
148.0
 40
148.0
 40
149.0
 40
149.0
 40
149.0
 40
150.0
 40
150.0
 40
150.0
 40
151.0
 40
151.0
 40
151.0
 40
152.0
 40
152.0
 40
152.0
 40
153.0
 40
153.0
 40
153.0
 40
154.0
 40
154.0
 40
154.0
 40
155.0
 40
155.0
 40
155.0
 40
156.0
 40
156.0
 40
156.0
 40
157.0
 40
157.0
 40
157.0
 40
158.0
 40
158.0
 40
158.0
 40
159.0
 40
159.0
 40
159.0
 40
160.0
 40
160.0
 40
160.0
 40
161.0
 40
161.0
 40
161.0
 40
162.0
 40
162.0
 40
162.0
 40
163.0
 40
163.0
 40
163.0
 40
164.0
 40
164.0
 40
164.0
 40
165.0
 40
165.0
 40
165.0
 40
166.0
 40
166.0
 40
166.0
 40
167.0
 40
167.0
 40
167.0
 40
168.0
 40
168.0
 40
168.0
 40
169.0
 40
169.0
 40
169.0
 40
170.0
 40
170.0
 40
170.0
 40
171.0
 40
171.0
 40
171.0
 40
172.0
 40
172.0
 40
172.0
 40
173.0
 40
173.0
 40
173.0
 40
174.0
 40
174.0
 40
174.0
 40
175.0
 40
175.0
 40
175.0
 40
176.0
 40
176.0
 40
176.0
 40
177.0
 40
177.0
 40
177.0
 40
178.0
 40
178.0
 40
178.0
 40
179.0
 40
179.0
 40
179.0
 40
180.0
 40
180.0
 40
180.0
 40
181.0
 40
181.0
 40
181.0
 40
182.0
 40
182.0
 40
182.0
 40
183.0
 40
183.0
 40
183.0
 40
184.0
 40
184.0
 40
184.0
 40
185.0
 40
185.0
 40
185.0
 40
186.0
 40
186.0
 40
186.0
 40
187.0
 40
187.0
 40
187.0
 40
188.0
 40
188.0
 40
188.0
 40
189.0
 40
189.0
 40
189.0
 40
190.0
 40
190.0
 40
190.0
 40
191.0
 40
191.0
 40
191.0
 40
192.0
 40
192.0
 40
192.0
 40
193.0
 40
193.0
 40
193.0
 40
194.0
 40
194.0
 40
194.0
 40
195.0
 40
195.0
 40
195.0
 40
196.0
 40
196.0
 40
196.0
 40
197.0
 40
197.0
 40
197.0
 40
198.0
 40
198.0
 40
198.0
 40
199.0
 40
199.0
 40
199.0
 40
200.0
 40
200.0
 40
200.0
 40
201.0
 40
201.0
 40
201.0
 40
202.0
 40
202.0
 40
202.0
 40
203.0
 40
203.0
 40
203.0
 40
204.0
 40
204.0
 40
204.0
 40
205.0
 40
205.0
 40
205.0
 40
206.0
 40
206.0
 40
206.0
 40
207.0
 40
207.0
 40
207.0
 40
208.0
 40
208.0
 40
208.0
 40
209.0
 40
209.0
 40
209.0
 40
210.0
 40
210.0
 40
210.0
 40
211.0
 40
211.0
 40
211.0
 40
212.0
 40
212.0
 40
212.0
 40
213.0
 40
213.0
 40
213.0
 40
214.0
 40
214.0
 40
214.0
 40
215.0
 40
215.0
 40
215.0
 40
216.0
 40
216.0
 40
216.0
 40
217.0
 40
217.0
 40
217.0
 40
218.0
 40
218.0
 40
218.0
 40
219.0
 40
219.0
 40
219.0
 40
220.0
 40
220.0
 40
220.0
 40
221.0
 40
221.0
 40
221.0
 40
222.0
 40
222.0
 40
222.0
 40
223.0
 40
223.0
 40
223.0
 40
224.0
 40
224.0
 40
224.0
 40
225.0
 40
225.0
 40
225.0
 40
226.0
 40
226.0
 40
226.0
 40
227.0
 40
227.0
 40
227.0
 40
228.0
 40
228.0
 40
228.0
 40
229.0
 40
229.0
 40
229.0
 40
230.0
 40
230.0
 40
230.0
 40
231.0
 40
231.0
 40
231.0
 40
232.0
 40
232.0
 40
232.0
 40
233.0
 40
233.0
 40
233.0
 40
234.0
 40
234.0
 40
234.0
 40
235.0
 40
235.0
 40
235.0
 40
236.0
 40
236.0
 40
236.0
 40
237.0
 40
237.0
 40
237.0
 40
238.0
 40
238.0
 40
238.0
 40
239.0
 40
239.0
 40
239.0
 40
240.0
 40
240.0
 40
240.0
 40
241.0
 40
241.0
 40
241.0
 40
242.0
 40
242.0
 40
242.0
 40
243.0
 40
243.0
 40
243.0
 40
244.0
 40
244.0
 40
244.0
 40
245.0
 40
245.0
 40
245.0
 40
245.0
 10
95.5999984741211
 20
252.0
 10
97.0
 20
252.3000030517578
 10
98.4000015258789
 20
252.5
 10
99.69999694824219
 20
252.6999969482422
 10
105.3999938964844
 20
253.5999908447266
 10
111.1999969482422
 20
253.8000030517578
 10
116.8999938964844
 20
253.6999969482422
 10
123.6999969482422
 20
253.5999908447266
 10
130.5
 20
252.6999969482422
 10
137.0999908447266
 20
251.3000030517578
 10
146.8999938964844
 20
249.3000030517578
 10
156.6999969482422
 20
247.1999969482422
 10
166.4999847412109
 20
245.4000091552734
 10
171.4999847412109
 20
244.5000152587891
 10
176.5999908447266
 20
243.7000122070312
 10
181.6999816894531
 20
243.2000122070312
 10
181.9999847412109
 20
243.2000122070312
 10
182.2999877929688
 20
243.1000061035156
 10
182.5999755859375
 20
243.1000061035156
 10
183.4999694824219
 20
243.0
 10
183.4999694824219
 20
243.0
 10
183.4999694824219
 20
243.9000091552734
 10
183.5999755859375
 20
248.4000091552734
 10
183.8999633789062
 20
252.8000030517578
 10
184.2999725341797
 20
257.3000030517578
 10
184.6999664306641
 20
261.5
 10
185.1999664306641
 20
265.6999969482422
 10
186.0999755859375
 20
269.9000091552734
 10
186.4999694824219
 20
271.7000122070312
 10
187.0999755859375
 20
273.4000091552734
 10
187.9999694824219
 20
275.0000152587891
 10
188.3999633789062
 20
275.8000183105469
 10
189.1999664306641
 20
276.2000122070312
 10
190.0999755859375
 20
276.2000122070312
 10
191.7999725341797
 20
276.2000122070312
 10
192.8999786376953
 20
275.4000091552734
 10
193.6999816894531
 20
273.9000091552734
 10
194.4999847412109
 20
272.4000091552734
 10
194.9999847412109
 20
270.8000030517578
 10
195.0999755859375
 20
269.1000061035156
 10
195.3999786376953
 20
266.4000091552734
 10
195.0999755859375
 20
263.8000030517578
 10
194.9999694824219
 20
261.1000061035156
 10
194.6999664306641
 20
255.2000122070312
 10
194.3999633789062
 20
249.4000091552734
 10
194.2999725341797
 20
243.5
 10
194.2999725341797
 20
243.3999938964844
 10
194.2999725341797
 20
243.3000030517578
 10
194.2999725341797
 20
243.1999969482422
 10
194.1999664306641
 20
242.6999969482422
 10
194.3999786376953
 20
242.5
 10
194.9999694824219
 20
242.5
 10
196.1999664306641
 20
242.5
 10
197.4999694824219
 20
242.5
 10
198.6999664306641
 20
242.6000061035156
 10
204.7999725341797
 20
242.9000091552734
 10
210.8999633789062
 20
243.8000030517578
 10
216.7999725341797
 20
245.3000030517578
 10
217.5999755859375
 20
245.5
 10
217.9999694824219
 20
245.9000091552734
 10
218.1999664306641
 20
246.6999969482422
 10
219.4999694824219
 20
251.6999969482422
 10
220.9999694824219
 20
256.5999908447266
 10
223.0999603271484
 20
261.3000030517578
 10
224.7999572753906
 20
265.0
 10
226.7999572753906
 20
268.6000061035156
 10
229.5999603271484
 20
271.6000061035156
 10
232.1999664306641
 20
274.4000091552734
 10
235.0999603271484
 20
276.4000091552734
 10
238.7999572753906
 20
277.4000091552734
 10
240.699951171875
 20
277.9000091552734
 10
242.699951171875
 20
278.0000152587891
 10
244.5999603271484
 20
277.4000091552734
 10
248.4999542236328
 20
276.3000030517578
 10
251.0999603271484
 20
273.1000061035156
 10
251.3999633789062
 20
268.8000030517578
 10
251.6999664306641
 20
266.1000061035156
 10
251.0999603271484
 20
263.6000061035156
 10
249.9999694824219
 20
261.1000061035156
 10
248.1999664306641
 20
257.4000091552734
 10
245.5999755859375
 20
254.5
 10
242.2999725341797
 20
252.0
 10
238.7999725341797
 20
249.3000030517578
 10
234.7999725341797
 20
247.3000030517578
 10
230.6999664306641
 20
245.6999969482422
 10
229.2999725341797
 20
245.1999969482422
 10
228.6999664306641
 20
244.3999938964844
 10
228.3999633789062
 20
243.0
 10
226.4999694824219
 20
235.1000061035156
 10
225.1999664306641
 20
227.1000061035156
 10
224.7999572753906
 20
219.0
 10
224.4999542236328
 20
212.8000030517578
 10
224.699951171875
 20
206.6000061035156
 10
225.5999603271484
 20
200.3999938964844
 10
225.5999603271484
 20
200.0999908447266
 10
225.5999603271484
 20
199.7999877929688
 10
225.7999572753906
 20
199.5
 10
226.0999603271484
 20
199.8000030517578
 10
226.0999603271484
 20
200.1999969482422
 10
226.199951171875
 20
200.5
 10
228.2999572753906
 20
206.5
 10
231.3999481201172
 20
211.8999938964844
 10
235.3999481201172
 20
216.6999969482422
 10
236.4999542236328
 20
218.0999908447266
 10
237.7999420166016
 20
219.3999938964844
 10
239.199951171875
 20
220.5
 10
239.9999542236328
 20
221.1999969482422
 10
240.9999542236328
 20
221.8000030517578
 10
241.8999481201172
 20
222.3999938964844
 10
246.4999542236328
 20
224.7999877929688
 10
252.0999450683594
 20
222.5999908447266
 10
253.7999420166016
 20
217.6999969482422
 10
254.4999389648438
 20
215.5999908447266
 10
254.5999450683594
 20
213.3999938964844
 10
254.4999389648438
 20
211.0999908447266
 10
254.2999420166016
 20
205.9999847412109
 10
253.3999328613281
 20
200.8999938964844
 10
252.4999389648438
 20
195.8999938964844
 10
251.4999389648438
 20
190.1999969482422
 10
250.7999420166016
 20
184.3999938964844
 10
250.1999359130859
 20
178.5999908447266
 10
249.9999389648438
 20
176.4999847412109
 10
249.7999420166016
 20
174.2999877929688
 10
249.6999359130859
 20
172.1999816894531
 10
249.4999389648438
 20
168.8999938964844
 10
249.5999298095703
 20
165.5999755859375
 10
250.3999328613281
 20
162.3999938964844
 10
250.6999359130859
 20
161.0
 10
251.1999359130859
 20
159.6999816894531
 10
251.9999389648438
 20
158.5
 10
252.8999328613281
 20
157.2000122070312
 10
253.2999420166016
 20
157.2000122070312
 10
254.2999420166016
 20
158.3999938964844
 10
255.1999359130859
 20
159.3999938964844
 10
255.6999359130859
 20
160.6000061035156
 10
256.0999450683594
 20
161.7999877929688
 10
256.8999328613281
 20
164.0999755859375
 10
257.4999389648438
 20
166.5999755859375
 10
257.9999389648438
 20
169.0
 10
259.5999450683594
 20
176.1000061035156
 10
260.7999267578125
 20
183.3000030517578
 10
261.9999389648438
 20
190.5
 10
262.0999450683594
 20
191.0
 10
261.9999389648438
 20
191.5
 10
261.8999328613281
 20
191.8999938964844
 10
260.0999450683594
 20
198.5999908447266
 10
259.3999328613281
 20
205.3999938964844
 10
259.9999389648438
 20
212.2999877929688
 10
260.3999328613281
 20
216.6999816894531
 10
261.3999328613281
 20
220.8999938964844
 10
263.4999389648438
 20
224.7999877929688
 10
264.5999450683594
 20
226.8999938964844
 10
265.9999389648438
 20
228.8999938964844
 10
267.699951171875
 20
230.4999847412109
 10
270.0999450683594
 20
232.6999816894531
 10
272.8999633789062
 20
233.9999847412109
 10
276.199951171875
 20
234.1999816894531
 10
284.0999450683594
 20
234.4999847412109
 10
289.7999572753906
 20
225.8999786376953
 10
286.3999633789062
 20
218.7999877929688
 10
285.4999694824219
 20
216.8999938964844
 10
283.9999694824219
 20
215.4999847412109
 10
282.0999755859375
 20
214.4999847412109
 10
278.9999694824219
 20
212.8999786376953
 10
275.5999755859375
 20
212.2999877929688
 10
272.0999755859375
 20
212.5999908447266
 10
270.7999877929688
 20
212.6999969482422
 10
270.7999877929688
 20
212.6999969482422
 10
270.6999816894531
 20
211.3999938964844
 10
270.0999755859375
 20
203.2999877929688
 10
271.4999694824219
 20
195.5999908447266
 10
274.2999877929688
 20
188.0
 10
274.8999938964844
 20
186.5
 10
275.7999877929688
 20
185.1000061035156
 10
276.7999877929688
 20
183.8000030517578
 10
278.3999938964844
 20
181.9000091552734
 10
280.1999816894531
 20
181.3000030517578
 10
282.5999755859375
 20
182.0
 10
284.1999816894531
 20
182.5
 10
285.5999755859375
 20
183.3999938964844
 10
286.8999633789062
 20
184.5
 10
289.199951171875
 20
186.5
 10
290.8999633789062
 20
188.8999938964844
 10
292.3999633789062
 20
191.5
 10
294.699951171875
 20
195.5
 10
296.2999572753906
 20
199.8000030517578
 10
297.4999694824219
 20
204.1999969482422
 10
299.7999572753906
 20
212.3999938964844
 10
301.0999755859375
 20
220.6999969482422
 10
300.6999816894531
 20
229.1999969482422
 10
300.6999816894531
 20
229.8999938964844
 10
300.5999755859375
 20
230.5999908447266
 10
300.5999755859375
 20
231.3000030517578
 10
300.5999755859375
 20
231.8000030517578
 10
300.3999633789062
 20
232.0
 10
299.8999633789062
 20
232.0
 10
297.7999572753906
 20
232.3999938964844
 10
295.5999755859375
 20
232.8999938964844
 10
293.4999694824219
 20
233.5
 10
290.9999694824219
 20
234.3000030517578
 10
288.5999755859375
 20
235.1999969482422
 10
286.3999633789062
 20
236.6000061035156
 10
284.8999633789062
 20
237.6000061035156
 10
283.4999694824219
 20
238.7000122070312
 10
282.3999633789062
 20
240.2000122070312
 10
280.199951171875
 20
243.2000122070312
 10
279.4999694824219
 20
246.6000061035156
 10
280.7999572753906
 20
250.2000122070312
 10
282.2999572753906
 20
254.5000152587891
 10
286.3999633789062
 20
256.6000061035156
 10
290.7999572753906
 20
255.5000152587891
 10
292.7999572753906
 20
255.0000152587891
 10
294.4999694824219
 20
253.9000091552734
 10
295.9999694824219
 20
252.5000152587891
 10
297.4999694824219
 20
251.1000213623047
 10
298.5999755859375
 20
249.4000091552734
 10
299.5999755859375
 20
247.6000213623047
 10
301.6999816894531
 20
243.8000183105469
 10
302.7999877929688
 20
239.7000274658203
 10
303.3999633789062
 20
235.4000244140625
 10
303.4999694824219
 20
234.5000305175781
 10
303.4999694824219
 20
234.5000305175781
 10
304.3999633789062
 20
234.4000244140625
 10
306.9999694824219
 20
234.0000305175781
 10
309.5999755859375
 20
233.8000183105469
 10
312.199951171875
 20
234.0000305175781
 10
313.5999450683594
 20
234.1000366210938
 10
314.8999633789062
 20
233.8000335693359
 10
316.0999450683594
 20
233.2000274658203
 10
318.2999572753906
 20
232.0000305175781
 10
319.4999389648438
 20
230.2000274658203
 10
319.699951171875
 20
227.7000274658203
 10
319.7999572753906
 20
225.6000213623047
 10
319.3999633789062
 20
223.6000213623047
 10
318.9999389648438
 20
221.6000213623047
 10
317.9999389648438
 20
216.8000183105469
 10
316.9999389648438
 20
212.0000152587891
 10
316.2999267578125
 20
207.2000274658203
 10
315.3999328613281
 20
200.7000274658203
 10
314.7999267578125
 20
194.2000274658203
 10
314.9999389648438
 20
187.6000213623047
 10
315.0999450683594
 20
183.8000183105469
 10
315.199951171875
 20
180.0000152587891
 10
315.2999267578125
 20
176.2000274658203
 10
315.2999267578125
 20
174.5000305175781
 10
315.4999389648438
 20
172.9000244140625
 10
316.0999145507812
 20
171.3000183105469
 10
316.39990234375
 20
170.4000244140625
 10
316.7999267578125
 20
169.5000305175781
 10
317.39990234375
 20
168.8000183105469
 10
317.9999084472656
 20
168.2000122070312
 10
318.2998962402344
 20
168.1000061035156
 10
318.9999084472656
 20
168.7000122070312
 10
319.4999084472656
 20
169.1000061035156
 10
319.89990234375
 20
169.6000061035156
 10
320.1999206542969
 20
170.1000061035156
 10
320.9999084472656
 20
171.2000122070312
 10
321.5999145507812
 20
172.5
 10
322.2999267578125
 20
173.7000122070312
 10
324.3999328613281
 20
177.8000183105469
 10
325.8999328613281
 20
182.1000061035156
 10
327.5999145507812
 20
186.4000091552734
 10
328.1999206542969
 20
188.0000152587891
 10
328.2999267578125
 20
189.5000152587891
 10
327.89990234375
 20
191.1000061035156
 10
327.1998901367188
 20
193.9000091552734
 10
326.9999084472656
 20
196.9000091552734
 10
326.89990234375
 20
199.8000030517578
 10
326.4999084472656
 20
207.1000061035156
 10
326.9999084472656
 20
214.3000030517578
 10
328.7998962402344
 20
221.4000091552734
 10
329.1998901367188
 20
223.1000061035156
 10
329.6998901367188
 20
224.8000030517578
 10
330.39990234375
 20
226.4000091552734
 10
331.0999145507812
 20
228.3000030517578
 10
332.2998962402344
 20
229.8000030517578
 10
333.7998962402344
 20
231.1000061035156
 10
335.0998840332031
 20
232.2000122070312
 10
336.89990234375
 20
231.9000091552734
 10
337.89990234375
 20
231.1000061035156
 10
338.4999084472656
 20
230.6000061035156
 10
338.6998901367188
 20
230.0
 10
338.89990234375
 20
229.3000030517578
 10
339.39990234375
 20
227.1000061035156
 10
339.2998962402344
 20
224.8000030517578
 10
338.9999084472656
 20
222.6000061035156
 10
338.39990234375
 20
218.4000091552734
 10
337.89990234375
 20
214.1000061035156
 10
337.5999145507812
 20
209.9000091552734
 10
337.2999267578125
 20
204.5000152587891
 10
337.4999084472656
 20
199.0000152587891
 10
338.2999267578125
 20
193.6000061035156
 10
338.2999267578125
 20
193.5
 10
338.2999267578125
 20
193.4000091552734
 10
338.5999145507812
 20
193.3000030517578
 10
338.6999206542969
 20
193.9000091552734
 10
338.7999267578125
 20
194.4000091552734
 10
338.89990234375
 20
195.0
 10
340.39990234375
 20
204.1000061035156
 10
343.1998901367188
 20
212.8000030517578
 10
347.6998901367188
 20
221.0
 10
349.4998779296875
 20
224.3000030517578
 10
351.5998840332031
 20
227.5
 10
354.2998962402344
 20
230.1999969482422
 10
355.4999084472656
 20
231.3999938964844
 10
356.89990234375
 20
232.3999938964844
 10
358.4999084472656
 20
232.8999938964844
 10
360.39990234375
 20
233.5
 10
362.2998962402344
 20
233.3999938964844
 10
364.0999145507812
 20
232.5
 10
366.1999206542969
 20
231.5
 10
367.5999145507812
 20
229.8999938964844
 10
368.5999145507812
 20
227.8000030517578
 10
369.39990234375
 20
226.1000061035156
 10
369.7999267578125
 20
224.1999969482422
 10
369.9999084472656
 20
222.3000030517578
 10
370.39990234375
 20
218.6000061035156
 10
370.0999145507812
 20
214.9000091552734
 10
369.6999206542969
 20
211.1999969482422
 10
369.0999145507812
 20
205.0
 10
368.4999084472656
 20
198.8999938964844
 10
367.7999267578125
 20
192.6999969482422
 10
367.3999328613281
 20
189.0999908447266
 10
366.8999328613281
 20
185.5
 10
366.5999145507812
 20
181.8999938964844
 10
366.1999206542969
 20
178.0999908447266
 10
365.9999084472656
 20
174.2999877929688
 10
366.2999267578125
 20
170.5
 10
366.3999328613281
 20
169.1000061035156
 10
366.6999206542969
 20
167.7999877929688
 10
367.2999267578125
 20
166.5
 10
367.7999267578125
 20
166.7999877929688
 10
368.1999206542969
 20
167.2000122070312
 10
368.4999389648438
 20
167.6000061035156
 10
369.2999267578125
 20
168.6000061035156
 10
369.8999328613281
 20
169.7000122070312
 10
370.4999389648438
 20
170.8000183105469
 10
371.7999267578125
 20
173.1000061035156
 10
372.9999389648438
 20
175.4000244140625
 10
374.2999267578125
 20
177.6000213623047
 10
374.4999389648438
 20
178.0000152587891
 10
374.6999206542969
 20
178.4000244140625
 10
374.9999389648438
 20
178.8000183105469
 10
375.4999389648438
 20
179.5000152587891
 10
376.3999328613281
 20
179.8000183105469
 10
377.199951171875
 20
179.6000213623047
 10
377.8999633789062
 20
179.4000244140625
 10
378.199951171875
 20
178.9000244140625
 10
378.0999450683594
 20
178.2000274658203
 10
378.0999450683594
 20
177.9000244140625
 10
377.9999389648438
 20
177.6000213623047
 10
377.8999328613281
 20
177.3000335693359
 10
376.3999328613281
 20
173.7000427246094
 10
374.8999328613281
 20
170.1000366210938
 10
372.6999206542969
 20
166.9000244140625
 10
371.9999084472656
 20
165.9000244140625
 10
371.2999267578125
 20
165.0000305175781
 10
370.3999328613281
 20
164.3000183105469
 10
369.1999206542969
 20
163.4000244140625
 10
367.8999328613281
 20
162.8000183105469
 10
366.3999328613281
 20
162.8000183105469
 10
364.9999389648438
 20
162.8000183105469
 10
363.7999267578125
 20
163.3000183105469
 10
362.8999328613281
 20
164.4000244140625
 10
362.3999328613281
 20
165.0000305175781
 10
361.9999389648438
 20
165.6000366210938
 10
361.5999450683594
 20
166.3000183105469
 10
359.5999450683594
 20
169.7000122070312
 10
358.2999572753906
 20
173.4000244140625
 10
357.699951171875
 20
177.4000244140625
 10
356.8999633789062
 20
183.0000305175781
 10
356.7999572753906
 20
188.6000213623047
 10
357.2999572753906
 20
194.2000274658203
 10
357.8999633789062
 20
200.8000335693359
 10
358.699951171875
 20
207.3000335693359
 10
359.3999633789062
 20
213.9000244140625
 10
359.7999572753906
 20
218.0000305175781
 10
360.2999572753906
 20
222.1000213623047
 10
360.0999755859375
 20
226.2000274658203
 10
359.9999694824219
 20
228.0000305175781
 10
359.9999694824219
 20
228.0000305175781
 10
358.4999694824219
 20
227.0000305175781
 10
357.1999816894531
 20
226.2000274658203
 10
356.0999755859375
 20
225.2000274658203
 10
355.0999755859375
 20
224.1000366210938
 10
353.3999633789062
 20
222.2000427246094
 10
351.8999633789062
 20
220.1000366210938
 10
350.6999816894531
 20
217.8000335693359
 10
346.9999694824219
 20
211.1000366210938
 10
344.6999816894531
 20
204.0000305175781
 10
343.2999877929688
 20
196.5000305175781
 10
342.3999938964844
 20
191.4000244140625
 10
342.0999755859375
 20
186.3000335693359
 10
341.8999938964844
 20
181.2000274658203
 10
341.8999938964844
 20
180.5000305175781
 10
341.8999938964844
 20
179.7000274658203
 10
341.7999877929688
 20
179.0000305175781
 10
341.5999755859375
 20
177.9000244140625
 10
341.0
 20
177.2000274658203
 10
340.0
 20
176.7000274658203
 10
338.3999938964844
 20
176.0000305175781
 10
336.7999877929688
 20
176.2000274658203
 10
335.2999877929688
 20
177.2000274658203
 10
334.5
 20
177.7000274658203
 10
333.8999938964844
 20
178.3000335693359
 10
333.3999938964844
 20
179.0000305175781
 10
332.3999938964844
 20
180.2000274658203
 10
331.6000061035156
 20
181.5000305175781
 10
330.8999938964844
 20
182.8000335693359
 10
330.7999877929688
 20
183.1000366210938
 10
330.6999816894531
 20
183.4000396728516
 10
330.2999877929688
 20
183.6000366210938
 10
330.1999816894531
 20
183.3000335693359
 10
330.0999755859375
 20
183.0000305175781
 10
329.8999938964844
 20
182.7000427246094
 10
328.6999816894531
 20
179.5000457763672
 10
327.6999816894531
 20
176.2000427246094
 10
326.1999816894531
 20
173.0000305175781
 10
325.4999694824219
 20
171.4000244140625
 10
324.6999816894531
 20
169.8000183105469
 10
323.6999816894531
 20
168.4000244140625
 10
322.6999816894531
 20
166.9000244140625
 10
321.3999938964844
 20
165.7000122070312
 10
319.6999816894531
 20
165.0000305175781
 10
316.9999694824219
 20
163.9000244140625
 10
314.4999694824219
 20
164.2000427246094
 10
312.2999877929688
 20
166.2000427246094
 10
311.2999877929688
 20
167.1000366210938
 10
310.5
 20
168.1000366210938
 10
309.7999877929688
 20
169.2000427246094
 10
307.6999816894531
 20
172.2000427246094
 10
306.1999816894531
 20
175.5000305175781
 10
305.3999938964844
 20
179.1000366210938
 10
304.7999877929688
 20
181.5000305175781
 10
304.5
 20
183.8000335693359
 10
304.5
 20
186.3000335693359
 10
304.2000122070312
 20
194.7000274658203
 10
305.0
 20
202.9000396728516
 10
306.2999877929688
 20
211.2000274658203
 10
307.2999877929688
 20
217.2000274658203
 10
308.7999877929688
 20
223.2000274658203
 10
310.1999816894531
 20
229.1000213623047
 10
310.4999694824219
 20
230.4000244140625
 10
310.4999694824219
 20
230.4000244140625
 10
309.1999816894531
 20
230.6000213623047
 10
307.7999877929688
 20
230.8000183105469
 10
306.3999938964844
 20
231.0000152587891
 10
304.8999938964844
 20
231.1000213623047
 10
304.1999816894531
 20
231.2000274658203
 10
304.1999816894531
 20
231.2000274658203
 10
304.1999816894531
 20
230.5000152587891
 10
304.2999877929688
 20
228.5000152587891
 10
304.3999938964844
 20
226.5000152587891
 10
304.2999877929688
 20
224.4000091552734
 10
304.0
 20
215.6000061035156
 10
302.6999816894531
 20
207.0000152587891
 10
299.8999938964844
 20
198.7000122070312
 10
298.6999816894531
 20
195.0000152587891
 10
297.1000061035156
 20
191.5000152587891
 10
295.0
 20
188.2000122070312
 10
293.3999938964844
 20
185.6000061035156
 10
291.5
 20
183.2000122070312
 10
289.2000122070312
 20
181.1000061035156
 10
286.4000244140625
 20
178.6000061035156
 10
283.1000061035156
 20
177.2000122070312
 10
279.4000244140625
 20
177.1000061035156
 10
275.0000305175781
 20
176.9000091552734
 10
271.2000122070312
 20
178.5
 10
268.0000305175781
 20
181.6000061035156
 10
267.1000366210938
 20
182.5
 10
266.3000183105469
 20
183.4000091552734
 10
265.6000366210938
 20
184.4000091552734
 10
265.4000244140625
 20
184.6000061035156
 10
265.300048828125
 20
184.9000091552734
 10
265.0000305175781
 20
185.1000061035156
 10
264.7000427246094
 20
184.9000091552734
 10
264.8000183105469
 20
184.5
 10
264.7000427246094
 20
184.2000122070312
 10
263.7000427246094
 20
177.4000091552734
 10
262.5000305175781
 20
170.6000061035156
 10
260.800048828125
 20
164.0
 10
260.4000549316406
 20
162.5
 10
260.0000610351562
 20
161.0
 10
259.4000549316406
 20
159.5
 10
258.800048828125
 20
158.0
 10
257.9000549316406
 20
156.6000061035156
 10
256.7000427246094
 20
155.5
 10
254.1000366210938
 20
153.2000122070312
 10
250.800048828125
 20
153.0
 10
248.0000457763672
 20
155.1000061035156
 10
246.800048828125
 20
156.0
 10
245.800048828125
 20
157.2000122070312
 10
245.0000457763672
 20
158.5
 10
243.2000427246094
 20
161.3999938964844
 10
242.2000427246094
 20
164.6000061035156
 10
241.300048828125
 20
167.7999877929688
 10
239.800048828125
 20
173.5
 10
239.5000457763672
 20
179.1999816894531
 10
240.2000427246094
 20
184.9999847412109
 10
240.9000396728516
 20
190.5999908447266
 10
241.800048828125
 20
196.0999908447266
 10
242.7000427246094
 20
201.6999816894531
 10
243.4000396728516
 20
205.7999877929688
 10
244.0000457763672
 20
209.9999847412109
 10
244.300048828125
 20
214.1999816894531
 10
244.300048828125
 20
214.9999847412109
 10
244.300048828125
 20
215.7999877929688
 10
244.2000427246094
 20
216.4999847412109
 10
244.2000427246094
 20
216.8999786376953
 10
244.0000457763672
 20
216.9999847412109
 10
243.6000366210938
 20
216.8999786376953
 10
243.1000366210938
 20
216.6999816894531
 10
242.6000366210938
 20
216.3999786376953
 10
242.1000366210938
 20
216.0999755859375
 10
240.5000305175781
 20
215.0999755859375
 10
239.0000305175781
 20
213.7999725341797
 10
237.7000427246094
 20
212.3999786376953
 10
233.1000366210938
 20
207.4999847412109
 10
230.1000366210938
 20
201.5999755859375
 10
228.300048828125
 20
195.1999816894531
 10
227.800048828125
 20
193.4999847412109
 10
227.5000457763672
 20
191.7999877929688
 10
227.2000427246094
 20
190.0999755859375
 10
227.1000366210938
 20
189.2999725341797
 10
227.0000457763672
 20
188.5999755859375
 10
227.1000366210938
 20
187.7999725341797
 10
227.3000335693359
 20
185.9999694824219
 10
227.5000305175781
 20
184.1999664306641
 10
227.6000366210938
 20
182.4999694824219
 10
227.6000366210938
 20
181.9999694824219
 10
227.7000427246094
 20
181.4999694824219
 10
227.6000366210938
 20
180.8999633789062
 10
227.6000366210938
 20
179.9999694824219
 10
227.1000366210938
 20
179.3999633789062
 10
226.4000396728516
 20
179.0999603271484
 10
225.1000366210938
 20
178.3999633789062
 10
223.4000396728516
 20
178.6999664306641
 10
222.4000396728516
 20
179.7999572753906
 10
221.7000427246094
 20
180.5999603271484
 10
221.1000366210938
 20
181.4999542236328
 10
220.6000366210938
 20
182.3999633789062
 10
219.8000335693359
 20
183.8999633789062
 10
219.0000305175781
 20
185.3999633789062
 10
218.2000427246094
 20
186.8999633789062
 10
217.5000457763672
 20
188.3999633789062
 10
216.800048828125
 20
189.8999633789062
 10
216.300048828125
 20
191.4999694824219
 10
215.9000549316406
 20
191.2999725341797
 10
216.0000457763672
 20
190.9999694824219
 10
216.0000457763672
 20
190.6999664306641
 10
215.5000457763672
 20
187.2999725341797
 10
215.1000518798828
 20
183.8999633789062
 10
214.2000427246094
 20
180.5999603271484
 10
213.6000366210938
 20
178.3999633789062
 10
213.0000457763672
 20
176.2999572753906
 10
212.1000366210938
 20
174.199951171875
 10
211.7000427246094
 20
173.2999572753906
 10
211.2000427246094
 20
172.4999389648438
 10
210.6000366210938
 20
171.699951171875
 10
208.0000305175781
 20
168.3999633789062
 10
203.3000335693359
 20
167.5999450683594
 10
199.7000427246094
 20
169.7999572753906
 10
197.300048828125
 20
171.2999572753906
 10
195.6000366210938
 20
173.4999694824219
 10
194.1000366210938
 20
175.7999572753906
 10
191.5000305175781
 20
180.0999603271484
 10
189.6000366210938
 20
184.7999572753906
 10
188.3000335693359
 20
189.5999603271484
 10
187.0000305175781
 20
194.0999603271484
 10
186.2000274658203
 20
198.6999664306641
 10
185.6000366210938
 20
203.2999572753906
 10
185.2000427246094
 20
205.8999633789062
 10
184.9000396728516
 20
208.4999542236328
 10
184.6000366210938
 20
211.0999603271484
 10
184.6000366210938
 20
211.1999664306641
 10
184.6000366210938
 20
211.3999633789062
 10
184.5000305175781
 20
211.3999633789062
 10
184.2000274658203
 20
211.1999664306641
 10
184.3000335693359
 20
210.8999633789062
 10
184.2000274658203
 20
210.6999664306641
 10
182.8000335693359
 20
202.8999633789062
 10
181.6000213623047
 20
195.0999603271484
 10
180.3000335693359
 20
187.2999725341797
 10
179.6000366210938
 20
182.9999694824219
 10
178.8000335693359
 20
178.5999755859375
 10
177.6000366210938
 20
174.3999633789062
 10
177.1000366210938
 20
172.7999572753906
 10
176.6000366210938
 20
171.199951171875
 10
175.8000335693359
 20
169.7999572753906
 10
174.7000274658203
 20
167.8999633789062
 10
173.1000366210938
 20
166.699951171875
 10
171.0000305175781
 20
166.199951171875
 10
168.7000274658203
 20
165.699951171875
 10
166.6000366210938
 20
166.2999572753906
 10
164.8000335693359
 20
167.7999572753906
 10
163.1000366210938
 20
169.199951171875
 10
162.0000305175781
 20
170.9999694824219
 10
161.0000305175781
 20
172.9999694824219
 10
159.6000366210938
 20
176.0999755859375
 10
158.9000244140625
 20
179.2999725341797
 10
158.6000366210938
 20
182.5999755859375
 10
158.0000305175781
 20
188.8999786376953
 10
158.2000427246094
 20
195.1999816894531
 10
158.7000427246094
 20
201.4999694824219
 10
158.800048828125
 20
202.3999633789062
 10
158.9000396728516
 20
203.3999633789062
 10
158.9000396728516
 20
204.2999725341797
 10
158.9000396728516
 20
204.5999755859375
 10
159.0000457763672
 20
204.8999786376953
 10
158.8000335693359
 20
205.1999664306641
 10
158.5000305175781
 20
204.8999633789062
 10
158.5000305175781
 20
204.4999694824219
 10
158.3000335693359
 20
204.0999603271484
 10
157.2000274658203
 20
201.1999664306641
 10
156.2000274658203
 20
198.2999572753906
 10
154.9000396728516
 20
195.5999603271484
 10
154.3000335693359
 20
194.2999572753906
 10
153.6000366210938
 20
192.9999542236328
 10
152.7000427246094
 20
191.7999572753906
 10
151.4000396728516
 20
190.199951171875
 10
149.7000427246094
 20
189.0999603271484
 10
147.6000366210938
 20
188.8999633789062
 10
145.9000396728516
 20
188.7999572753906
 10
144.4000396728516
 20
189.1999664306641
 10
143.0000305175781
 20
189.9999694824219
 10
141.0000305175781
 20
191.1999664306641
 10
139.6000366210938
 20
192.8999633789062
 10
138.3000335693359
 20
194.6999664306641
 10
136.1000366210938
 20
197.8999633789062
 10
134.8000335693359
 20
201.5999603271484
 10
133.9000396728516
 20
205.3999633789062
 10
133.0000457763672
 20
209.5999603271484
 10
132.3000335693359
 20
213.7999572753906
 10
132.1000366210938
 20
217.9999694824219
 10
132.1000366210938
 20
218.2999725341797
 10
132.3000335693359
 20
218.7999725341797
 10
131.6000366210938
 20
218.6999664306641
 10
130.8000335693359
 20
218.5999603271484
 10
130.6000366210938
 20
218.4999694824219
 10
130.6000366210938
 20
217.7999725341797
 10
130.6000366210938
 20
214.5999755859375
 10
130.5000305175781
 20
211.4999694824219
 10
129.9000396728516
 20
208.3999786376953
 10
129.3000335693359
 20
205.1999816894531
 10
128.3000335693359
 20
202.1999816894531
 10
126.8000411987305
 20
199.2999725341797
 10
125.9000396728516
 20
197.5999755859375
 10
124.9000396728516
 20
195.9999694824219
 10
123.5000381469727
 20
194.6999664306641
 10
119.7000350952148
 20
191.1999664306641
 10
115.4000396728516
 20
189.8999633789062
 10
110.4000396728516
 20
191.3999633789062
 10
107.5000381469727
 20
192.2999572753906
 10
105.2000427246094
 20
194.0999603271484
 10
103.7000427246094
 20
196.6999664306641
 10
102.5000457763672
 20
198.6999664306641
 10
101.7000427246094
 20
200.7999725341797
 10
101.0000457763672
 20
202.9999694824219
 10
99.70004272460938
 20
207.3999633789062
 10
98.9000473022461
 20
211.8999633789062
 10
98.70004272460938
 20
216.3999633789062
 10
98.70004272460938
 20
216.6999664306641
 10
98.70004272460938
 20
216.8999633789062
 10
98.60004425048828
 20
217.1999664306641
 10
98.30004119873047
 20
217.2999725341797
 10
98.20004272460938
 20
217.0999603271484
 10
98.00004577636719
 20
216.8999633789062
 10
94.20004272460938
 20
213.5999603271484
 10
90.4000473022461
 20
210.2999572753906
 10
86.70004272460938
 20
206.8999633789062
 10
86.60004425048828
 20
206.7999572753906
 10
86.50004577636719
 20
206.6999664306641
 10
86.30004119873047
 20
206.5999603271484
 10
86.10004425048828
 20
206.3999633789062
 10
86.00003814697266
 20
206.1999664306641
 10
86.20004272460938
 20
205.8999633789062
 10
86.40003967285156
 20
205.6999664306641
 10
86.50004577636719
 20
205.3999633789062
 10
86.70004272460938
 20
205.1999664306641
 10
90.00004577636719
 20
200.3999633789062
 10
93.00004577636719
 20
195.4999694824219
 10
95.30004119873047
 20
190.0999603271484
 10
97.10004425048828
 20
185.8999633789062
 10
98.30004119873047
 20
181.4999542236328
 10
98.30004119873047
 20
176.9999542236328
 10
98.20004272460938
 20
169.199951171875
 10
95.00003814697266
 20
162.8999633789062
 10
88.10004425048828
 20
159.0999450683594
 10
81.30004119873047
 20
155.2999572753906
 10
74.20004272460938
 20
155.2999572753906
 10
67.50004577636719
 20
159.699951171875
 10
62.00004577636719
 20
163.3999633789062
 10
59.10004425048828
 20
168.699951171875
 10
59.30004501342773
 20
175.3999633789062
 10
59.40004348754883
 20
178.1999664306641
 10
60.20004653930664
 20
180.7999572753906
 10
61.30004501342773
 20
183.2999572753906
 10
62.50004577636719
 20
185.7999572753906
 10
63.90004348754883
 20
188.199951171875
 10
65.60004425048828
 20
190.3999633789062
 10
68.10004425048828
 20
193.6999664306641
 10
70.80004119873047
 20
196.7999572753906
 10
73.70004272460938
 20
199.6999664306641
 10
74.30004119873047
 20
200.2999725341797
 10
74.90003967285156
 20
200.8999633789062
 10
75.50004577636719
 20
201.4999694824219
 10
76.300048828125
 20
202.2999725341797
 10
76.20004272460938
 20
202.1999664306641
 10
75.70004272460938
 20
202.9999694824219
 10
73.10004425048828
 20
206.8999633789062
 10
70.30004119873047
 20
210.6999664306641
 10
67.60004425048828
 20
214.4999694824219
 10
64.70004272460938
 20
218.5999755859375
 10
61.90004348754883
 20
222.6999664306641
 10
59.60004425048828
 20
227.0999755859375
 10
57.00004577636719
 20
231.9999694824219
 10
55.10004425048828
 20
237.1999816894531
 10
54.30004501342773
 20
242.6999816894531
 10
53.30004501342773
 20
249.4999847412109
 10
54.00004577636719
 20
256.1999816894531
 10
57.20004653930664
 20
262.3999786376953
 10
59.00004577636719
 20
265.9999847412109
 10
61.60004806518555
 20
268.9999847412109
 10
64.9000473022461
 20
271.2999725341797
 10
72.60004425048828
 20
276.3999786376953
 10
82.10005187988281
 20
275.4999694824219
 10
88.70004272460938
 20
268.9999694824219
 10
92.20004272460938
 20
265.4999694824219
 10
94.20004272460938
 20
261.2999725341797
 10
95.00004577636719
 20
256.3999633789062
 10
95.20004272460938
 20
254.8999633789062
 10
95.4000473022461
 20
253.3999633789062
 10
95.4000473022461
 20
251.8999633789062
 10
95.5
 20
252.5
 10
95.5
 20
252.3000030517578
 10
95.5999984741211
 20
252.0
 97
        0
 97
        0
 92
        1
 93
        1
 72
     4
 94
        3
 73
     0
 74
     1
 95
      191
 96
      187
 40
0.0
 40
0.0
 40
0.0
 40
0.0
 40
1.0
 40
1.0
 40
1.0
 40
2.0
 40
2.0
 40
2.0
 40
3.0
 40
3.0
 40
3.0
 40
4.0
 40
4.0
 40
4.0
 40
5.0
 40
5.0
 40
5.0
 40
6.0
 40
6.0
 40
6.0
 40
7.0
 40
7.0
 40
7.0
 40
8.0
 40
8.0
 40
8.0
 40
9.0
 40
9.0
 40
9.0
 40
10.0
 40
10.0
 40
10.0
 40
11.0
 40
11.0
 40
11.0
 40
12.0
 40
12.0
 40
12.0
 40
13.0
 40
13.0
 40
13.0
 40
14.0
 40
14.0
 40
14.0
 40
15.0
 40
15.0
 40
15.0
 40
16.0
 40
16.0
 40
16.0
 40
17.0
 40
17.0
 40
17.0
 40
18.0
 40
18.0
 40
18.0
 40
19.0
 40
19.0
 40
19.0
 40
20.0
 40
20.0
 40
20.0
 40
21.0
 40
21.0
 40
21.0
 40
22.0
 40
22.0
 40
22.0
 40
23.0
 40
23.0
 40
23.0
 40
24.0
 40
24.0
 40
24.0
 40
25.0
 40
25.0
 40
25.0
 40
26.0
 40
26.0
 40
26.0
 40
27.0
 40
27.0
 40
27.0
 40
28.0
 40
28.0
 40
28.0
 40
29.0
 40
29.0
 40
29.0
 40
30.0
 40
30.0
 40
30.0
 40
31.0
 40
31.0
 40
31.0
 40
32.0
 40
32.0
 40
32.0
 40
33.0
 40
33.0
 40
33.0
 40
34.0
 40
34.0
 40
34.0
 40
35.0
 40
35.0
 40
35.0
 40
36.0
 40
36.0
 40
36.0
 40
37.0
 40
37.0
 40
37.0
 40
38.0
 40
38.0
 40
38.0
 40
39.0
 40
39.0
 40
39.0
 40
40.0
 40
40.0
 40
40.0
 40
41.0
 40
41.0
 40
41.0
 40
42.0
 40
42.0
 40
42.0
 40
43.0
 40
43.0
 40
43.0
 40
44.0
 40
44.0
 40
44.0
 40
45.0
 40
45.0
 40
45.0
 40
46.0
 40
46.0
 40
46.0
 40
47.0
 40
47.0
 40
47.0
 40
48.0
 40
48.0
 40
48.0
 40
49.0
 40
49.0
 40
49.0
 40
50.0
 40
50.0
 40
50.0
 40
51.0
 40
51.0
 40
51.0
 40
52.0
 40
52.0
 40
52.0
 40
53.0
 40
53.0
 40
53.0
 40
54.0
 40
54.0
 40
54.0
 40
55.0
 40
55.0
 40
55.0
 40
56.0
 40
56.0
 40
56.0
 40
57.0
 40
57.0
 40
57.0
 40
58.0
 40
58.0
 40
58.0
 40
59.0
 40
59.0
 40
59.0
 40
60.0
 40
60.0
 40
60.0
 40
61.0
 40
61.0
 40
61.0
 40
62.0
 40
62.0
 40
62.0
 40
62.0
 10
168.8000030517578
 20
193.5
 10
168.8000030517578
 20
191.3999938964844
 10
168.8000030517578
 20
189.6000061035156
 10
168.9000091552734
 20
187.8000030517578
 10
169.2000122070312
 20
184.1000061035156
 10
169.5000152587891
 20
180.3000030517578
 10
169.8000030517578
 20
176.6000061035156
 10
169.9000091552734
 20
175.6000061035156
 10
170.0
 20
174.7000122070312
 10
170.1999969482422
 20
173.7000122070312
 10
170.3000030517578
 20
173.1000061035156
 10
170.5
 20
172.4000244140625
 10
170.8999938964844
 20
171.9000244140625
 10
171.2999877929688
 20
171.3000183105469
 10
171.3999938964844
 20
171.3000183105469
 10
171.7999877929688
 20
171.9000244140625
 10
172.1999816894531
 20
172.6000366210938
 10
172.4999847412109
 20
173.3000183105469
 10
172.6999816894531
 20
174.0000305175781
 10
173.2999877929688
 20
175.7000427246094
 10
173.6999816894531
 20
177.4000244140625
 10
174.0999755859375
 20
179.1000366210938
 10
175.5999755859375
 20
186.1000366210938
 10
176.7999725341797
 20
193.1000366210938
 10
178.1999816894531
 20
200.1000366210938
 10
179.7999877929688
 20
208.4000396728516
 10
181.2999877929688
 20
216.8000335693359
 10
182.8999786376953
 20
225.2000427246094
 10
183.0999755859375
 20
226.4000396728516
 10
183.4999847412109
 20
227.6000366210938
 10
183.4999847412109
 20
228.800048828125
 10
183.4999847412109
 20
232.1000518798828
 10
183.4999847412109
 20
235.4000549316406
 10
183.4999847412109
 20
238.7000427246094
 10
183.4999847412109
 20
239.2000427246094
 10
183.2999877929688
 20
239.5000457763672
 10
182.7999877929688
 20
239.5000457763672
 10
182.5999908447266
 20
239.5000457763672
 10
182.3999938964844
 20
239.5000457763672
 10
182.1999816894531
 20
239.6000518798828
 10
178.0999755859375
 20
240.0000457763672
 10
174.0999755859375
 20
240.6000518798828
 10
169.9999847412109
 20
241.300048828125
 10
158.8999786376953
 20
243.300048828125
 10
147.8999786376953
 20
245.5000457763672
 10
136.8999938964844
 20
247.800048828125
 10
129.8999938964844
 20
249.300048828125
 10
122.7999954223633
 20
250.4000549316406
 10
115.5999908447266
 20
250.6000518798828
 10
109.3999938964844
 20
250.800048828125
 10
103.1999893188477
 20
250.4000549316406
 10
96.99999237060547
 20
249.2000579833984
 10
94.79999542236328
 20
248.7000579833984
 10
95.29999542236328
 20
249.2000579833984
 10
94.99999237060547
 20
247.1000518798828
 10
93.19998931884766
 20
233.6000518798828
 10
80.79999542236328
 20
220.6000518798828
 10
76.49999237060547
 20
229.1000518798828
 10
75.79999542236328
 20
230.4000549316406
 10
75.69998931884766
 20
231.800048828125
 10
75.99999237060547
 20
233.300048828125
 10
76.79999542236328
 20
237.800048828125
 10
78.89999389648438
 20
241.6000518798828
 10
81.99999237060547
 20
244.9000549316406
 10
84.49999237060547
 20
247.5000610351562
 10
87.39999389648438
 20
249.4000549316406
 10
90.69998931884766
 20
250.6000518798828
 10
91.09999084472656
 20
250.800048828125
 10
91.39998626708984
 20
250.9000549316406
 10
91.49999237060547
 20
251.4000549316406
 10
91.59999084472656
 20
254.7000579833984
 10
91.39999389648438
 20
258.0000610351562
 10
90.29999542236328
 20
261.1000518798828
 10
88.89999389648438
 20
265.0000457763672
 10
86.5999984741211
 20
268.1000518798828
 10
82.89999389648438
 20
270.1000518798828
 10
78.59999084472656
 20
272.4000549316406
 10
73.79999542236328
 20
271.6000518798828
 10
70.49999237060547
 20
268.0000457763672
 10
69.49999237060547
 20
266.9000396728516
 10
68.69998931884766
 20
265.7000427246094
 10
67.99999237060547
 20
264.4000396728516
 10
64.29999542236328
 20
256.8000335693359
 10
63.29999160766602
 20
248.9000396728516
 10
65.39999389648438
 20
240.6000366210938
 10
66.59999084472656
 20
235.6000366210938
 10
68.79999542236328
 20
231.1000366210938
 10
71.59999084472656
 20
226.8000335693359
 10
75.19998931884766
 20
221.2000274658203
 10
79.39999389648438
 20
216.0000305175781
 10
83.29998779296875
 20
210.6000366210938
 10
83.69998931884766
 20
210.0000305175781
 10
83.69998931884766
 20
210.0000305175781
 10
84.29998779296875
 20
210.5000305175781
 10
87.29998779296875
 20
213.1000366210938
 10
90.39998626708984
 20
215.6000366210938
 10
93.39998626708984
 20
218.2000274658203
 10
94.99998474121094
 20
219.7000274658203
 10
96.59998321533203
 20
221.2000274658203
 10
98.09998321533203
 20
222.8000335693359
 10
98.59998321533203
 20
223.4000396728516
 10
98.59998321533203
 20
223.4000396728516
 10
98.19998168945312
 20
224.1000366210938
 10
96.39997863769531
 20
226.8000335693359
 10
96.09998321533203
 20
229.7000427246094
 10
97.29998016357422
 20
232.8000335693359
 10
97.9999771118164
 20
234.6000366210938
 10
99.09998321533203
 20
236.2000274658203
 10
100.3999786376953
 20
237.6000366210938
 10
104.1999816894531
 20
241.6000366210938
 10
108.6999816894531
 20
243.5000305175781
 10
114.2999801635742
 20
242.8000335693359
 10
118.1999816894531
 20
242.3000335693359
 10
121.2999801635742
 20
240.4000396728516
 10
123.8999786376953
 20
237.6000366210938
 10
127.0999755859375
 20
234.1000366210938
 10
128.9999847412109
 20
230.0000305175781
 10
129.8999786376953
 20
225.4000396728516
 10
130.0999755859375
 20
224.5000457763672
 10
130.1999816894531
 20
223.6000366210938
 10
130.2999725341797
 20
222.7000427246094
 10
130.2999725341797
 20
222.5000457763672
 10
130.2999725341797
 20
222.2000427246094
 10
130.5999755859375
 20
222.1000366210938
 10
130.9999694824219
 20
222.0000305175781
 10
131.3999786376953
 20
222.2000427246094
 10
131.6999816894531
 20
222.3000335693359
 10
132.0999755859375
 20
222.4000396728516
 10
131.8999786376953
 20
222.8000335693359
 10
131.8999786376953
 20
223.1000366210938
 10
131.9999847412109
 20
224.3000335693359
 10
131.9999847412109
 20
225.5000305175781
 10
132.1999816894531
 20
226.7000427246094
 10
132.3999786376953
 20
228.4000396728516
 10
132.5999755859375
 20
230.1000366210938
 10
133.2999877929688
 20
231.6000366210938
 10
133.7999877929688
 20
232.8000335693359
 10
134.5999908447266
 20
233.6000366210938
 10
135.7999877929688
 20
234.0000305175781
 10
137.4999847412109
 20
234.6000366210938
 10
139.1999816894531
 20
234.4000244140625
 10
140.7999877929688
 20
233.4000244140625
 10
141.8999938964844
 20
232.7000274658203
 10
142.4999847412109
 20
231.8000183105469
 10
142.5999908447266
 20
230.5000305175781
 10
142.6999969482422
 20
229.6000366210938
 10
142.6999969482422
 20
228.7000274658203
 10
142.5999908447266
 20
227.9000244140625
 10
142.2999877929688
 20
222.0000305175781
 10
142.6999969482422
 20
216.2000274658203
 10
143.8999938964844
 20
210.4000244140625
 10
144.8999938964844
 20
205.8000183105469
 10
146.0999908447266
 20
201.3000183105469
 10
147.1999969482422
 20
196.7000274658203
 10
147.3999938964844
 20
195.9000244140625
 10
147.6999969482422
 20
195.2000274658203
 10
148.0
 20
194.5000305175781
 10
148.3999938964844
 20
193.6000366210938
 10
148.6000061035156
 20
193.6000366210938
 10
149.1999969482422
 20
194.4000244140625
 10
150.0
 20
195.3000183105469
 10
150.5
 20
196.2000274658203
 10
151.0999908447266
 20
197.3000183105469
 10
152.1999969482422
 20
199.4000244140625
 10
152.9999847412109
 20
201.5000152587891
 10
153.7999877929688
 20
203.7000122070312
 10
155.4999847412109
 20
208.3000183105469
 10
157.0999908447266
 20
213.0000152587891
 10
158.6999816894531
 20
217.6000061035156
 10
159.6999816894531
 20
220.4000091552734
 10
160.8999786376953
 20
223.1000061035156
 10
161.6999816894531
 20
226.0
 10
161.9999847412109
 20
226.8999938964844
 10
162.6999816894531
 20
227.3999938964844
 10
163.4999847412109
 20
227.8000030517578
 10
165.9999847412109
 20
228.8000030517578
 10
170.4999847412109
 20
227.6000061035156
 10
170.9999847412109
 20
223.5
 10
171.0999908447266
 20
222.3999938964844
 10
171.1999816894531
 20
221.1999969482422
 10
171.0999908447266
 20
220.1000061035156
 10
170.7999877929688
 20
215.9000091552734
 10
170.1999969482422
 20
211.8000030517578
 10
169.6999969482422
 20
207.6000061035156
 10
169.3999938964844
 20
202.6999969482422
 10
169.0
 20
198.0
 10
168.8000030517578
 20
193.5
 97
        0
 97
        0
 92
        1
 93
        1
 72
     4
 94
        3
 73
     0
 74
     1
 95
       53
 96
       49
 40
0.0
 40
0.0
 40
0.0
 40
0.0
 40
1.0
 40
1.0
 40
1.0
 40
2.0
 40
2.0
 40
2.0
 40
3.0
 40
3.0
 40
3.0
 40
4.0
 40
4.0
 40
4.0
 40
5.0
 40
5.0
 40
5.0
 40
6.0
 40
6.0
 40
6.0
 40
7.0
 40
7.0
 40
7.0
 40
8.0
 40
8.0
 40
8.0
 40
9.0
 40
9.0
 40
9.0
 40
10.0
 40
10.0
 40
10.0
 40
11.0
 40
11.0
 40
11.0
 40
12.0
 40
12.0
 40
12.0
 40
13.0
 40
13.0
 40
13.0
 40
14.0
 40
14.0
 40
14.0
 40
15.0
 40
15.0
 40
15.0
 40
16.0
 40
16.0
 40
16.0
 40
16.0
 10
216.8000030517578
 20
241.1000061035156
 10
216.5
 20
241.2000122070312
 10
216.3000030517578
 20
241.2000122070312
 10
216.1000061035156
 20
241.1000061035156
 10
209.2000122070312
 20
239.5
 10
202.3000030517578
 20
238.7000122070312
 10
195.2000122070312
 20
238.7000122070312
 10
194.2000122070312
 20
238.7000122070312
 10
194.2000122070312
 20
238.7000122070312
 10
194.2000122070312
 20
237.7000122070312
 10
194.2000122070312
 20
234.6000061035156
 10
194.2000122070312
 20
231.5000152587891
 10
194.3000183105469
 20
228.4000091552734
 10
194.5000152587891
 20
221.9000091552734
 10
194.9000244140625
 20
215.5000152587891
 10
195.7000122070312
 20
209.0000152587891
 10
196.4000091552734
 20
203.0000152587891
 10
197.6000061035156
 20
197.1000213623047
 10
199.0000152587891
 20
191.3000183105469
 10
200.1000213623047
 20
186.7000122070312
 10
201.3000183105469
 20
182.2000122070312
 10
203.0000152587891
 20
177.9000244140625
 10
203.5000152587891
 20
176.6000213623047
 10
204.1000213623047
 20
175.4000244140625
 10
204.9000091552734
 20
174.3000183105469
 10
205.7000122070312
 20
173.3000183105469
 10
206.1000061035156
 20
173.3000183105469
 10
206.9000091552734
 20
174.3000183105469
 10
207.5000152587891
 20
175.0000305175781
 10
207.9000091552734
 20
175.8000183105469
 10
208.2000122070312
 20
176.7000122070312
 10
209.3000183105469
 20
179.2000122070312
 10
210.0000152587891
 20
181.8000183105469
 10
210.5000152587891
 20
184.4000091552734
 10
211.5000152587891
 20
190.2000122070312
 10
212.4000091552734
 20
195.9000091552734
 10
213.5000152587891
 20
201.7000122070312
 10
213.9000091552734
 20
203.9000091552734
 10
214.0000152587891
 20
206.1000061035156
 10
213.7000122070312
 20
208.4000091552734
 10
213.7000122070312
 20
208.7000122070312
 10
213.7000122070312
 20
209.0000152587891
 10
213.6000061035156
 20
209.3000030517578
 10
213.3000030517578
 20
217.9000091552734
 10
213.9000091552734
 20
226.3000030517578
 10
215.4000091552734
 20
234.8000030517578
 10
215.8999938964844
 20
236.8999938964844
 10
216.3999938964844
 20
239.0
 10
216.8000030517578
 20
241.1000061035156
 97
        0
 97
        0
 92
        1
 93
        1
 72
     4
 94
        3
 73
     0
 74
     1
 95
       35
 96
       31
 40
0.0
 40
0.0
 40
0.0
 40
0.0
 40
1.0
 40
1.0
 40
1.0
 40
2.0
 40
2.0
 40
2.0
 40
3.0
 40
3.0
 40
3.0
 40
4.0
 40
4.0
 40
4.0
 40
5.0
 40
5.0
 40
5.0
 40
6.0
 40
6.0
 40
6.0
 40
7.0
 40
7.0
 40
7.0
 40
8.0
 40
8.0
 40
8.0
 40
9.0
 40
9.0
 40
9.0
 40
10.0
 40
10.0
 40
10.0
 40
10.0
 10
88.0
 20
174.8999938964844
 10
88.0
 20
177.7999877929688
 10
87.5999984741211
 20
180.2999877929688
 10
86.5999984741211
 20
183.2999877929688
 10
84.69999694824219
 20
188.9999847412109
 10
81.79999542236328
 20
194.0999908447266
 10
78.69999694824219
 20
199.1999816894531
 10
78.29999542236328
 20
199.7999877929688
 10
78.29999542236328
 20
199.7999877929688
 10
77.79999542236328
 20
199.2999877929688
 10
75.89999389648438
 20
197.3999938964844
 10
74.0999984741211
 20
195.4999847412109
 10
72.39999389648438
 20
193.4999847412109
 10
70.39999389648438
 20
191.1999816894531
 10
68.49999237060547
 20
188.6999816894531
 10
66.79999542236328
 20
186.0999908447266
 10
65.49999237060547
 20
183.8999938964844
 10
64.39999389648438
 20
181.5999908447266
 10
63.69999694824219
 20
179.1999969482422
 10
63.09999847412109
 20
177.0999908447266
 10
62.99999618530273
 20
174.8999938964844
 10
63.49999618530273
 20
172.7000122070312
 10
65.19999694824219
 20
165.6000061035156
 10
72.19999694824219
 20
160.9000244140625
 10
79.39999389648438
 20
162.1000061035156
 10
83.59999084472656
 20
162.8000183105469
 10
86.19999694824219
 20
165.1000061035156
 10
87.19999694824219
 20
169.3000183105469
 10
87.80000305175781
 20
171.1000061035156
 10
88.0
 20
173.0
 10
88.0
 20
174.8999938964844
 97
        0
 97
        0
 92
        1
 93
        1
 72
     4
 94
        3
 73
     0
 74
     1
 95
       47
 96
       43
 40
0.0
 40
0.0
 40
0.0
 40
0.0
 40
1.0
 40
1.0
 40
1.0
 40
2.0
 40
2.0
 40
2.0
 40
3.0
 40
3.0
 40
3.0
 40
4.0
 40
4.0
 40
4.0
 40
5.0
 40
5.0
 40
5.0
 40
6.0
 40
6.0
 40
6.0
 40
7.0
 40
7.0
 40
7.0
 40
8.0
 40
8.0
 40
8.0
 40
9.0
 40
9.0
 40
9.0
 40
10.0
 40
10.0
 40
10.0
 40
11.0
 40
11.0
 40
11.0
 40
12.0
 40
12.0
 40
12.0
 40
13.0
 40
13.0
 40
13.0
 40
14.0
 40
14.0
 40
14.0
 40
14.0
 10
117.8000030517578
 20
220.1000061035156
 10
120.4000015258789
 20
220.1000061035156
 10
123.0
 20
220.7000122070312
 10
125.5
 20
221.1000061035156
 10
126.0
 20
221.2000122070312
 10
126.0
 20
221.4000091552734
 10
126.0
 20
221.9000091552734
 10
125.9000015258789
 20
223.1000061035156
 10
125.5999984741211
 20
224.3000030517578
 10
125.3000030517578
 20
225.4000091552734
 10
124.3000030517578
 20
229.3000030517578
 10
122.6000061035156
 20
232.9000091552734
 10
119.7000045776367
 20
235.7000122070312
 10
118.6000061035156
 20
236.8000183105469
 10
117.4000015258789
 20
237.7000122070312
 10
116.0000076293945
 20
238.3000183105469
 10
114.0000076293945
 20
239.2000122070312
 10
112.0000076293945
 20
239.4000244140625
 10
109.9000091552734
 20
238.6000213623047
 10
106.4000091552734
 20
237.2000274658203
 10
104.1000061035156
 20
234.6000213623047
 10
102.8000106811523
 20
231.0000152587891
 10
102.5000076293945
 20
230.2000122070312
 10
102.4000091552734
 20
229.3000183105469
 10
102.6000137329102
 20
228.4000091552734
 10
102.7000122070312
 20
228.0000152587891
 10
102.8000106811523
 20
227.8000030517578
 10
103.3000106811523
 20
227.9000091552734
 10
104.0000076293945
 20
228.0000152587891
 10
104.7000122070312
 20
227.9000091552734
 10
105.4000091552734
 20
227.8000030517578
 10
107.2000122070312
 20
227.4000091552734
 10
108.4000091552734
 20
226.3000030517578
 10
108.8000106811523
 20
224.4000091552734
 10
108.9000091552734
 20
223.8000030517578
 10
109.1000137329102
 20
223.2000122070312
 10
109.0000076293945
 20
222.6000061035156
 10
109.0000076293945
 20
222.0
 10
109.2000045776367
 20
221.7000122070312
 10
109.8000106811523
 20
221.5
 10
112.4000015258789
 20
220.6999969482422
 10
115.0999984741211
 20
220.1000061035156
 10
117.8000030517578
 20
220.1000061035156
 97
        0
 97
        0
 92
        1
 93
        1
 72
     4
 94
        3
 73
     0
 74
     1
 95
       44
 96
       40
 40
0.0
 40
0.0
 40
0.0
 40
0.0
 40
1.0
 40
1.0
 40
1.0
 40
2.0
 40
2.0
 40
2.0
 40
3.0
 40
3.0
 40
3.0
 40
4.0
 40
4.0
 40
4.0
 40
5.0
 40
5.0
 40
5.0
 40
6.0
 40
6.0
 40
6.0
 40
7.0
 40
7.0
 40
7.0
 40
8.0
 40
8.0
 40
8.0
 40
9.0
 40
9.0
 40
9.0
 40
10.0
 40
10.0
 40
10.0
 40
11.0
 40
11.0
 40
11.0
 40
12.0
 40
12.0
 40
12.0
 40
13.0
 40
13.0
 40
13.0
 40
13.0
 10
126.4000015258789
 20
215.6999969482422
 10
126.4000015258789
 20
216.3999938964844
 10
126.4000015258789
 20
217.0999908447266
 10
126.4000015258789
 20
217.6999969482422
 10
126.4000015258789
 20
218.3000030517578
 10
126.3000030517578
 20
218.3000030517578
 10
125.8000030517578
 20
218.1999969482422
 10
125.4000015258789
 20
218.0999908447266
 10
124.9000015258789
 20
218.0
 10
124.5
 20
217.8999938964844
 10
121.8000030517578
 20
217.3999938964844
 10
119.0999984741211
 20
216.8999938964844
 10
116.3000030517578
 20
216.8999938964844
 10
114.3000030517578
 20
216.8999938964844
 10
112.3000030517578
 20
217.0999908447266
 10
110.3000030517578
 20
217.5
 10
109.6000061035156
 20
217.6000061035156
 10
109.6000061035156
 20
217.6000061035156
 10
109.6000061035156
 20
216.8999938964844
 10
109.8000030517578
 20
214.8999938964844
 10
110.1000061035156
 20
212.8999938964844
 10
110.5000076293945
 20
210.8999938964844
 10
111.3000106811523
 20
207.0
 10
112.6000061035156
 20
203.1999969482422
 10
115.0000076293945
 20
200.0
 10
115.6000061035156
 20
199.1999969482422
 10
116.3000106811523
 20
198.3999938964844
 10
117.2000045776367
 20
197.8000030517578
 10
118.1000061035156
 20
197.1999969482422
 10
119.0000076293945
 20
197.1999969482422
 10
120.0000076293945
 20
197.8000030517578
 10
120.7000045776367
 20
198.1999969482422
 10
121.3000106811523
 20
198.8000030517578
 10
121.8000106811523
 20
199.4000091552734
 10
122.6000137329102
 20
200.5000152587891
 10
123.3000106811523
 20
201.6000061035156
 10
123.8000106811523
 20
202.8000030517578
 10
125.5
 20
207.0
 10
126.3000030517578
 20
211.3000030517578
 10
126.4000015258789
 20
215.6999969482422
 97
        0
 97
        0
 92
        1
 93
        1
 72
     4
 94
        3
 73
     0
 74
     1
 95
       35
 96
       31
 40
0.0
 40
0.0
 40
0.0
 40
0.0
 40
1.0
 40
1.0
 40
1.0
 40
2.0
 40
2.0
 40
2.0
 40
3.0
 40
3.0
 40
3.0
 40
4.0
 40
4.0
 40
4.0
 40
5.0
 40
5.0
 40
5.0
 40
6.0
 40
6.0
 40
6.0
 40
7.0
 40
7.0
 40
7.0
 40
8.0
 40
8.0
 40
8.0
 40
9.0
 40
9.0
 40
9.0
 40
10.0
 40
10.0
 40
10.0
 40
10.0
 10
230.5
 20
250.1000061035156
 10
233.8000030517578
 20
251.5
 10
236.8999938964844
 20
253.2000122070312
 10
239.6999969482422
 20
255.4000091552734
 10
242.3999938964844
 20
257.5000152587891
 10
244.5999908447266
 20
260.1000061035156
 10
246.0999908447266
 20
263.2000122070312
 10
246.8999938964844
 20
265.0000152587891
 10
247.3999938964844
 20
266.8000183105469
 10
247.1999969482422
 20
268.8000183105469
 10
247.0999908447266
 20
270.1000213623047
 10
246.6999969482422
 20
271.2000122070312
 10
245.8999938964844
 20
272.2000122070312
 10
245.2999877929688
 20
272.9000091552734
 10
244.5999908447266
 20
273.2000122070312
 10
243.6999969482422
 20
273.0000152587891
 10
242.8999938964844
 20
272.8000183105469
 10
242.1999969482422
 20
272.6000213623047
 10
241.5999908447266
 20
272.1000213623047
 10
240.6999969482422
 20
271.4000244140625
 10
239.8999938964844
 20
270.6000213623047
 10
239.1999969482422
 20
269.7000274658203
 10
238.3000030517578
 20
268.5000305175781
 10
237.5
 20
267.3000335693359
 10
236.6999969482422
 20
265.9000244140625
 10
234.0
 20
261.1000213623047
 10
232.0999908447266
 20
255.9000244140625
 10
230.5999908447266
 20
250.6000213623047
 10
230.3999938964844
 20
250.5
 10
230.3000030517578
 20
250.3000030517578
 10
230.5
 20
250.1000061035156
 97
        0
 97
        0
 92
        1
 93
        1
 72
     4
 94
        3
 73
     0
 74
     1
 95
       32
 96
       28
 40
0.0
 40
0.0
 40
0.0
 40
0.0
 40
1.0
 40
1.0
 40
1.0
 40
2.0
 40
2.0
 40
2.0
 40
3.0
 40
3.0
 40
3.0
 40
4.0
 40
4.0
 40
4.0
 40
5.0
 40
5.0
 40
5.0
 40
6.0
 40
6.0
 40
6.0
 40
7.0
 40
7.0
 40
7.0
 40
8.0
 40
8.0
 40
8.0
 40
9.0
 40
9.0
 40
9.0
 40
9.0
 10
285.2999877929688
 20
245.8000030517578
 10
285.2999877929688
 20
243.5
 10
286.1999816894531
 20
241.8000030517578
 10
287.7999877929688
 20
240.3000030517578
 10
289.0
 20
239.3000030517578
 10
290.2999877929688
 20
238.6000061035156
 10
291.6999816894531
 20
237.9000091552734
 10
293.9999694824219
 20
236.8000030517578
 10
296.3999938964844
 20
236.1000061035156
 10
298.8999938964844
 20
235.6000061035156
 10
300.3999938964844
 20
235.3000030517578
 10
300.3999938964844
 20
235.1000061035156
 10
300.1000061035156
 20
236.8000030517578
 10
299.3999938964844
 20
240.6000061035156
 10
298.1000061035156
 20
244.3000030517578
 10
296.0
 20
247.6000061035156
 10
295.1000061035156
 20
249.0
 10
294.1000061035156
 20
250.4000091552734
 10
292.7000122070312
 20
251.4000091552734
 10
290.9000244140625
 20
252.7000122070312
 10
289.2000122070312
 20
252.6000061035156
 10
287.5
 20
251.1000061035156
 10
286.7000122070312
 20
250.4000091552734
 10
286.2000122070312
 20
249.6000061035156
 10
285.8999938964844
 20
248.7000122070312
 10
285.5
 20
247.6999969482422
 10
285.2999877929688
 20
246.6999969482422
 10
285.2999877929688
 20
245.8000030517578
 97
        0
 97
        0
 92
        1
 93
        1
 72
     4
 94
        3
 73
     0
 74
     1
 95
       20
 96
       16
 40
0.0
 40
0.0
 40
0.0
 40
0.0
 40
1.0
 40
1.0
 40
1.0
 40
2.0
 40
2.0
 40
2.0
 40
3.0
 40
3.0
 40
3.0
 40
4.0
 40
4.0
 40
4.0
 40
5.0
 40
5.0
 40
5.0
 40
5.0
 10
91.19999694824219
 20
247.0
 10
91.0
 20
247.0
 10
90.89999389648438
 20
247.0
 10
90.89999389648438
 20
247.0
 10
90.69999694824219
 20
246.8999938964844
 10
90.49999237060547
 20
246.8000030517578
 10
90.29999542236328
 20
246.6999969482422
 10
85.0999984741211
 20
244.0
 10
81.69999694824219
 20
239.8000030517578
 10
80.0999984741211
 20
234.0999908447266
 10
76.9000015258789
 20
222.9999847412109
 10
88.5999984741211
 20
233.2999877929688
 10
90.9000015258789
 20
244.8999938964844
 10
91.0
 20
245.6000061035156
 10
91.19999694824219
 20
246.3000030517578
 10
91.19999694824219
 20
247.0
 97
        0
 97
        0
 92
        1
 93
        1
 72
     4
 94
        3
 73
     0
 74
     1
 95
       29
 96
       25
 40
0.0
 40
0.0
 40
0.0
 40
0.0
 40
1.0
 40
1.0
 40
1.0
 40
2.0
 40
2.0
 40
2.0
 40
3.0
 40
3.0
 40
3.0
 40
4.0
 40
4.0
 40
4.0
 40
5.0
 40
5.0
 40
5.0
 40
6.0
 40
6.0
 40
6.0
 40
7.0
 40
7.0
 40
7.0
 40
8.0
 40
8.0
 40
8.0
 40
8.0
 10
271.8999938964844
 20
217.3000030517578
 10
272.1000061035156
 20
217.1000061035156
 10
272.3999938964844
 20
217.1000061035156
 10
272.6000061035156
 20
217.1000061035156
 10
274.6000061035156
 20
216.9000091552734
 10
276.5
 20
217.1000061035156
 10
278.3999938964844
 20
217.8000030517578
 10
281.0
 20
218.6999969482422
 10
282.3999938964844
 20
220.6000061035156
 10
282.6000061035156
 20
223.3000030517578
 10
282.8000183105469
 20
225.3000030517578
 10
282.1000061035156
 20
227.1000061035156
 10
280.5
 20
228.4000091552734
 10
279.7000122070312
 20
229.1000061035156
 10
279.1000061035156
 20
229.1000061035156
 10
278.2000122070312
 20
228.5000152587891
 10
277.7000122070312
 20
228.1000213623047
 10
277.3000183105469
 20
227.7000122070312
 10
276.9000244140625
 20
227.2000122070312
 10
274.6000366210938
 20
224.4000091552734
 10
273.0000305175781
 20
221.3000183105469
 10
272.0000305175781
 20
217.9000091552734
 10
271.8999938964844
 20
217.6999969482422
 10
271.7999877929688
 20
217.5
 10
271.8999938964844
 20
217.3000030517578
 97
        0
 97
        0
 75
     2
 76
     1
 98
        0
  0
ENDSEC
  0
SECTION
  2
OBJECTS
  0
DICTIONARY
  5
C
330
0
100
AcDbDictionary
281
     1
  3
ACAD_GROUP
350
D
  3
ACAD_LAYOUT
350
1A
  3
ACAD_MATERIAL
350
3B
  3
ACAD_MLEADERSTYLE
350
4D
  3
ACAD_MLINESTYLE
350
17
  3
ACAD_PLOTSETTINGS
350
19
  3
ACAD_PLOTSTYLENAME
350
E
  3
ACAD_TABLESTYLE
350
4C
  3
ACAD_VISUALSTYLE
350
2A
  0
SUN
  5
3F
330
29
100
AcDbSun
 90
        1
290
     0
 63
     7
421
 16777215
 40
1.0
291
     1
 91
  2455826
 92
 54000000
292
     0
 70
     2
 71
   256
280
     1
  0
DICTIONARY
  5
D
102
{ACAD_REACTORS
330
C
102
}
330
C
100
AcDbDictionary
281
     1
  0
DICTIONARY
  5
1A
102
{ACAD_REACTORS
330
C
102
}
330
C
100
AcDbDictionary
281
     1
  3
Layout1
350
1E
  3
Layout2
350
26
  3
Model
350
22
  0
DICTIONARY
  5
3B
102
{ACAD_REACTORS
330
C
102
}
330
C
100
AcDbDictionary
281
     1
  3
ByBlock
350
3D
  3
ByLayer
350
3C
  3
Global
350
3E
  0
DICTIONARY
  5
4D
102
{ACAD_REACTORS
330
C
102
}
330
C
100
AcDbDictionary
281
     1
  0
DICTIONARY
  5
17
102
{ACAD_REACTORS
330
C
102
}
330
C
100
AcDbDictionary
281
     1
  3
Standard
350
18
  0
DICTIONARY
  5
19
102
{ACAD_REACTORS
330
C
102
}
330
C
100
AcDbDictionary
281
     1
  0
ACDBDICTIONARYWDFLT
  5
E
102
{ACAD_REACTORS
330
C
102
}
330
C
100
AcDbDictionary
281
     1
  3
Normal
350
F
100
AcDbDictionaryWithDefault
340
F
  0
DICTIONARY
  5
4C
102
{ACAD_REACTORS
330
C
102
}
330
C
100
AcDbDictionary
281
     1
  0
DICTIONARY
  5
2A
102
{ACAD_REACTORS
330
C
102
}
330
C
100
AcDbDictionary
281
     1
  3
2dWireframe
350
2F
  3
3D Hidden
350
31
  3
3dWireframe
350
30
  3
Basic
350
32
  3
Brighten
350
36
  3
ColorChange
350
3A
  3
Conceptual
350
34
  3
Dim
350
35
  3
Facepattern
350
39
  3
Flat
350
2B
  3
FlatWithEdges
350
2C
  3
Gouraud
350
2D
  3
GouraudWithEdges
350
2E
  3
Linepattern
350
38
  3
Realistic
350
33
  3
Thicken
350
37
  0
LAYOUT
  5
1E
102
{ACAD_REACTORS
330
1A
102
}
330
1A
100
AcDbPlotSettings
  1

  2
none_device
  4

  6

 40
0.0
 41
0.0
 42
0.0
 43
0.0
 44
0.0
 45
0.0
 46
0.0
 47
0.0
 48
0.0
 49
0.0
140
0.0
141
0.0
142
1.0
143
1.0
 70
   688
 72
     0
 73
     0
 74
     5
  7

 75
    16
 76
     0
 77
     2
 78
   300
147
1.0
148
0.0
149
0.0
100
AcDbLayout
  1
Layout1
 70
     1
 71
     1
 10
0.0
 20
0.0
 11
12.0
 21
9.0
 12
0.0
 22
0.0
 32
0.0
 14
1.000000000000000E+20
 24
1.000000000000000E+20
 34
1.000000000000000E+20
 15
-1.000000000000000E+20
 25
-1.000000000000000E+20
 35
-1.000000000000000E+20
146
0.0
 13
0.0
 23
0.0
 33
0.0
 16
1.0
 26
0.0
 36
0.0
 17
0.0
 27
1.0
 37
0.0
 76
     0
330
1B
  0
LAYOUT
  5
26
102
{ACAD_REACTORS
330
1A
102
}
330
1A
100
AcDbPlotSettings
  1

  2
none_device
  4

  6

 40
0.0
 41
0.0
 42
0.0
 43
0.0
 44
0.0
 45
0.0
 46
0.0
 47
0.0
 48
0.0
 49
0.0
140
0.0
141
0.0
142
1.0
143
1.0
 70
   688
 72
     0
 73
     0
 74
     5
  7

 75
    16
 76
     0
 77
     2
 78
   300
147
1.0
148
0.0
149
0.0
100
AcDbLayout
  1
Layout2
 70
     1
 71
     2
 10
0.0
 20
0.0
 11
0.0
 21
0.0
 12
0.0
 22
0.0
 32
0.0
 14
0.0
 24
0.0
 34
0.0
 15
0.0
 25
0.0
 35
0.0
146
0.0
 13
0.0
 23
0.0
 33
0.0
 16
1.0
 26
0.0
 36
0.0
 17
0.0
 27
1.0
 37
0.0
 76
     0
330
23
  0
LAYOUT
  5
22
102
{ACAD_REACTORS
330
1A
102
}
330
1A
100
AcDbPlotSettings
  1

  2
none_device
  4

  6

 40
0.0
 41
0.0
 42
0.0
 43
0.0
 44
0.0
 45
0.0
 46
0.0
 47
0.0
 48
0.0
 49
0.0
140
0.0
141
0.0
142
1.0
143
1.0
 70
  1712
 72
     0
 73
     0
 74
     0
  7

 75
     0
 76
     0
 77
     2
 78
   300
147
1.0
148
0.0
149
0.0
100
AcDbLayout
  1
Model
 70
     1
 71
     0
 10
0.0
 20
0.0
 11
12.0
 21
9.0
 12
0.0
 22
0.0
 32
0.0
 14
1.000000000000000E+20
 24
1.000000000000000E+20
 34
1.000000000000000E+20
 15
-1.000000000000000E+20
 25
-1.000000000000000E+20
 35
-1.000000000000000E+20
146
0.0
 13
0.0
 23
0.0
 33
0.0
 16
1.0
 26
0.0
 36
0.0
 17
0.0
 27
1.0
 37
0.0
 76
     0
330
1F
331
29
  0
MATERIAL
  5
3D
102
{ACAD_REACTORS
330
3B
102
}
330
3B
100
AcDbMaterial
  1
ByBlock
 72
     1
 94
      127
  0
MATERIAL
  5
3C
102
{ACAD_REACTORS
330
3B
102
}
330
3B
100
AcDbMaterial
  1
ByLayer
 72
     1
 94
      127
  0
MATERIAL
  5
3E
102
{ACAD_REACTORS
330
3B
102
}
330
3B
100
AcDbMaterial
  1
Global
 72
     1
 94
      127
  0
MLINESTYLE
  5
18
102
{ACAD_REACTORS
330
17
102
}
330
17
100
AcDbMlineStyle
  2
Standard
 70
     0
  3

 62
   256
 51
90.0
 52
90.0
 71
     2
 49
0.5
 62
   256
  6
BYLAYER
 49
-0.5
 62
   256
  6
BYLAYER
  0
ACDBPLACEHOLDER
  5
F
102
{ACAD_REACTORS
330
E
102
}
330
E
  0
VISUALSTYLE
  5
2F
102
{ACAD_REACTORS
330
2A
102
}
330
2A
100
AcDbVisualStyle
  2
2dWireframe
 70
     4
177
     2
291
     0
 71
     0
176
     1
 72
     2
176
     1
 73
     0
176
     1
 90
        0
176
     1
 40
-0.6
176
     1
 41
-30.0
176
     1
 62
     5
 63
     7
421
 16777215
176
     1
 74
     1
176
     1
 91
        4
176
     1
 64
     7
176
     1
 65
   257
176
     1
 75
     1
176
     1
175
     1
176
     1
 42
1.0
176
     1
 92
        0
176
     1
 66
   257
176
     1
 43
1.0
176
     1
 76
     1
176
     1
 77
     6
176
     1
 78
     2
176
     1
 67
     7
176
     1
 79
     5
176
     1
170
     0
176
     1
171
     0
176
     1
290
     0
176
     1
 93
        1
176
     1
 44
0.0
176
     1
173
     0
176
     1
  0
VISUALSTYLE
  5
31
102
{ACAD_REACTORS
330
2A
102
}
330
2A
100
AcDbVisualStyle
  2
3D Hidden
 70
     6
177
     2
291
     0
 71
     1
176
     1
 72
     2
176
     1
 73
     2
176
     1
 90
        0
176
     1
 40
-0.6
176
     1
 41
-30.0
176
     1
 62
     5
 63
     7
421
 16777215
176
     1
 74
     2
176
     1
 91
        2
176
     1
 64
     7
176
     1
 65
   257
176
     1
 75
     2
176
     1
175
     1
176
     1
 42
40.0
176
     1
 92
        0
176
     1
 66
   257
176
     1
 43
1.0
176
     1
 76
     1
176
     1
 77
     6
176
     1
 78
     2
176
     1
 67
     7
176
     1
 79
     3
176
     1
170
     0
176
     1
171
     0
176
     1
290
     0
176
     1
 93
        1
176
     1
 44
0.0
176
     1
173
     0
176
     1
  0
VISUALSTYLE
  5
30
102
{ACAD_REACTORS
330
2A
102
}
330
2A
100
AcDbVisualStyle
  2
3dWireframe
 70
     5
177
     2
291
     0
 71
     0
176
     1
 72
     2
176
     1
 73
     0
176
     1
 90
        0
176
     1
 40
-0.6
176
     1
 41
-30.0
176
     1
 62
     5
 63
     7
421
 16777215
176
     1
 74
     1
176
     1
 91
        4
176
     1
 64
     7
176
     1
 65
   257
176
     1
 75
     1
176
     1
175
     1
176
     1
 42
1.0
176
     1
 92
        0
176
     1
 66
   257
176
     1
 43
1.0
176
     1
 76
     1
176
     1
 77
     6
176
     1
 78
     2
176
     1
 67
     7
176
     1
 79
     5
176
     1
170
     0
176
     1
171
     0
176
     1
290
     0
176
     1
 93
        1
176
     1
 44
0.0
176
     1
173
     0
176
     1
  0
VISUALSTYLE
  5
32
102
{ACAD_REACTORS
330
2A
102
}
330
2A
100
AcDbVisualStyle
  2
Basic
 70
     7
177
     2
291
     1
 71
     1
176
     1
 72
     0
176
     1
 73
     1
176
     1
 90
        0
176
     1
 40
-0.6
176
     1
 41
-30.0
176
     1
 62
     5
 63
     7
421
 16777215
176
     1
 74
     0
176
     1
 91
        4
176
     1
 64
     7
176
     1
 65
   257
176
     1
 75
     1
176
     1
175
     1
176
     1
 42
1.0
176
     1
 92
        8
176
     1
 66
     7
176
     1
 43
1.0
176
     1
 76
     1
176
     1
 77
     6
176
     1
 78
     2
176
     1
 67
     7
176
     1
 79
     5
176
     1
170
     0
176
     1
171
     0
176
     1
290
     0
176
     1
 93
        1
176
     1
 44
0.0
176
     1
173
     0
176
     1
  0
VISUALSTYLE
  5
36
102
{ACAD_REACTORS
330
2A
102
}
330
2A
100
AcDbVisualStyle
  2
Brighten
 70
    12
177
     2
291
     1
 71
     2
176
     1
 72
     2
176
     1
 73
     0
176
     1
 90
        0
176
     1
 40
-0.6
176
     1
 41
-30.0
176
     1
 62
     5
 63
     7
421
 16777215
176
     1
 74
     1
176
     1
 91
        4
176
     1
 64
     7
176
     1
 65
   257
176
     1
 75
     1
176
     1
175
     1
176
     1
 42
1.0
176
     1
 92
        8
176
     1
 66
     7
176
     1
 43
1.0
176
     1
 76
     1
176
     1
 77
     6
176
     1
 78
     2
176
     1
 67
     7
176
     1
 79
     5
176
     1
170
     0
176
     1
171
     0
176
     1
290
     0
176
     1
 93
        1
176
     1
 44
50.0
176
     1
173
     0
176
     1
  0
VISUALSTYLE
  5
3A
102
{ACAD_REACTORS
330
2A
102
}
330
2A
100
AcDbVisualStyle
  2
ColorChange
 70
    16
177
     2
291
     1
 71
     2
176
     1
 72
     2
176
     1
 73
     3
176
     1
 90
        0
176
     1
 40
-0.6
176
     1
 41
-30.0
176
     1
 62
     5
 63
     8
421
  8421504
176
     1
 74
     1
176
     1
 91
        4
176
     1
 64
     7
176
     1
 65
   257
176
     1
 75
     1
176
     1
175
     1
176
     1
 42
1.0
176
     1
 92
        8
176
     1
 66
     8
424
  8421504
176
     1
 43
1.0
176
     1
 76
     1
176
     1
 77
     6
176
     1
 78
     2
176
     1
 67
     7
176
     1
 79
     5
176
     1
170
     0
176
     1
171
     0
176
     1
290
     0
176
     1
 93
        1
176
     1
 44
0.0
176
     1
173
     0
176
     1
  0
VISUALSTYLE
  5
34
102
{ACAD_REACTORS
330
2A
102
}
330
2A
100
AcDbVisualStyle
  2
Conceptual
 70
     9
177
     2
291
     0
 71
     3
176
     1
 72
     2
176
     1
 73
     0
176
     1
 90
        0
176
     1
 40
-0.6
176
     1
 41
-30.0
176
     1
 62
     5
 63
     7
421
 16777215
176
     1
 74
     2
176
     1
 91
        2
176
     1
 64
     7
176
     1
 65
   257
176
     1
 75
     1
176
     1
175
     1
176
     1
 42
40.0
176
     1
 92
        8
176
     1
 66
     7
176
     1
 43
1.0
176
     1
 76
     1
176
     1
 77
     6
176
     1
 78
     2
176
     1
 67
     7
176
     1
 79
     3
176
     1
170
     0
176
     1
171
     0
176
     1
290
     0
176
     1
 93
        1
176
     1
 44
0.0
176
     1
173
     0
176
     1
  0
VISUALSTYLE
  5
35
102
{ACAD_REACTORS
330
2A
102
}
330
2A
100
AcDbVisualStyle
  2
Dim
 70
    11
177
     2
291
     1
 71
     2
176
     1
 72
     2
176
     1
 73
     0
176
     1
 90
        0
176
     1
 40
-0.6
176
     1
 41
-30.0
176
     1
 62
     5
 63
     7
421
 16777215
176
     1
 74
     1
176
     1
 91
        4
176
     1
 64
     7
176
     1
 65
   257
176
     1
 75
     1
176
     1
175
     1
176
     1
 42
1.0
176
     1
 92
        8
176
     1
 66
     7
176
     1
 43
1.0
176
     1
 76
     1
176
     1
 77
     6
176
     1
 78
     2
176
     1
 67
     7
176
     1
 79
     5
176
     1
170
     0
176
     1
171
     0
176
     1
290
     0
176
     1
 93
        1
176
     1
 44
-50.0
176
     1
173
     0
176
     1
  0
VISUALSTYLE
  5
39
102
{ACAD_REACTORS
330
2A
102
}
330
2A
100
AcDbVisualStyle
  2
Facepattern
 70
    15
177
     2
291
     1
 71
     2
176
     1
 72
     2
176
     1
 73
     0
176
     1
 90
        0
176
     1
 40
-0.6
176
     1
 41
-30.0
176
     1
 62
     5
 63
     7
421
 16777215
176
     1
 74
     1
176
     1
 91
        4
176
     1
 64
     7
176
     1
 65
   257
176
     1
 75
     1
176
     1
175
     1
176
     1
 42
1.0
176
     1
 92
        8
176
     1
 66
     7
176
     1
 43
1.0
176
     1
 76
     1
176
     1
 77
     6
176
     1
 78
     2
176
     1
 67
     7
176
     1
 79
     5
176
     1
170
     0
176
     1
171
     0
176
     1
290
     0
176
     1
 93
        1
176
     1
 44
0.0
176
     1
173
     0
176
     1
  0
VISUALSTYLE
  5
2B
102
{ACAD_REACTORS
330
2A
102
}
330
2A
100
AcDbVisualStyle
  2
Flat
 70
     0
177
     2
291
     1
 71
     2
176
     1
 72
     1
176
     1
 73
     1
176
     1
 90
        2
176
     1
 40
-0.6
176
     1
 41
30.0
176
     1
 62
     5
 63
     7
421
 16777215
176
     1
 74
     0
176
     1
 91
        4
176
     1
 64
     7
176
     1
 65
   257
176
     1
 75
     1
176
     1
175
     1
176
     1
 42
1.0
176
     1
 92
        8
176
     1
 66
     7
176
     1
 43
1.0
176
     1
 76
     1
176
     1
 77
     6
176
     1
 78
     2
176
     1
 67
     7
176
     1
 79
     5
176
     1
170
     0
176
     1
171
     0
176
     1
290
     0
176
     1
 93
       13
176
     1
 44
0.0
176
     1
173
     0
176
     1
  0
VISUALSTYLE
  5
2C
102
{ACAD_REACTORS
330
2A
102
}
330
2A
100
AcDbVisualStyle
  2
FlatWithEdges
 70
     1
177
     2
291
     1
 71
     2
176
     1
 72
     1
176
     1
 73
     1
176
     1
 90
        2
176
     1
 40
-0.6
176
     1
 41
30.0
176
     1
 62
     5
 63
     7
421
 16777215
176
     1
 74
     1
176
     1
 91
        4
176
     1
 64
     7
176
     1
 65
   257
176
     1
 75
     1
176
     1
175
     1
176
     1
 42
1.0
176
     1
 92
        0
176
     1
 66
   257
176
     1
 43
1.0
176
     1
 76
     1
176
     1
 77
     6
176
     1
 78
     2
176
     1
 67
     7
176
     1
 79
     5
176
     1
170
     0
176
     1
171
     0
176
     1
290
     0
176
     1
 93
       13
176
     1
 44
0.0
176
     1
173
     0
176
     1
  0
VISUALSTYLE
  5
2D
102
{ACAD_REACTORS
330
2A
102
}
330
2A
100
AcDbVisualStyle
  2
Gouraud
 70
     2
177
     2
291
     1
 71
     2
176
     1
 72
     2
176
     1
 73
     1
176
     1
 90
        2
176
     1
 40
-0.6
176
     1
 41
30.0
176
     1
 62
     5
 63
     7
421
 16777215
176
     1
 74
     0
176
     1
 91
        4
176
     1
 64
     7
176
     1
 65
   257
176
     1
 75
     1
176
     1
175
     1
176
     1
 42
1.0
176
     1
 92
        0
176
     1
 66
     7
176
     1
 43
1.0
176
     1
 76
     1
176
     1
 77
     6
176
     1
 78
     2
176
     1
 67
     7
176
     1
 79
     5
176
     1
170
     0
176
     1
171
     0
176
     1
290
     0
176
     1
 93
       13
176
     1
 44
0.0
176
     1
173
     0
176
     1
  0
VISUALSTYLE
  5
2E
102
{ACAD_REACTORS
330
2A
102
}
330
2A
100
AcDbVisualStyle
  2
GouraudWithEdges
 70
     3
177
     2
291
     1
 71
     2
176
     1
 72
     2
176
     1
 73
     1
176
     1
 90
        2
176
     1
 40
-0.6
176
     1
 41
30.0
176
     1
 62
     5
 63
     7
421
 16777215
176
     1
 74
     1
176
     1
 91
        4
176
     1
 64
     7
176
     1
 65
   257
176
     1
 75
     1
176
     1
175
     1
176
     1
 42
1.0
176
     1
 92
        0
176
     1
 66
   257
176
     1
 43
1.0
176
     1
 76
     1
176
     1
 77
     6
176
     1
 78
     2
176
     1
 67
     7
176
     1
 79
     5
176
     1
170
     0
176
     1
171
     0
176
     1
290
     0
176
     1
 93
       13
176
     1
 44
0.0
176
     1
173
     0
176
     1
  0
VISUALSTYLE
  5
38
102
{ACAD_REACTORS
330
2A
102
}
330
2A
100
AcDbVisualStyle
  2
Linepattern
 70
    14
177
     2
291
     1
 71
     2
176
     1
 72
     2
176
     1
 73
     0
176
     1
 90
        0
176
     1
 40
-0.6
176
     1
 41
-30.0
176
     1
 62
     5
 63
     7
421
 16777215
176
     1
 74
     1
176
     1
 91
        4
176
     1
 64
     7
176
     1
 65
   257
176
     1
 75
     7
176
     1
175
     7
176
     1
 42
1.0
176
     1
 92
        8
176
     1
 66
     7
176
     1
 43
1.0
176
     1
 76
     1
176
     1
 77
     6
176
     1
 78
     2
176
     1
 67
     7
176
     1
 79
     5
176
     1
170
     0
176
     1
171
     0
176
     1
290
     0
176
     1
 93
        1
176
     1
 44
0.0
176
     1
173
     0
176
     1
  0
VISUALSTYLE
  5
33
102
{ACAD_REACTORS
330
2A
102
}
330
2A
100
AcDbVisualStyle
  2
Realistic
 70
     8
177
     2
291
     0
 71
     2
176
     1
 72
     2
176
     1
 73
     0
176
     1
 90
        0
176
     1
 40
-0.6
176
     1
 41
-30.0
176
     1
 62
     5
 63
     7
421
 16777215
176
     1
 74
     1
176
     1
 91
        0
176
     1
 64
     7
176
     1
 65
   257
176
     1
 75
     1
176
     1
175
     1
176
     1
 42
1.0
176
     1
 92
        8
176
     1
 66
     8
424
  7895160
176
     1
 43
1.0
176
     1
 76
     1
176
     1
 77
     6
176
     1
 78
     2
176
     1
 67
     7
176
     1
 79
     5
176
     1
170
     0
176
     1
171
     0
176
     1
290
     0
176
     1
 93
       13
176
     1
 44
0.0
176
     1
173
     0
176
     1
  0
VISUALSTYLE
  5
37
102
{ACAD_REACTORS
330
2A
102
}
330
2A
100
AcDbVisualStyle
  2
Thicken
 70
    13
177
     2
291
     1
 71
     2
176
     1
 72
     2
176
     1
 73
     0
176
     1
 90
        0
176
     1
 40
-0.6
176
     1
 41
-30.0
176
     1
 62
     5
 63
     7
421
 16777215
176
     1
 74
     1
176
     1
 91
        4
176
     1
 64
     7
176
     1
 65
   257
176
     1
 75
     1
176
     1
175
     1
176
     1
 42
1.0
176
     1
 92
       12
176
     1
 66
     7
176
     1
 43
1.0
176
     1
 76
     1
176
     1
 77
     6
176
     1
 78
     2
176
     1
 67
     7
176
     1
 79
     5
176
     1
170
     0
176
     1
171
     0
176
     1
290
     0
176
     1
 93
        1
176
     1
 44
0.0
176
     1
173
     0
176
     1
  0
ENDSEC
  0
EOF
