<?xml version="1.0" encoding="utf-8"?>
<!-- Generator: Adobe Illustrator 21.1.0, SVG Export Plug-In . SVG Version: 6.00 Build 0)  -->
<svg version="1.1" id="Calque_1" xmlns="http://www.w3.org/2000/svg" xmlns:xlink="http://www.w3.org/1999/xlink" x="0px" y="0px"
	 viewBox="0 0 432 432" style="enable-background:new 0 0 432 432;" xml:space="preserve">
<style type="text/css">
	.st0{fill:#1A1A1A;}
	.st1{fill:#F486A1;}
	.st2{fill:#CCCCCC;}
	.st3{fill:#3F3531;}
	.st4{fill:#BC4662;}
	.st5{fill:#6BAE3D;}
	.st6{fill:#F8982A;}
	.st7{fill:#BA61BB;}
	.st8{fill:#16BACB;}
	.st9{fill:#C4DA6D;}
	.st10{fill:#5C62B8;}
	.st11{fill:#8F99F2;}
	.st12{fill:#ED5F7D;}
	.st13{fill:#5A9100;}
	.st14{fill:#E2B8E0;}
	.st15{fill:#F8BE74;}
	.st16{fill:#43934A;}
	.st17{fill:#F55D00;}
	.st18{fill:#456F01;}
	.st19{fill:#333333;}
	.st20{fill:#9BE0ED;}
	.st21{fill:#A67C52;}
	.st22{fill:#42210B;}
	.st23{fill:#999999;}
	.st24{fill:#8F1A53;}
	.st25{fill:#E38BA4;}
	.st26{fill:#4D4D4D;}
	.st27{fill:#DF5376;}
	.st28{fill:#E5445E;}
	.st29{fill:#EDBAC9;}
	.st30{fill:#E7D3D5;}
	.st31{fill:#C1272D;}
	.st32{fill:#BC2A34;}
	.st33{fill:#AB827E;}
	.st34{fill:#75614D;}
	.st35{fill:#4F4A41;}
	.st36{fill:#7E7163;}
</style>
<path class="st34" d="M95.6,180c1.4-0.3,2.8-0.5,4.1-0.7c5.7-0.9,11.5-1.1,17.2-1c6.8,0.1,13.6,1,20.2,2.4c9.8,2,19.6,4.1,29.4,5.9
	c5,0.9,10.1,1.7,15.2,2.2c0.3,0,0.6,0.1,0.9,0.1c0.9,0.1,0.9,0.1,0.9-0.8c0.1-4.5,0.4-8.9,0.8-13.4c0.4-4.2,0.9-8.4,1.8-12.6
	c0.4-1.8,1-3.5,1.9-5.1c0.4-0.8,1.2-1.2,2.1-1.2c1.7,0,2.8,0.8,3.6,2.3c0.8,1.5,1.3,3.1,1.4,4.8c0.3,2.7,0,5.3-0.1,8
	c-0.3,5.9-0.6,11.7-0.7,17.6c0,0.1,0,0.2,0,0.3c-0.1,0.5,0.1,0.7,0.7,0.7c1.2,0,2.5,0,3.7-0.1c6.1-0.3,12.2-1.2,18.1-2.7
	c0.8-0.2,1.2-0.6,1.4-1.4c1.3-5,2.8-9.9,4.9-14.6c1.7-3.7,3.7-7.3,6.5-10.3c2.6-2.8,5.5-4.8,9.2-5.8c1.9-0.5,3.9-0.6,5.8,0
	c3.9,1.1,6.5,4.3,6.8,8.6c0.3,2.7-0.3,5.2-1.4,7.7c-1.8,3.7-4.4,6.6-7.7,9.1c-3.5,2.7-7.5,4.7-11.6,6.3c-1.4,0.5-2,1.3-2.3,2.7
	c-1.9,7.9-3.2,15.9-3.6,24c-0.3,6.2-0.1,12.4,0.8,18.6c0,0.3,0,0.6,0.2,0.9c0.3-0.3,0.3-0.7,0.4-1c2.1-6,5.2-11.4,9.2-16.2
	c1.1-1.4,2.4-2.7,3.8-3.8c0.8-0.7,1.8-1.3,2.7-1.9c4.6-2.4,10.2-0.2,11.9,4.7c0.7,2.1,0.8,4.3,0.7,6.6c-0.2,5.1-1.1,10.2-2,15.2
	c-1,5.7-1.7,11.5-2.3,17.3c-0.2,2.1-0.4,4.3-0.5,6.4c-0.2,3.3-0.1,6.6,0.7,9.8c0.3,1.4,0.8,2.7,1.6,3.9c0.9,1.3,1.3,1.3,2.3,0.1
	c0.9-1,1.4-2.2,1.8-3.4c0.8-2.3,1.4-4.8,1.9-7.2c1.6-7.1,2.8-14.3,4-21.5c0.1-0.5,0-1-0.1-1.4c-1.8-6.7-2.5-13.5-1.9-20.4
	c0.4-4.4,1.4-8.6,3.5-12.5c1.1-2.1,2.5-4.1,4.2-5.7c2.4-2.2,5.2-3.5,8.5-3.7c7.9-0.3,13.6,8.3,10.2,15.4c-0.9,1.9-2.4,3.3-4.3,4.3
	c-3.1,1.6-6.5,2.2-10,1.9c-1.3-0.1-1.3-0.1-1.4,1.2c-0.6,8.1,0.8,15.8,3.6,23.4c0.6,1.5,1.5,2.9,2.5,4.2c1.6,1.9,3.4,2.5,5.8,1.8
	c1.6-0.5,3-1.4,4.3-2.5c2.3-2,4-4.4,5.5-7c2.3-4,3.9-8.3,5.1-12.7c2.3-8.2,3.6-16.5,3.2-25c0-0.7-0.1-1.4-0.1-2.1
	c0-0.5-0.2-0.7-0.7-0.7c-2.1-0.4-4.3-0.9-6.4-1.5c-2.5-0.8-4.9-1.7-7.1-3.1c-1.5-1-2.9-2.1-4-3.6c-2.2-3-2.9-6.4-1.6-10
	c1.5-4.3,5.6-6.4,10-5.3c2,0.5,3.7,1.6,5.2,3c1.5,1.4,2.6,3.1,3.6,4.9c2.1,3.8,3.2,7.9,3.8,12.2c0.1,0.9,0.1,0.9,1,1
	c2.6,0.4,5.2,0.6,7.8,0.4c1.4-0.1,2.7,0.2,3.9,0.8c2.2,1.2,3.4,3,3.6,5.5c0.1,2.1-0.3,4.1-0.7,6.1c-1,4.8-2,9.6-2.7,14.4
	c-0.9,6.5-1.5,13-1.3,19.6c0.1,3.8,0.2,7.6,0.3,11.4c0,1.7,0.2,3.3,0.8,4.9c0.3,0.9,0.7,1.8,1.3,2.5c0.6,0.6,0.9,0.7,1.6,0.1
	c0.5-0.4,0.9-0.9,1.2-1.4c0.8-1.1,1.4-2.4,2.1-3.6c2.1-4.1,3.6-8.4,5.3-12.7c0.6-1.6,0.7-3.1,0.3-4.7c-0.7-2.8-0.9-5.8-1-8.7
	c-0.4-7.3,0.1-14.5,1.9-21.6c0.4-1.7,0.9-3.4,1.6-5c0.7-1.9,1.9-3.4,3.4-4.7c1.3-1.1,3.1-0.8,4.1,0c0.6,0.5,0.8,1.1,1,1.8
	c0.5,2.2,0.4,4.5,0.1,6.7c-0.6,4.2-1.1,8.5-1.4,12.7c-0.3,5.4-0.1,10.9,0.7,16.3c0,0.1,0,0.2,0.3,0.3c0.1-0.6,0.2-1.1,0.3-1.7
	c1.5-9.1,4.3-17.8,8.8-26c1.8-3.3,3.9-6.5,6.6-9.2c1.2-1.2,2.6-2.2,4.2-2.7c1.9-0.6,3.8-0.5,5.6,0.4c2.1,1,3.5,2.6,4.5,4.7
	c0.8,1.7,1.2,3.6,1.4,5.5c0.4,3.7,0.1,7.4-0.3,11.1c-0.6,6.2-1.2,12.3-1.9,18.5c-0.4,3.6-0.9,7.2-1.2,10.8
	c-0.4,3.8-0.6,7.6-0.3,11.4c0.1,1.4,0.4,2.7,1,4c0.5-0.3,0.9-0.7,1.2-1.1c0.8-1,1.4-2.1,2-3.2c1.3-2.3,2.5-4.6,3.8-6.8
	c0.2-0.4,0.4-0.8,0.7-1.2c0.5-0.7,1.4-1,2.2-0.8c0.7,0.2,1,0.7,0.9,1.4c0,0.3-0.1,0.6-0.2,0.9c-1.5,3.6-3,7.2-5.2,10.4
	c-0.7,1-1.4,1.9-2.3,2.6c-1.2,0.9-2.5,1.5-4,1.5c-1.4,0-2.6-0.5-3.5-1.6c-0.5-0.6-0.9-1.2-1.3-1.9c-2-3.4-3.3-7.1-3.9-11.1
	c-0.8-5.6-0.9-11.2-0.4-16.8c0.6-6.6,1.4-13.1,2.1-19.7c0.4-4.1,0.9-8.2,0.7-12.3c-0.1-1.8-0.1-1.8-1.6-0.8
	c-1.3,0.8-2.4,1.8-3.4,2.9c-1.7,1.9-3.2,4-4.4,6.3c-3.7,6.7-6,13.8-7.4,21.3c-0.9,5.1-1.2,10.2-1.4,15.3c0,0.7,0,1.5-0.1,2.2
	c-0.2,1.1-0.8,1.8-1.8,2.3c-1.6,0.7-3.2,0.5-4.7-0.5c-0.8-0.5-1.4-1.1-1.9-1.8c-1-1.2-1.8-2.5-2.5-3.8c-0.1-0.3-0.2-0.6-0.6-0.8
	c-0.1,0.3-0.2,0.6-0.4,0.9c-1.2,3.2-2.2,6.5-3.7,9.7c-0.7,1.6-1.5,3.2-2.5,4.6c-1,1.5-2.3,2.7-4,3.4c-2.7,1.1-5.2,0.8-7.4-1.2
	c-1-0.9-1.8-1.9-2.5-3c-2.1-3-3.6-6.3-4.4-9.9c-0.6-2.4-0.9-4.7-0.9-7.2c-0.3-8.4,0.5-16.6,1.8-24.9c1-6,2.5-12,3.9-17.9
	c0.3-1.3,0.3-1.3-1-1.5c-1.4-0.2-2.8-0.4-4.3-0.5c-0.7-0.1-0.7-0.1-0.7,0.6c0.1,2,0.2,4,0.1,6.1c-0.3,8.8-1.6,17.4-4.4,25.7
	c-1.2,3.7-2.8,7.2-4.9,10.5c-1.6,2.6-3.5,5-5.8,7.1c-2.8,2.5-6.1,3.9-9.8,4c-4.4,0.2-8.2-1.4-11.4-4.5c-0.9-0.9-1.7-1.8-2.4-2.8
	c-0.2-0.2-0.3-0.5-0.6-0.7c-0.3,0.2-0.2,0.6-0.3,0.9c-1,6.8-2.2,13.6-3.9,20.2c-0.4,1.5-0.8,3-1.4,4.5c-0.6,1.5-1.5,2.9-2.7,4
	c-2.6,2.3-5.9,2.5-8.7,0.4c-1.2-0.9-2.2-2.1-3-3.4c-1.8-2.9-2.8-6.1-3.7-9.3c-1.5-5.7-1.8-11.4-1.1-17.2c0.7-5.6,1.6-11.1,2.5-16.7
	c0.7-4.1,1.3-8.3,1.6-12.5c0-0.8,0-1.6-0.1-2.3c0-0.4-0.2-0.5-0.6-0.4c-0.5,0.2-1,0.5-1.5,0.8c-1.6,1-3.1,2.3-4.4,3.7
	c-4.6,4.9-7.6,10.8-9.4,17.2c-0.5,1.7-0.8,3.4-1.1,5.1c-0.1,0.8-0.2,1.5-0.1,2.3c0.2,1.8,0.4,3.6,0.5,5.3c0,0.5,0.1,1,0,1.6
	c0,0.9-0.5,1.5-1.2,1.8c-1.3,0.7-3,0.4-4-0.7c-0.7-0.8-1.3-1.7-1.8-2.6c-0.8-1.5-1.6-3-2.4-4.5c-0.7-1.5-1.4-3-1.9-4.6
	c-0.4,0.2-0.3,0.5-0.3,0.8c-0.5,3.4-0.9,6.8-1.8,10.1c-0.6,2.2-1.2,4.3-2.1,6.4c-0.4,0.9-0.9,1.7-1.5,2.5c-2.6,3.3-7.3,4.1-10.9,1.9
	c-2.4-1.5-4.1-3.7-5.6-6c-2.6-4.3-4.5-9-5.8-13.8c-1.3-4.5-2.1-9.1-2.7-13.7c-0.4-2.6-0.7-5.2-1-7.8c0-0.1,0-0.3-0.1-0.3
	c-0.3,0.2-0.2,0.5-0.3,0.7c-1.4,7.8-2.6,15.6-3.9,23.4c-0.7,4.3-1.5,8.7-2.7,12.9c-0.5,1.6-1,3.2-1.8,4.6c-1.1,1.9-2.7,3.1-4.8,3.6
	c-2.3,0.5-4.4-0.1-6.2-1.6c-1.7-1.4-2.8-3.2-3.8-5.2c-1.4-3.1-2.1-6.3-2.4-9.6c-0.6-6.3-0.4-12.6,0.1-18.9c0.1-0.9,0.2-1.9,0.2-2.8
	c0-0.3,0.1-0.6-0.1-0.9c-0.3,0.3-0.3,0.7-0.5,1.1c-1.1,2.9-2.1,5.8-3.4,8.5c-0.6,1.3-1.3,2.6-2.2,3.8c-1.3,1.6-3,2.7-5.1,2.9
	c-1.7,0.1-3.2-0.3-4.6-1.1c-2-1.2-3.4-2.9-4.7-4.7c-2.2-3.2-3.5-6.9-4.4-10.7c-0.9-4.2-1.6-8.4-1.8-12.6c0-0.3,0.2-0.8-0.5-0.7
	c-0.8,0.1-1,0.2-1,0.9c0,3.2-0.1,6.3-0.7,9.4c-0.6,3.2-1.6,6.2-3.1,9.1c-0.9,1.7-1.9,3.3-3.3,4.6c-3.8,3.5-8.1,4.8-13.1,3.3
	c-2.9-0.9-5.2-2.7-6.7-5.3c-1.2-2-2-4.1-2.7-6.3c-1.3-4.4-2.1-8.9-2.3-13.4c0-0.3,0-0.5-0.1-0.8c-0.3-0.1-0.4,0.1-0.6,0.3
	c-3.8,3.3-7.6,6.6-11.3,10c-0.1,0.1-0.2,0.2-0.4,0.3c-0.2,0.2-0.3,0.4-0.1,0.7c0.2,0.2,0.3,0.5,0.5,0.7c3.3,4.8,6.3,9.7,8.6,15.1
	c1.8,4.2,3,8.6,3,13.1c-0.1,7.8-3.3,14.1-10.2,17.9c-6.8,3.8-13.9,3.8-20.6-0.6c-5.5-3.7-8.4-9-8.2-15.7c0.1-2.8,0.9-5.4,2-7.9
	c1.2-2.5,2.6-4.9,4.3-7.1c2.5-3.3,5.2-6.4,8.1-9.3c0.6-0.6,1.2-1.2,1.8-1.8c0.8-0.8,0.7-0.7,0.2-1.5c-2.6-3.9-5.4-7.7-8.1-11.5
	c-2.9-4.1-5.7-8.2-8-12.6c-2.6-4.9-4.5-10.1-5.3-15.6c-1-6.8-0.3-13.5,2.9-19.7c1.8-3.6,4.4-6.6,7.7-8.9c7.7-5.1,17.2-4.2,23.8,2.3
	c3.5,3.5,5.5,7.7,6.3,12.6c0.2,1.5,0.4,3,0.4,4.5C95.5,179.5,95.5,179.7,95.6,180z M168.8,238.5c0,2.1,0,3.9,0.1,5.7
	c0.3,3.7,0.6,7.5,0.9,11.2c0.1,1,0.2,1.9,0.4,2.9c0.1,0.6,0.3,1.3,0.7,1.8c0.4,0.6,0.5,0.6,0.9,0c0.4-0.7,0.7-1.4,0.9-2.1
	c0.6-1.7,1-3.4,1.4-5.1c1.5-7,2.7-14,4.1-21c1.6-8.3,3.1-16.7,4.7-25.1c0.2-1.2,0.6-2.4,0.6-3.6c0-3.3,0-6.6,0-9.9
	c0-0.5-0.2-0.8-0.7-0.8c-0.2,0-0.4,0-0.6-0.1c-4.1-0.4-8.1-1-12.2-1.7c-11.1-2-22.1-4.2-33.1-6.5c-7-1.5-14.1-2.6-21.3-2.8
	c-6.2-0.2-12.4,0.2-18.6,1.4c-2.2,0.5-1.7,0-2,2.1c-1.8,13.5-14.2,26.5-18.5,18c-0.7-1.3-0.8-2.7-0.5-4.2c0.8-4.5,2.9-8.3,6-11.6
	c2.5-2.6,5.4-4.5,8.7-5.7c0.4-0.2,0.7-0.3,0.8-0.8c0.1-3.3-0.1-6.6-1.2-9.7c-1.4-3.9-3.7-7-7.4-9c-4.3-2.3-9.1-1.5-12.4,2.1
	c-1,1.1-1.8,2.3-2.5,3.6c-3.7,7.6-4.7,15.5-2.6,23.8c1.2,5,3.4,9.5,6.2,13.8c3.6,5.6,7.8,10.8,11.7,16.2c0.4,0.6,0.4,0.6,1,0.1
	c3-2.6,6.1-5.1,9.1-7.7c1.6-1.5,3.2-3,4.7-4.6c0.5-0.6,0.5-0.6,0.1-1.3c-1.8-2.7-2.1-5.6-0.9-8.7c0.7-1.8,1.8-3.4,3.1-4.8
	c3.8-4,8.3-5.9,13.9-5.2c3.9,0.5,7,2.4,9.6,5.2c3.2,3.5,5.1,7.6,6,12.2c0.2,0.9,0.3,1.8,0.4,2.7c0,0.2,0,0.5,0.3,0.6
	c0.4,0.1,0.8-0.1,1.1-0.2c0.4-0.1,0.2-0.5,0.2-0.8c0.1-1.2,0.1-2.4,0.3-3.6c0.2-1.7,0.4-3.4,1.1-4.9c0.5-1.2,1.3-2,2.5-2.4
	c1.7-0.6,3.4-0.4,5,0.6c1.1,0.7,1.7,1.6,1.8,2.9c0.1,0.9,0.1,1.8,0,2.6c-0.3,5.9,0.1,11.7,1.3,17.5c1,4.6,2.2,9.1,3.3,13.7
	c0.2,0.8,0.5,1.5,0.8,2.2c0.4,0.9,0.6,0.9,1.2,0.1c0.8-0.9,1.3-1.8,1.9-2.9c1.1-2.1,1.9-4.2,2.7-6.4c1.7-4.6,3.3-9.3,4.9-13.9
	c1-2.8,2.2-5.5,3-8.4c0.3-0.9,1-1.4,1.8-1.8c2.5-1,7,0.2,7.5,4.3c0.1,1.1,0.2,2.3,0.1,3.4c-0.3,4.2-0.9,8.3-1.4,12.5
	C169.4,229.3,169,234,168.8,238.5z M216.8,190.9c-0.3-0.1-0.5-0.1-0.7,0c-6.9,1.6-13.8,2.4-20.9,2.4c-1,0-1,0-1,1
	c0,3.1,0,6.2,0.1,9.3c0.2,6.5,0.6,12.9,1.4,19.4c0.7,6,1.9,11.9,3.3,17.7c1.1,4.6,2.3,9.1,4,13.4c0.5,1.3,1.1,2.5,1.9,3.6
	c0.8,1,1.2,1,2,0c0.6-0.7,1-1.5,1.3-2.4c1.1-2.5,1.8-5.1,2.3-7.7c1-5.8,1.9-11.5,3-17.3c0.4-2.2,0.5-4.4,0.2-6.7
	c0-0.3,0-0.6-0.1-0.9c-0.3-8.6,0.3-17,1.8-25.5C215.9,195.1,216.4,193,216.8,190.9z M88,257.1c0-2.9-0.4-5.4-1.4-8.4
	c-1.9-5.7-4.8-10.8-7.9-15.9c-0.4-0.6-0.4-0.6-0.9-0.1c-1.9,1.9-3.7,3.8-5.4,5.8c-2,2.3-3.9,4.8-5.6,7.4c-1.3,2.2-2.4,4.5-3.1,6.9
	c-0.6,2.1-0.7,4.3-0.2,6.5c1.7,7.1,8.7,11.8,15.9,10.6c4.2-0.7,6.8-3,7.8-7.2C87.8,260.9,88,259,88,257.1z M117.8,211.9
	c2.6,0,5.2-0.6,7.7-1c0.5-0.1,0.5-0.3,0.5-0.8c-0.1-1.2-0.4-2.4-0.7-3.5c-1-3.9-2.7-7.5-5.6-10.3c-1.1-1.1-2.3-2-3.7-2.6
	c-2-0.9-4-1.1-6.1-0.3c-3.5,1.4-5.8,4-7.1,7.6c-0.3,0.8-0.4,1.7-0.2,2.6c0.1,0.4,0.2,0.6,0.7,0.5c0.7-0.1,1.4,0,2.1,0.1
	c1.8,0.4,3,1.5,3.4,3.4c0.1,0.6,0.3,1.2,0.2,1.8c0,0.6,0.2,0.9,0.8,1.1C112.4,211.3,115.1,211.9,117.8,211.9z M126.4,216.3
	c0-0.7,0-1.4,0-2c0-0.6-0.1-0.6-0.6-0.5c-0.4,0.1-0.9,0.2-1.3,0.3c-2.7,0.5-5.4,1-8.2,1c-2,0-4-0.2-6-0.6c-0.7-0.1-0.7-0.1-0.7,0.6
	c0.2,2,0.5,4,0.9,6c0.8,3.9,2.1,7.7,4.5,10.9c0.6,0.8,1.3,1.6,2.2,2.2c0.9,0.6,1.8,0.6,2.8,0c0.7-0.4,1.3-1,1.8-1.6
	c0.8-1.1,1.5-2.2,2-3.4C125.5,225,126.3,220.7,126.4,216.3z M230.5,181.9c3.3-1.4,6.4-3.1,9.2-5.3c2.7-2.1,4.9-4.7,6.4-7.8
	c0.8-1.8,1.3-3.6,1.1-5.6c-0.1-1.3-0.5-2.4-1.3-3.4c-0.6-0.7-1.3-1-2.2-0.8c-0.8,0.2-1.5,0.4-2.1,0.9c-0.9,0.7-1.7,1.5-2.4,2.4
	c-0.9,1.2-1.7,2.4-2.5,3.8c-2.7,4.8-4.6,10-6.1,15.3C230.4,181.5,230.3,181.7,230.5,181.9z M285.3,186.2c0,2.3,0.9,4,2.5,5.5
	c1.2,1,2.5,1.7,3.9,2.4c2.3,1.1,4.7,1.8,7.2,2.3c1.5,0.3,1.5,0.5,1.2-1.2c-0.7-3.8-2-7.5-4.1-10.8c-0.9-1.4-1.9-2.8-3.3-3.8
	c-1.8-1.3-3.5-1.2-5.2,0.3c-0.8,0.7-1.3,1.5-1.6,2.4C285.5,184.3,285.3,185.3,285.3,186.2z M91.2,185c-0.2,0-0.3,0-0.3,0
	c-0.2,0.1-0.4,0.2-0.6,0.3c-5.2,2.7-8.6,6.9-10.2,12.6c-3.2,11.1,8.5,0.8,10.8-10.8C91,186.4,91.2,185.7,91.2,185z M271.9,214.7
	c0.2,0.2,0.5,0.2,0.7,0.2c2,0.2,3.9,0,5.8-0.7c2.6-0.9,4-2.8,4.2-5.5c0.2-2-0.5-3.8-2.1-5.1c-0.8-0.7-1.4-0.7-2.3-0.1
	c-0.5,0.4-0.9,0.8-1.3,1.3c-2.3,2.8-3.9,5.9-4.9,9.3C271.9,214.3,271.8,214.5,271.9,214.7z"/>
</svg>
