<?xml version="1.0" standalone="no"?>
<!DOCTYPE svg PUBLIC "-//W3C//DTD SVG 20010904//EN"
 "http://www.w3.org/TR/2001/REC-SVG-20010904/DTD/svg10.dtd">
<svg version="1.0" xmlns="http://www.w3.org/2000/svg"
 width="2359.000000pt" height="1333.000000pt" viewBox="0 0 2359.000000 1333.000000"
 preserveAspectRatio="xMidYMid meet">
<metadata>
Created by potrace 1.15, written by Peter Selinger 2001-2017
</metadata>
<g transform="translate(0.000000,1333.000000) scale(0.100000,-0.100000)"
fill="#000000" stroke="none">
<path d="M155 12997 c-14 -21 -14 -32 -5 -69 10 -36 34 -66 153 -183 152 -151
294 -271 698 -592 140 -111 364 -292 499 -403 767 -630 1145 -920 1590 -1221
821 -556 1653 -1041 2580 -1504 742 -371 1345 -604 2025 -784 201 -53 606
-141 740 -162 44 -6 87 -15 95 -20 9 -4 21 -28 28 -54 23 -86 99 -278 172
-435 271 -579 700 -1137 1276 -1656 167 -151 525 -432 757 -593 657 -458 1460
-889 2283 -1224 595 -243 1232 -464 2839 -986 1120 -363 2145 -666 2694 -796
516 -122 765 -168 1734 -322 133 -21 167 -30 167 -42 0 -9 -12 -70 -26 -136
-42 -199 -92 -512 -103 -648 -6 -70 -11 -208 -11 -305 0 -97 -8 -278 -17 -402
-22 -310 -22 -334 0 -338 21 -4 79 41 202 158 283 270 758 570 1235 780 422
186 1027 349 1503 405 161 18 171 23 164 81 -6 60 -32 95 -204 269 -165 167
-236 229 -498 430 -98 76 -245 192 -325 259 -353 296 -450 368 -705 516 -284
166 -372 229 -580 415 -66 59 -142 120 -170 136 -48 27 -108 38 -119 21 -8
-14 7 -27 74 -60 43 -21 103 -67 180 -138 189 -175 291 -246 649 -458 209
-124 271 -171 646 -481 94 -77 226 -183 295 -235 274 -206 400 -315 582 -507
104 -109 149 -175 130 -187 -4 -2 -55 -10 -112 -16 -158 -18 -511 -85 -709
-135 -391 -98 -727 -223 -1091 -405 -230 -115 -320 -167 -510 -295 -214 -144
-317 -224 -469 -362 -68 -62 -128 -113 -133 -113 -6 0 -7 11 -4 26 13 51 36
473 36 669 1 353 32 561 216 1420 183 855 207 999 202 1235 -2 108 -6 135 -17
135 -11 0 -15 -28 -18 -140 -6 -253 -32 -402 -202 -1180 -70 -320 -81 -360
-97 -359 -11 1 -104 18 -209 38 -104 19 -289 52 -410 71 -644 105 -1154 212
-1675 352 -424 113 -1557 454 -2120 638 -91 29 -464 151 -830 271 -1577 514
-2241 768 -3005 1144 -957 472 -1806 1049 -2408 1639 -553 541 -983 1186
-1183 1775 -19 55 -34 104 -34 109 0 5 14 7 32 3 93 -18 559 -67 738 -77 471
-25 947 22 1365 137 664 182 1147 521 1369 963 215 426 169 1054 -112 1526
-188 316 -551 568 -980 679 -235 61 -552 82 -782 52 -774 -103 -1443 -642
-1675 -1349 -182 -557 -203 -1135 -63 -1730 16 -71 28 -130 26 -132 -12 -13
-542 99 -833 176 -669 177 -1259 406 -2010 781 -930 465 -1744 939 -2555 1486
-433 293 -818 584 -1400 1062 -310 254 -603 490 -855 689 -261 207 -309 247
-482 409 -171 160 -197 193 -198 248 0 53 -9 63 -30 31z m10665 -1732 c387
-73 648 -194 903 -419 282 -248 469 -713 468 -1163 -1 -500 -219 -883 -676
-1185 -478 -317 -1144 -488 -1900 -488 -283 0 -699 35 -972 81 -69 12 -65 7
-97 134 -103 415 -123 881 -55 1289 88 521 268 888 591 1203 319 310 713 499
1168 563 100 14 470 4 570 -15z"/>
</g>
</svg>
