<?xml version="1.0" standalone="no"?>
<!DOCTYPE svg PUBLIC "-//W3C//DTD SVG 20010904//EN"
 "http://www.w3.org/TR/2001/REC-SVG-20010904/DTD/svg10.dtd">
<svg version="1.0" xmlns="http://www.w3.org/2000/svg"
 width="300.000000pt" height="301.000000pt" viewBox="0 0 300.000000 301.000000"
 preserveAspectRatio="xMidYMid meet">
<metadata>
Created by potrace 1.10, written by Peter Selinger 2001-2011
</metadata>
<g transform="translate(0.000000,301.000000) scale(0.100000,-0.100000)"
fill="#000000" stroke="none">
<path d="M1484 2553 c-9 -21 -45 -91 -80 -155 -35 -65 -89 -166 -120 -225 -31
-60 -95 -182 -144 -273 -48 -91 -121 -228 -162 -304 l-73 -140 63 -95 63 -96
62 -12 c108 -21 100 -27 128 92 l25 105 329 1 c182 0 370 0 418 0 l89 -1 -30
-25 c-16 -14 -47 -48 -68 -76 l-39 -50 -12 63 -11 63 5 -72 5 -71 -43 -6
c-112 -14 -128 -14 -133 3 -2 9 -10 46 -16 84 -15 83 -35 103 -25 26 3 -30 8
-70 10 -89 9 -68 9 -68 140 -49 l75 11 83 97 84 96 -57 105 c-102 188 -253
473 -308 580 -30 58 -92 174 -138 258 -46 84 -84 159 -84 167 0 31 -21 24 -36
-12z m61 -189 c31 -172 72 -405 80 -449 5 -30 4 -30 -98 -70 -141 -54 -210
-85 -205 -91 3 -2 72 22 154 55 82 33 152 57 155 53 3 -4 12 -43 19 -87 6 -44
21 -127 31 -183 18 -99 18 -129 -1 -117 -12 7 -441 8 -448 1 -3 -4 -54 -6
-113 -6 l-107 0 -6 48 c-10 72 3 102 55 129 24 12 52 23 61 23 9 0 20 5 23 10
3 6 13 10 21 10 8 0 36 9 61 21 25 11 48 18 51 15 5 -6 -9 -96 -25 -156 -3
-14 -2 -21 2 -17 5 4 10 13 11 20 9 46 34 155 40 171 4 10 3 17 -2 15 -5 -3
-20 -10 -34 -17 -49 -23 -225 -90 -229 -87 -2 2 6 19 17 37 11 18 44 80 74
138 30 58 73 139 95 180 22 41 75 143 118 225 83 162 101 188 92 140 -9 -54
-45 -206 -91 -394 -25 -101 -46 -191 -46 -200 1 -32 17 13 39 109 23 98 34
147 71 310 39 168 61 254 77 305 20 62 22 57 58 -141z m60 -19 c21 -38 45 -83
52 -100 8 -16 18 -37 23 -45 5 -8 26 -49 47 -90 21 -41 41 -76 46 -78 4 -2 7
-9 7 -15 0 -6 8 -19 17 -29 11 -13 13 -22 6 -29 -14 -14 -158 -69 -160 -61 -6
17 -93 507 -93 520 0 23 13 7 55 -73z m248 -472 c33 -65 142 -269 193 -360
l24 -43 -180 0 c-99 0 -180 2 -180 5 0 2 -14 92 -30 200 -17 107 -28 199 -25
204 3 5 19 13 36 16 18 4 50 16 73 26 22 10 44 19 48 19 3 0 22 -30 41 -67z
m-858 -372 c4 -28 2 -31 -25 -31 l-29 0 21 35 c23 41 28 40 33 -4z m214 -50
c17 -1 21 -4 13 -13 -5 -7 -18 -48 -28 -92 l-18 -78 -65 6 c-35 3 -68 11 -72
18 -5 7 -11 43 -15 81 -7 73 -21 89 -26 30 l-3 -38 -27 40 c-17 24 -24 41 -17
46 6 3 61 5 122 3 62 -2 123 -3 136 -3z"/>
<path d="M1251 1524 c0 -11 3 -14 6 -6 3 7 2 16 -1 19 -3 4 -6 -2 -5 -13z"/>
<path d="M1555 1250 c3 -4 -23 -8 -57 -9 -67 -1 -74 -4 -63 -21 5 -7 33 -10
80 -8 64 3 72 5 64 19 -4 9 -6 18 -4 21 3 3 -2 5 -10 5 -8 0 -12 -3 -10 -7z"/>
<path d="M1596 1247 c3 -10 9 -15 12 -12 3 3 0 11 -7 18 -10 9 -11 8 -5 -6z"/>
<path d="M1220 1235 c-11 -13 -10 -14 4 -9 9 3 16 10 16 15 0 13 -6 11 -20 -6z"/>
<path d="M766 1049 c-3 -8 -26 -68 -51 -135 -48 -128 -51 -139 -36 -129 5 3
17 27 25 53 l16 47 53 -3 c53 -4 54 -4 68 -45 9 -22 20 -42 26 -44 10 -4 -76
249 -89 263 -4 4 -10 1 -12 -7z m11 -147 c-22 -2 -41 -2 -43 0 -2 2 6 30 18
62 l22 58 20 -58 21 -59 -38 -3z"/>
<path d="M910 966 c0 -51 5 -107 11 -125 24 -67 113 -78 150 -18 15 26 19 51
19 135 0 66 -4 101 -10 97 -6 -3 -10 -50 -10 -106 0 -93 -2 -102 -25 -124 -31
-32 -59 -32 -90 0 -23 23 -25 31 -25 130 0 63 -4 105 -10 105 -6 0 -10 -38
-10 -94z"/>
<path d="M1113 1047 c2 -7 19 -10 45 -8 l42 3 0 -126 c0 -77 4 -126 10 -126 6
0 10 49 10 126 l0 126 40 -3 c22 -2 40 1 40 6 0 6 -42 11 -96 12 -71 2 -94 -1
-91 -10z"/>
<path d="M1368 1042 c-67 -41 -79 -166 -22 -223 99 -99 237 28 180 165 -29 68
-100 95 -158 58z m117 -26 c44 -44 45 -144 2 -183 -63 -58 -151 -23 -158 63
-5 62 2 86 30 115 38 38 91 40 126 5z"/>
<path d="M1593 1053 c-10 -3 -13 -40 -13 -134 l0 -129 55 0 c99 0 149 48 148
142 -1 58 -23 95 -68 114 -33 14 -97 18 -122 7z m143 -44 c32 -32 40 -85 21
-131 -19 -45 -49 -64 -109 -71 l-48 -5 0 120 0 120 56 -4 c42 -4 61 -11 80
-29z"/>
<path d="M1830 925 l0 -135 71 0 c44 0 68 4 64 10 -3 6 -33 10 -66 10 l-59 0
0 55 0 55 55 0 c30 0 55 5 55 10 0 6 -25 10 -56 10 l-55 0 3 48 3 47 54 1 c83
1 79 24 -3 24 l-66 0 0 -135z"/>
<path d="M2015 1036 c-14 -14 -25 -31 -25 -38 0 -24 31 -58 70 -78 22 -11 44
-28 49 -38 25 -47 -33 -97 -86 -73 -29 13 -43 7 -25 -11 7 -7 31 -13 53 -13
77 0 107 80 48 129 -17 14 -36 26 -43 26 -17 0 -46 33 -46 52 0 29 37 51 75
45 26 -4 35 -2 32 6 -2 7 -20 13 -40 15 -28 2 -42 -3 -62 -22z"/>
<path d="M2180 1057 c-5 -108 1 -262 11 -266 8 -2 10 12 7 52 l-5 56 61 -52
c69 -61 86 -72 86 -59 0 5 -31 35 -69 67 l-69 57 62 65 c61 65 75 83 59 83 -4
-1 -33 -30 -63 -65 -30 -35 -57 -64 -60 -64 -3 -1 -3 24 -2 55 2 32 -1 61 -7
67 -6 6 -11 8 -11 4z"/>
<path d="M1433 686 c-46 -21 -73 -70 -73 -134 0 -64 20 -106 60 -127 57 -30
117 -13 151 42 17 28 21 46 17 99 -3 55 -8 69 -33 94 -36 36 -79 45 -122 26z
m93 -39 c55 -47 39 -183 -24 -205 -54 -19 -101 22 -109 92 -12 106 65 171 133
113z"/>
<path d="M1713 689 c-103 -30 -119 -214 -23 -264 47 -24 130 -18 130 9 0 9
-15 11 -53 8 -50 -4 -55 -2 -80 28 -29 34 -36 94 -17 144 13 36 64 60 112 52
48 -8 55 18 7 28 -36 7 -34 7 -76 -5z"/>
<path d="M718 553 c-26 -75 -46 -139 -43 -141 12 -13 33 11 44 50 l13 44 48 0
48 0 13 -44 c10 -38 32 -63 44 -51 2 2 -17 66 -42 142 -34 102 -49 137 -62
137 -12 0 -28 -36 -63 -137z m79 60 c6 -27 14 -56 18 -65 6 -15 1 -18 -35 -18
-36 0 -41 3 -35 18 4 9 12 38 18 65 7 26 14 47 17 47 3 0 10 -21 17 -47z"/>
<path d="M932 574 c3 -113 4 -116 31 -140 48 -41 113 -29 142 26 21 40 22 230
1 230 -11 0 -15 -24 -18 -110 -3 -121 -13 -143 -64 -143 -51 1 -64 32 -64 149
0 88 -2 104 -16 104 -14 0 -15 -15 -12 -116z"/>
<path d="M1150 674 c0 -12 9 -15 41 -12 l41 3 -1 -128 c-2 -115 0 -128 14
-125 14 3 17 21 18 128 l2 125 38 -3 c28 -3 37 0 37 12 0 13 -15 16 -95 16
-80 0 -95 -2 -95 -16z"/>
<path d="M1889 550 c-38 -118 -43 -140 -29 -140 11 0 21 16 31 47 l15 47 47 1
48 1 12 -44 c11 -41 30 -62 43 -49 3 2 -13 60 -35 127 -23 67 -41 128 -41 136
0 8 -10 14 -22 14 -21 0 -28 -16 -69 -140z m104 -7 c6 -10 -3 -13 -36 -13
l-45 0 15 53 c9 28 18 59 21 67 2 8 12 -10 21 -40 9 -30 20 -61 24 -67z"/>
<path d="M2100 549 l0 -142 65 5 c74 6 107 24 131 69 22 44 20 126 -4 158 -28
38 -60 51 -129 51 l-63 0 0 -141z m137 101 c37 -22 48 -52 40 -118 -7 -62 -40
-92 -103 -92 l-44 0 0 115 0 115 38 0 c20 0 52 -9 69 -20z"/>
</g>
</svg>
