<?xml version="1.0" encoding="utf-8"?>
<!-- Generator: Adobe Illustrator 14.0.0, SVG Export Plug-In . SVG Version: 6.00 Build 43363)  -->
<!DOCTYPE svg PUBLIC "-//W3C//DTD SVG 1.1//EN" "http://www.w3.org/Graphics/SVG/1.1/DTD/svg11.dtd">
<svg version="1.1" id="Layer_2" xmlns="http://www.w3.org/2000/svg" xmlns:xlink="http://www.w3.org/1999/xlink" x="0px" y="0px"
	 width="295.098px" height="864px" viewBox="0 0 295.098 864" enable-background="new 0 0 295.098 864" xml:space="preserve">
<path fill="#FDC166" d="M198.036,711.021c-5.333-8.141-5.613-18.051-5.016-27.463v-0.002c0.259-4.063,0.064-8.156-0.708-12.158
	c11.283-5.301,19.995-14.754,25.663-25.742c2.951-5.719,5.115-11.846,6.497-18.129c0.713-3.24,1.217-6.525,1.493-9.832
	c0.119-1.422,0.331-3.014,0.334-4.58c0.004-1.666-0.23-3.303-1.067-4.67c-1.566-2.564-4.304-3.111-7.038-3.713
	c-3.31-0.729-6.67-1.225-10.05-1.471c-6.295-0.459-12.65-0.035-18.82,1.299c-12.176,2.631-23.463,8.803-32.319,17.555
	c-3.235-9.166-10.999-21.346-21.444-20.834c-2.022,0.098-4.145,0.672-6.354,1.836c-5.483,2.889-9.334,9.398-7.869,15.633
	c1.531,6.512,7.877,10.332,13.691,12.57c0.448,0.736,0.822,1.557,1.148,2.531l-0.002-0.006c0.557,1.682,0.894,3.816,0.91,6.27
	c-15.061,2.619-28.691,11.764-33.418,26.807c-4.518,14.373,1.946,30.25-6.547,43.66c-4.116,6.5-10.188,11.311-15.297,16.955
	c-5.065,5.596-8.563,12.602-10.722,19.795c-1.579,5.273-2.398,10.758-2.388,16.209c0.02,10.318,3.015,20.516,9.467,28.91
	c9.281,12.076,23.815,18.557,38.355,21.736c10.344,2.262,21.075,3.17,31.746,3.07c4.9-0.047,9.787-0.307,14.617-0.744
	c14.066-1.277,28.492-4.504,40.555-12.146c13.543-8.576,22.132-22.676,22.724-38.793c0.409-11.17-2.673-22.646-8.649-32.096
	C212.176,725.025,203.515,719.387,198.036,711.021z"/>
</svg>
