<svg width="1000" height="2500" xmlns="http://www.w3.org/2000/svg">
 <!-- Created with Method Draw - http://github.com/duopixel/Method-Draw/ -->
 <g>
  <title>background</title>
  <rect fill="#fff" id="canvas_background" height="2502" width="1002" y="-1" x="-1"/>
  <g display="none" overflow="visible" y="0" x="0" height="100%" width="100%" id="canvasGrid">
   <rect fill="url(#gridpattern)" stroke-width="0" y="0" x="0" height="100%" width="100%"/>
  </g>
 </g>
 <g>
  <title>Layer 1</title>
  <path d="m615,48.125c-3.333313,3.333332 -34.25885,14.599281 -73.333313,33.333336c-37.661682,18.056702 -62.67691,36.915695 -90.000031,63.333336c-18.716431,18.096191 -56.27301,60.242615 -66.666656,76.666656c-32.13446,50.778824 -56.219238,98.682877 -73.333344,140.000015c-20.169189,48.692719 -34.975555,99.257965 -40,150c-5.255341,53.073761 -3.311279,102.093353 13.333344,143.333344c21.823486,54.071594 65.833344,105.049622 113.333344,140c80.590515,59.298218 142.198212,87.213562 176.666656,116.666626c35.838562,30.62384 68.526184,65.581909 93.333313,100c26.149048,36.279846 45.545288,76.814392 66.666687,120.000061c18.524658,37.876343 24.40271,73.352295 23.333313,103.333252c-1.667725,46.755859 -12.911743,80.481934 -43.333313,106.666748c-39.463135,33.967163 -93.858215,63.846436 -150,103.333252c-57.965973,40.769775 -93.58493,69.612183 -140,100c-30.165619,19.74939 -65.608307,47.66333 -103.333344,86.666748c-21.365601,22.0896 -38.463318,53.716553 -46.666656,83.333252c-8.441162,30.475342 -21.525558,61.551636 -10,100c11.993011,40.00769 49.434906,77.306763 83.333344,106.666748c39.358154,34.088745 92.227295,70.57312 130,103.333252c28.489929,24.709106 52.258881,44.021606 79.999969,70.000122c29.297791,27.436279 45.906494,50.398438 56.666687,70c9.352966,17.038086 19.104736,36.922852 23.333313,50c5.522766,17.07959 6.666687,46.666504 6.666687,60c0,16.666504 -5.400696,28.89624 -10,40c-6.504333,15.702881 -8.702148,27.19751 -13.333313,36.666504c-5.280334,10.796387 -11.386353,19.203613 -16.666687,30c-4.631165,9.468994 -9.592224,13.553467 -13.333313,20c-6.032471,10.39502 -21.2547,16.934326 -26.666687,30c-1.275696,3.079834 -3.333313,10 -10,13.333496l0,6.666504l-3.333313,3.333496l0,6.666504" id="svg_5" stroke-width="1.5" stroke="#000" fill="none"/>
 </g>
</svg>