<?xml version="1.0" standalone="no"?>
<!DOCTYPE svg PUBLIC "-//W3C//DTD SVG 20010904//EN"
 "http://www.w3.org/TR/2001/REC-SVG-20010904/DTD/svg10.dtd">
<svg version="1.0" xmlns="http://www.w3.org/2000/svg"
 width="300.000000pt" height="150.000000pt" viewBox="0 0 300.000000 150.000000"
 preserveAspectRatio="xMidYMid meet">
<metadata>
Created by potrace 1.10, written by Peter Selinger 2001-2011
</metadata>
<g transform="translate(0.000000,150.000000) scale(0.100000,-0.100000)"
fill="#000000" stroke="none">
<path d="M599 1420 c-200 -26 -380 -140 -491 -309 -56 -86 -98 -209 -97 -284
0 -61 8 -48 34 63 93 394 518 605 901 448 122 -51 245 -141 421 -310 67 -65
127 -118 133 -118 6 0 65 52 132 116 187 180 322 273 478 329 60 22 99 28 191
32 142 7 231 -10 348 -67 160 -78 258 -213 306 -425 13 -59 27 -110 30 -113
11 -12 4 104 -11 162 -46 183 -160 329 -315 405 -119 58 -192 75 -324 75 -249
-1 -436 -98 -723 -378 l-112 -110 -118 115 c-174 170 -283 254 -408 310 -111
50 -263 74 -375 59z"/>
<path d="M556 1160 c-139 -50 -237 -154 -280 -299 -55 -186 44 -421 210 -502
106 -51 234 -57 351 -15 133 47 284 159 443 330 58 62 63 72 51 95 -20 37
-258 253 -336 306 -115 77 -171 97 -285 102 -78 3 -106 0 -154 -17z m297 -39
c92 -36 193 -110 333 -245 l129 -126 -120 -118 c-162 -159 -274 -234 -402
-267 -281 -73 -519 123 -501 412 6 98 39 173 104 244 55 58 117 97 183 116 68
19 203 11 274 -16z"/>
<path d="M2193 1165 c-75 -21 -158 -65 -244 -129 -98 -75 -289 -263 -289 -286
0 -25 255 -268 344 -328 171 -115 330 -136 484 -67 61 28 151 110 186 169 132
226 53 509 -174 619 -56 27 -77 31 -160 34 -61 2 -114 -2 -147 -12z m248 -31
c169 -48 280 -218 267 -406 -8 -103 -39 -177 -105 -248 -139 -151 -353 -172
-547 -55 -75 45 -144 103 -272 228 l-101 98 107 105 c214 210 361 292 531 293
36 1 90 -6 120 -15z"/>
<path d="M2976 705 c-4 -16 -16 -65 -26 -108 -29 -117 -81 -209 -169 -297
-200 -198 -493 -247 -756 -126 -127 59 -225 134 -401 307 -61 60 -116 109
-123 109 -7 0 -69 -54 -137 -121 -275 -264 -462 -359 -708 -359 -194 0 -315
48 -441 175 -93 92 -134 165 -166 295 -37 153 -37 152 -38 90 -4 -196 149
-431 339 -523 109 -53 186 -71 310 -70 250 2 444 101 718 367 l122 119 128
-124 c250 -243 420 -341 621 -358 264 -21 496 88 639 303 62 93 105 219 100
296 -3 49 -4 52 -12 25z"/>
</g>
</svg>
