<?xml version="1.0" encoding="utf-8"?>
<!-- Generator: Adobe Illustrator 14.0.0, SVG Export Plug-In . SVG Version: 6.00 Build 43363)  -->
<!DOCTYPE svg PUBLIC "-//W3C//DTD SVG 1.1//EN" "http://www.w3.org/Graphics/SVG/1.1/DTD/svg11.dtd">
<svg version="1.1" id="Layer_2" xmlns="http://www.w3.org/2000/svg" xmlns:xlink="http://www.w3.org/1999/xlink" x="0px" y="0px"
	 width="295.098px" height="864px" viewBox="0 0 295.098 864" enable-background="new 0 0 295.098 864" xml:space="preserve">
<path fill="#AF755A" d="M125.006,277.337c-0.066,5.056-4.938,11.258-19.174,15.555c-0.004-0.002-0.006-0.005-0.008-0.008
	c-4.16,1.583-8.598,2.237-13.061,2.238c-6.939-0.006-14-1.532-20.639-3.829c-1.988-0.689-3.273-2.489-3.404-4.464
	c-0.043-0.658,0.041-1.336,0.27-1.998c0.92-2.649,3.813-4.053,6.463-3.134c5.822,2.024,11.893,3.275,17.311,3.269
	c3.125,0.001,6.023-0.408,8.572-1.249c2.271-0.751,4.266-1.823,6.025-3.302c0.854-2.582,4.033-11.452,9.684-11.522
	c0.867-0.011,1.791,0.186,2.775,0.644C122.831,270.938,125.051,273.868,125.006,277.337z M226.298,282.004h-0.007v0.007h0.007
	V282.004z"/>
</svg>
