<svg width="1000.0000000000001" height="2500" xmlns="http://www.w3.org/2000/svg">
 <!-- Created with Method Draw - http://github.com/duopixel/Method-Draw/ -->
 <g>
  <title>background</title>
  <rect fill="#fff" id="canvas_background" height="2502" width="1002" y="-1" x="-1"/>
  <g display="none" overflow="visible" y="0" x="0" height="100%" width="100%" id="canvasGrid">
   <rect fill="url(#gridpattern)" stroke-width="0" y="0" x="0" height="100%" width="100%"/>
  </g>
 </g>
 <g>
  <title>Layer 1</title>
  <path d="m628.333252,51.458431c0,-3.333332 -2.021362,1.83004 -20,13.333332c-18.835205,12.051361 -33.745667,19.34288 -50,30c-23.979797,15.722275 -50.873566,35.242554 -73.333313,50c-27.85788,18.304337 -54.018341,35.542572 -76.666656,59.999985c-29.529785,31.88855 -30.652527,46.30571 -43.333313,70c-21.102112,39.429688 -29.671478,59.160614 -36.666687,90c-5.944763,26.208405 -3.333313,46.666656 -3.333313,76.666656c0,30 2.928925,53.471161 13.333313,83.333344c12.836761,36.843445 44.367401,85.729919 53.333344,96.666626c22.858795,27.88324 38.38446,54.226257 50,73.333313c23.551514,38.741211 34.104431,51.277649 60,100c9.121979,17.162964 37.164429,59.826782 56.666626,116.666687c10.262756,29.911133 21.544922,59.517761 33.333374,100c11.52771,39.586792 21.219543,69.658203 30,103.333252c7.753845,29.737549 8.331848,46.562744 10,86.666748c0.969727,23.31311 3.694519,50.835205 -3.333374,73.333252c-6.667236,21.343506 -19.387756,50.237671 -30,76.666748c-9.45929,23.557617 -18.203613,54.124756 -23.333313,63.333252c-12.669373,22.74353 -34.744568,57.749512 -46.666687,76.666748c-20.263611,32.153076 -31.237762,39.155762 -39.999969,53.333252c-15.674255,25.36145 -24.924561,38.77478 -40,60c-11.254944,15.846191 -21.923889,29.121948 -33.333313,56.666626c-8.067688,19.477051 -20,40 -30,60c-6.666687,13.333374 -15.112457,33.655396 -20,53.333374c-5.081818,20.460205 -10.438202,37.513306 -16.666687,60c-5.188263,18.731201 -11.654083,36.359253 -13.333313,50c-3.258179,26.466797 1.66095,49.793213 3.333313,70c1.649597,19.931885 6.936615,37.023315 10,50c5.137421,21.762451 22.743164,38.849609 30,59.999878c5.516113,16.076904 17.426727,37.590332 23.333344,50c14.325775,30.0979 37.366882,46.169189 46.666656,60c10.845398,16.129395 19.079987,27.40918 30,40c9.265961,10.683838 14.067383,25.98291 23.333344,36.666748c10.919983,12.59082 16.925476,25.193359 30,43.333252c8.269043,11.472656 10,20 20,30c10,10 18.397583,18.527344 26.666626,30c4.358215,6.046631 8.427185,17.061035 10,20c5.671021,10.596436 8.062805,11.39624 13.333374,16.666748c5.270447,5.270508 6.666626,10 6.666626,13.333252l3.333374,0" id="svg_3" stroke-width="1.5" stroke="#000" fill="none"/>
 </g>
</svg>