<svg width="1031" height="3544" xmlns="http://www.w3.org/2000/svg">
 <!-- Created with Method Draw - http://github.com/duopixel/Method-Draw/ -->
 <g>
  <title>background</title>
  <rect fill="#fff" id="canvas_background" height="3546" width="1033" y="-1" x="-1"/>
  <g display="none" overflow="visible" y="0" x="0" height="100%" width="100%" id="canvasGrid">
   <rect fill="url(#gridpattern)" stroke-width="0" y="0" x="0" height="100%" width="100%"/>
  </g>
 </g>
 <g>
  <title>Layer 1</title>
  <path d="m668.001587,24.170292c0,0 -5.000061,0 -15.000183,0c-15.000122,0 -20.761414,-3.826851 -30.000244,0c-6.532898,2.706005 -10.489563,9.122238 -20.000244,15.000149c-8.506592,5.257339 -30.000244,0 -55.000549,0c-5,0 -20.000183,5.000046 -30.000244,5.000046c-5.000061,0 -16.90332,7.217686 -45.000458,15.000149c-4.818634,1.334682 -15.380768,-1.913441 -20.000214,0c-13.065765,5.412014 -30.000275,10.000095 -40.000397,15.000149c-20.000183,10.000084 -31.934662,19.588226 -45.000427,25.000244c-4.619446,1.913445 -12.094421,7.094383 -20.000214,15.000153c-7.905762,7.905762 -21.553955,22.674843 -30.000275,30.000298c-11.944885,10.359756 -16.551239,13.595062 -30.000305,30.00029c-11.429504,13.941757 -19.776031,27.746048 -25.000244,45.000443c-1.448944,4.785507 -5.738708,19.717255 -15.000153,45.000458c-5.438492,14.846771 -5.000046,30.000275 -5.000046,45.000427c0,5.000061 0,30.000305 5.000046,35.000336c15.000153,15.000153 33.055573,34.640686 45.000458,45.000458c8.446289,7.325439 27.746033,34.776184 45.000427,40.000397c4.785522,1.448944 20.885101,11.726013 45.000458,20.000183c21.150574,7.256927 34.070404,17.744873 60.00058,25.000244c29.289185,8.195251 35.000336,5.000061 60.00058,5.000061c15.000183,0 29.341736,1.442963 50.000488,10.000092c14.607971,6.050842 28.785828,9.934692 60.00061,15.000153c14.806458,2.40274 41.142212,9.259857 55.000549,15.000153c19.598633,8.117981 28.463013,20.930237 35.000366,30.000305c12.403687,17.209167 40.000366,30.000305 45.000427,35.000305c10.000122,10.000061 10.000061,15.000183 15.000122,25.000305c10.000122,20.000183 10.000122,30.000244 10.000122,45.000427c0,15.000122 0,35.000305 0,50.000488c0,25.000244 0,40.000366 0,70.000671c0,65.000671 -7.07959,93.806335 -15.000183,110.001099c-6.946777,14.203735 -3.279663,26.945374 -20.000183,40.000366c-22.980164,17.942383 -41.142212,24.259949 -55.000549,30.000305c-19.598633,8.118042 -20.000183,15.000122 -50.000488,35.000366c-15.000122,10.000122 -29.443054,10.970581 -55.000549,25.000244c-29.402527,16.140381 -48.513062,17.817505 -75.000732,30.000244c-14.36499,6.606934 -30.398773,19.240112 -50.000488,30.000366c-25.557465,14.029663 -44.316681,20.734131 -55.000519,30.000244c-18.886536,16.380249 -33.595306,21.55127 -50.000519,35.000366c-13.941742,11.429565 -32.094604,22.094482 -40.000397,30.000244c-7.905792,7.905762 -18.570709,26.058716 -30.000275,40.000488c-4.483002,5.468384 -17.702667,20.267578 -20.000214,30.000244c-7.706223,32.644165 -27.491714,49.690308 -30.00029,80.000854c-1.237213,14.948975 0,45.000366 0,70.00061c0,15.000122 5.814529,38.047852 25.000244,60.00061c21.068375,24.106934 45.618942,34.014648 70.000687,50.000488c35.970123,23.583618 63.738007,43.937134 105.001038,55.00061c29.376526,7.876465 95.130066,28.398438 105.001038,30.000244c15.607361,2.532715 30.392456,13.949463 45.000427,20.000244c20.658752,8.557129 38.175537,10.711914 80.000793,45.000366c27.342041,22.415161 41.550476,36.687866 55.000549,45.000488c18.045166,11.152588 22.361694,22.361816 45.000427,45.000488c22.638733,22.638672 32.431641,29.119019 35.000366,40.000366c3.44635,14.598877 4.122192,25.489624 10.000122,35.000366c7.885986,12.759888 0,25.000244 0,40.000366c0,15.000122 0,30.000244 0,35.000366c0,15.000122 -7.07959,28.805664 -15.000183,45.000366c-6.946838,14.203735 -17.487915,29.629395 -20.000183,55.00061c-0.492676,4.975708 -9.105408,26.493652 -25.000244,35.000366c-13.22522,7.077881 -16.955139,13.847656 -35.000366,25.000122c-13.450073,8.3125 -40.796753,13.053467 -55.000549,20.000244c-16.194702,7.92041 -35.000305,15.000244 -65.00061,25.000244c-15.000122,5 -25.401917,21.882324 -45.000427,30.000244c-13.858398,5.740234 -31.14212,9.26001 -45.000458,15.000244c-19.598694,8.118164 -39.408051,20.95166 -55.000549,30.000244c-29.010315,16.835205 -35.990326,18.165283 -65.000641,35.000488c-15.592499,9.048584 -30.129425,23.398438 -40.000397,25.000244c-15.607361,2.532715 -17.791046,17.596436 -35.000336,30.000244c-9.070038,6.537354 -30.000305,20.000244 -40.000397,30.000244c-5.000061,5 -9.640503,18.05542 -20.000198,30.000244c-7.325455,8.446289 -19.588226,16.93457 -25.000244,30.000244c-5.740372,13.858398 -5.000046,30.000488 -5.000046,45.000488c0,20.000244 -4.775894,32.746338 -10.000107,50.000488c-2.897934,9.571045 0,25.000244 0,40.000488c0,15 4.54834,41.540771 15.000153,60.000488c10.15741,17.939941 19.335922,35.695557 35.000336,50.000488c28.836655,26.333984 41.90358,47.218018 70.000687,55.000488c4.818634,1.334717 46.403046,28.02124 95.000946,45.000488c28.712158,10.031494 45.401733,11.553955 60.00058,15.000244c32.644135,7.706299 59.310303,22.377441 90.000916,30.000244c29.517273,7.331299 46.527405,1.80835 70.000671,15.000244c21.79425,12.248291 31.077271,10.594727 60.00061,20.000244c31.897156,10.372559 54.73938,14.524902 75.000732,30.000244c8.885132,6.786377 16.4646,6.464355 20.000183,10c3.535522,3.535645 27.43158,19.118896 30.000305,30.000244c1.148804,4.866455 -5.740356,21.14209 0,35.000488c8.118042,19.598389 15.000122,25.000244 15.000122,40.000244c0,15.000244 0,20.000244 0,35.000488c0,15 -2.467285,44.393311 -5,60.000488c-2.402771,14.806641 -3.164856,30.990234 -20.000244,60.000732c-9.048645,15.592529 -15.951599,29.407715 -25.000244,45.000244c-5.611816,9.670166 -23.819824,43.820313 -35.000305,55.000732c-11.180481,11.18042 -21.553894,22.674805 -30.000305,30.000244c-11.944885,10.359863 -30.129456,13.398438 -40.000427,15.000244c-15.607361,2.532715 -36.445923,10.243408 -60.000549,20c-16.655701,6.89917 -35.270996,12.163574 -50.000488,15.000244c-26.440247,5.091797 -56.077576,20.594727 -85.000854,30.000244c-21.264893,6.915039 -30.796692,8.053467 -45.000458,15.000244c-16.194763,7.92041 -46.142242,19.26001 -60.00058,25.000244c-19.598572,8.11792 -20.33017,14.388428 -30.000305,20.000244c-15.592438,9.048828 -26.553955,17.674805 -35.000336,25.000244c-11.944855,10.359863 -24.531921,15.51709 -30.000305,20c-13.941833,11.429688 -21.493683,9.105469 -30.000305,25.000244c-2.359421,4.408691 -13.570648,16.058594 -25.000229,30.000488c-4.483017,5.468262 -15.000153,15 -15.000153,20l-5.000046,10.000244" id="svg_4" stroke-width="1.5" stroke="#000" fill="none"/>
 </g>
</svg>